SplineFontDB: 3.2
FontName: TemporaSerif-Bold
FullName: Tempora Serif Bold
FamilyName: Tempora Serif
Weight: Bold
Copyright: Copyright Copyright 2012-2024 The Libertinus Project Authors.
Version: 5.0
ItalicAngle: 0
UnderlinePosition: -98
UnderlineWidth: 40
Ascent: 800
Descent: 200
InvalidEm: 0
sfntRevision: 0x00070d0e
LayerCount: 2
Layer: 0 0 "Atr+AOEA-s" 1
Layer: 1 0 "Fore" 0
XUID: [1021 149 -1843968052 12892267]
StyleMap: 0x0020
FSType: 0
OS2Version: 4
OS2_WeightWidthSlopeOnly: 0
OS2_UseTypoMetrics: 1
CreationTime: 1156455862
ModificationTime: 1759004430
PfmFamily: 81
TTFWeight: 700
TTFWidth: 5
LineGap: 0
VLineGap: 0
Panose: 0 0 0 0 0 0 0 0 0 0
OS2TypoAscent: 894
OS2TypoAOffset: 0
OS2TypoDescent: -246
OS2TypoDOffset: 0
OS2TypoLinegap: 0
OS2WinAscent: 894
OS2WinAOffset: 0
OS2WinDescent: 246
OS2WinDOffset: 0
HheadAscent: 894
HheadAOffset: 0
HheadDescent: -246
HheadDOffset: 0
OS2SubXSize: 650
OS2SubYSize: 600
OS2SubXOff: 0
OS2SubYOff: 75
OS2SupXSize: 650
OS2SupYSize: 600
OS2SupXOff: 0
OS2SupYOff: 350
OS2StrikeYSize: 40
OS2StrikeYPos: 260
OS2CapHeight: 645
OS2XHeight: 433
OS2FamilyClass: 261
OS2Vendor: 'QUE '
OS2CodePages: 600001bf.00000000
OS2UnicodeRanges: e0000aff.5200e4fb.01000020.00000000
Lookup: 1 0 0 "'locl' Localized Forms in Cyrillic lookup 0" { "'locl' Localized Forms in Cyrillic lookup 0 subtable"  } ['locl' ('cyrl' <'MKD ' 'SRB ' > ) ]
Lookup: 1 0 0 "'locl' Localized Forms in Latin lookup 1" { "'locl' Localized Forms in Latin lookup 1 subtable"  } ['locl' ('latn' <'FIN ' 'ISM ' 'LSM ' 'NOR ' 'NSM ' 'SKS ' 'SSM ' 'SVE ' 'TRK ' > ) ]
Lookup: 4 0 0 "'locl' Localized Forms in Latin lookup 2" { "'locl' Localized Forms in Latin lookup 2 subtable"  } ['locl' ('latn' <'NLD ' > ) ]
Lookup: 1 0 0 "Single Substitution lookup 3" { "Single Substitution lookup 3 subtable"  } []
Lookup: 1 0 0 "Single Substitution lookup 4" { "Single Substitution lookup 4 subtable"  } []

StartChar: .notdef
Encoding: 1114112 -1 0
Width: 500
GlyphClass: 1
Flags: MW
HStem: 0 50<80 420 80 500> 650 50<80 420 80 80>
VStem: 0 50<95 605 95 700> 450 50<95 605 605 605>
LayerCount: 2
Fore
SplineSet
0 0 m 1
 0 700 l 1
 500 700 l 1
 500 0 l 1
 0 0 l 1
80 50 m 1
 420 50 l 1
 250 305 l 1
 80 50 l 1
50 605 m 1
 50 95 l 1
 220 350 l 1
 50 605 l 1
280 350 m 1
 450 95 l 1
 450 605 l 1
 280 350 l 1
250 395 m 1
 420 650 l 1
 80 650 l 1
 250 395 l 1
EndSplineSet
EndChar

StartChar: exclam
Encoding: 33 33 2
Width: 266
GlyphClass: 2
Flags: MW
HStem: -10 139<114 152> 638 20G<117.5 151.5>
VStem: 60 146<41 77.5> 103 58
LayerCount: 2
Fore
SplineSet
133 658 m 0xd0
 170 658 205 634 205 583 c 0
 205 548 197 510 191 477 c 0
 175 379 162 279 161 230 c 0
 161 211 156 188 133 188 c 0
 107 188 104 208 103 242 c 0
 102 290 88 410 75 480 c 0
 68 515 61 544 61 583 c 0
 61 639 102 658 133 658 c 0xd0
60 58 m 0xe0
 60 97 94 129 134 129 c 0
 174 129 206 99 206 60 c 0
 206 22 172 -10 132 -10 c 0
 92 -10 60 20 60 58 c 0xe0
EndSplineSet
EndChar

StartChar: quotedbl
Encoding: 34 34 3
Width: 376
GlyphClass: 2
Flags: MW
HStem: 625 20G<106.5 149 247.5 290>
VStem: 63 110<600.5 602.5> 204 110<600.5 602.5>
LayerCount: 2
Fore
SplineSet
110 411 m 1
 95 415 l 1
 95 415 63 585 63 591 c 0
 63 614 85 645 128 645 c 0
 170 645 173 626 173 608 c 0
 173 593 136 417 136 417 c 1
 110 411 l 1
251 411 m 1
 236 415 l 1
 236 415 204 585 204 591 c 0
 204 614 226 645 269 645 c 0
 311 645 314 626 314 608 c 0
 314 593 277 417 277 417 c 1
 251 411 l 1
EndSplineSet
EndChar

StartChar: numbersign
Encoding: 35 35 4
Width: 514
GlyphClass: 2
Flags: MW
HStem: 187 66<38 128 29 138 193 281 38 185 342 452> 360 66<64 155 55 164 64 212 219 306 369 477>
VStem: 29 457<187 426> 138 55<253 253> 155 57<360 360>
LayerCount: 2
Fore
SplineSet
359 360 m 1xe0
 342 253 l 1
 460 253 l 1
 452 187 l 1
 333 187 l 1
 323 127 315 72 305 14 c 1
 252 14 l 1
 281 187 l 1
 185 187 l 1
 174 127 166 72 155 14 c 1
 100 14 l 1
 128 187 l 1
 29 187 l 1
 38 253 l 1
 138 253 l 1xd0
 144 290 150 323 155 360 c 1
 55 360 l 1
 64 426 l 1
 164 426 l 1
 174 484 183 541 193 599 c 1
 249 599 l 1
 219 426 l 1xc8
 316 426 l 1
 326 484 334 541 344 599 c 1
 396 599 l 1
 369 426 l 1
 486 426 l 1
 477 360 l 1
 359 360 l 1xe0
289 253 m 1
 306 360 l 1
 212 360 l 1xc8
 206 323 199 290 193 253 c 1
 289 253 l 1
EndSplineSet
EndChar

StartChar: dollar
Encoding: 36 36 5
Width: 514
GlyphClass: 2
Flags: MW
HStem: -9 40<265 267> 9 159 572 38<256 258> 675 20G<297.5 304>
VStem: 66 116<471 472.5> 222.5 40.5 232.5 40 251.5 40 260.5 41 350 117<86.5 195>
LayerCount: 2
Fore
SplineSet
423 585 m 1xb1
 429 531 433 493 433 444 c 1
 423 436 400 435 387 439 c 1
 372 491 352 552 297 568 c 1
 286 366 l 1
 290 364 l 2xb140
 326 345 383 317 419 277 c 0
 446 247 467 219 467 171 c 0
 467 114 437 70 404 41 c 0
 367 8 320 -8 265 -9 c 1
 261 -93 l 1
 253 -97 230 -98 220 -98 c 1
 225 -8 l 1xbc40
 130 -6 124 9 76 9 c 1
 66 43 58 92 58 162 c 1
 59 162 60 163 62 163 c 0
 75 167 89 171 104 165 c 1
 121 91 172 43 227 32 c 1
 238 242 l 1x7a
 195 267 133 297 97 345 c 0
 76 373 66 414 66 450 c 0
 66 495 91 538 126 566 c 0
 162 595 217 608 258 610 c 1
 263 690 l 1
 272 693 291 695 304 695 c 1
 299 609 l 1xb880
 359 605 379 591 423 585 c 1xb1
278 216 m 1xb240
 267 31 l 1
 315 37 350 66 350 107 c 0
 350 152 315 188 278 216 c 1xb240
247 392 m 1xb9
 256 572 l 1
 214 568 182 537 182 489 c 0
 182 453 214 418 247 392 c 1xb9
EndSplineSet
EndChar

StartChar: percent
Encoding: 37 37 6
Width: 637
GlyphClass: 2
Flags: MW
HStem: -19 39<474.5 493.5 474.5 510.5> -4 21G<96 96> 214 36<513 530> 297 39<155.5 174.5 155.5 191.5> 474 45<355.5 369> 530 36<194 206 148.5 211>
VStem: 51 93<362.5 447> 243 42<458 478 425.5 499> 370 93<46.5 131> 562 42<142 183>
LayerCount: 2
Fore
SplineSet
51 407 m 0x77c0
 51 487 104 566 193 566 c 0x77c0
 219 566 244 560 261 544 c 1
 303 542 347 519 364 519 c 0
 406 519 473 525 514 569 c 1
 561 548 l 1
 150 -16 l 1
 96 -4 l 1
 462 497 l 1
 423 481 384 474 354 474 c 0
 333 474 303 483 284 493 c 1x7fc0
 285 487 285 481 285 475 c 0
 285 376 231 297 152 297 c 0
 120 297 91 306 74 327 c 0
 60 345 51 370 51 407 c 0x77c0
370 91 m 0xb7c0
 370 171 423 250 512 250 c 0
 560 250 604 231 604 159 c 0
 604 60 550 -19 471 -19 c 0
 439 -19 410 -10 393 11 c 0
 379 29 370 54 370 91 c 0xb7c0
144 369 m 0x77c0
 144 356 147 336 164 336 c 0
 185 336 204 353 218 376 c 0
 235 404 243 443 243 473 c 0
 243 525 218 530 204 530 c 0
 184 530 166 508 156 478 c 0
 145 444 144 400 144 369 c 0x77c0
463 53 m 0xb7c0
 463 40 466 20 483 20 c 0
 504 20 523 37 537 60 c 0
 554 88 562 127 562 157 c 0
 562 209 537 214 523 214 c 0
 503 214 485 192 475 162 c 0
 464 128 463 84 463 53 c 0xb7c0
EndSplineSet
EndChar

StartChar: ampersand
Encoding: 38 38 7
Width: 729
GlyphClass: 2
Flags: MW
HStem: -10 52<235.5 271.5> -10 61<576 588.5> 402 34<510 510 704 704> 616 42<309.5 341>
VStem: 39 128<129 178.5> 151 107<468 559> 383 102<518.5 558.5> 555 154
LayerCount: 2
Fore
SplineSet
601 324 m 0xbb
 580 287 530 212 485 156 c 1
 513 111 551 51 601 51 c 0
 633 51 660 72 681 97 c 1x7b
 691 97 699 76 699 61 c 1
 661 10 611 -10 566 -10 c 0
 510 -10 466 -1 416 66 c 1
 373 24 311 -10 232 -10 c 0
 118 -10 39 28 39 144 c 0xbb
 39 213 81 285 215 350 c 1
 171 411 151 445 151 491 c 0
 151 521 160 565 192 600 c 0xb7
 223 634 277 658 342 658 c 0
 434 658 485 597 485 547 c 0
 485 466 421 410 335 376 c 1
 339 371 l 1
 355 343 453 207 453 207 c 2
 458 201 464 201 468 206 c 0
 503 247 524 282 544 326 c 0
 558 355 568 398 510 402 c 1
 504 408 504 430 510 436 c 1
 537 435 574 434 611 434 c 0
 633 434 682 435 704 436 c 1
 710 430 710 408 704 402 c 1
 653 396 628 368 601 324 c 0xbb
236 317 m 1
 175 266 167 218 167 170 c 0
 167 88 215 42 256 42 c 0
 305 42 341 53 385 101 c 1
 338 164 263 277 236 317 c 1
258 536 m 0xb7
 258 505 281 457 307 419 c 1
 312 413 l 1
 354 446 383 500 383 537 c 0
 383 580 358 616 324 616 c 0
 283 616 258 582 258 536 c 0xb7
EndSplineSet
Substitution2: "'ss06' Style Set 6 lookup 44 subtable" ampersand.alt
Substitution2: "'salt' Stylistic Alternatives lookup 21 subtable" ampersand.alt
EndChar

StartChar: quotesingle
Encoding: 39 39 8
Width: 215
GlyphClass: 2
Flags: MW
HStem: 625 20G<94.5 137>
VStem: 51 110<600.5 602.5>
LayerCount: 2
Fore
SplineSet
98 411 m 1
 83 415 l 1
 83 415 51 585 51 591 c 0
 51 614 73 645 116 645 c 0
 158 645 161 626 161 608 c 0
 161 593 124 417 124 417 c 1
 98 411 l 1
EndSplineSet
EndChar

StartChar: parenleft
Encoding: 40 40 9
Width: 315
GlyphClass: 2
Flags: MW
HStem: -213 21G<268 268>
VStem: 36 115<230.5 344>
LayerCount: 2
Fore
SplineSet
36 253 m 0
 36 435 139 607 270 720 c 1
 298 686 l 1
 268 651 151 517 151 253 c 0
 151 -11 266 -145 298 -181 c 1
 268 -213 l 1
 41 -17 36 208 36 253 c 0
EndSplineSet
MultipleSubs2: "'c2sc' Capitals to Small Capitals lookup 12 subtable" parenleft.sc
Substitution2: "'case' Case-Sensitive Forms lookup 8 subtable" parenleft.sc
Substitution2: "'subs' Subscript lookup 7 subtable" uni208D
Substitution2: "'sups' Superscript lookup 6 subtable" uni207D
Substitution2: "Single Substitution lookup 4 subtable" uni207D
Substitution2: "Single Substitution lookup 3 subtable" uni208D
EndChar

StartChar: parenright
Encoding: 41 41 10
Width: 315
GlyphClass: 2
Flags: MW
HStem: -216 21G<45 45>
VStem: 164 115<160 273.5 160 383>
LayerCount: 2
Fore
SplineSet
279 251 m 0
 279 69 176 -103 45 -216 c 1
 17 -182 l 1
 47 -147 164 -13 164 251 c 0
 164 515 49 649 17 685 c 1
 47 717 l 1
 274 521 279 296 279 251 c 0
EndSplineSet
MultipleSubs2: "'c2sc' Capitals to Small Capitals lookup 12 subtable" parenright.sc
Substitution2: "'case' Case-Sensitive Forms lookup 8 subtable" parenright.sc
Substitution2: "'subs' Subscript lookup 7 subtable" uni208E
Substitution2: "'sups' Superscript lookup 6 subtable" uni207E
Substitution2: "Single Substitution lookup 4 subtable" uni207E
Substitution2: "Single Substitution lookup 3 subtable" uni208E
EndChar

StartChar: asterisk
Encoding: 42 42 11
Width: 433
GlyphClass: 2
Flags: MW
HStem: 567 73 568 20 568 74<298.5 302.5>
VStem: 114 202<471.5 505.5 471 506> 173 78<669.5 689.5>
LayerCount: 2
Fore
SplineSet
197 566 m 1x90
 193 567 190 567 186 568 c 0
 176 570 167 572 156 571 c 0
 111 563 75 563 75 608 c 0
 75 622 84 640 108 640 c 0x90
 142 640 159 607 203 588 c 1
 199 628 173 653 173 679 c 0
 173 700 193 718 211 718 c 0
 229 718 251 707 251 683 c 0x88
 251 656 228 618 226 588 c 1x48
 271 607 282 642 315 642 c 0x28
 346 642 354 618 354 608 c 0
 354 578 320 568 285 568 c 0
 266 568 249 568 231 565 c 1
 265 529 316 531 316 480 c 0x30
 316 462 298 451 284 451 c 0
 235 451 238 513 213 552 c 1
 188 507 202 451 143 451 c 0
 126 451 114 464 114 479 c 0
 114 533 164 528 197 566 c 1x90
EndSplineSet
EndChar

StartChar: plus
Encoding: 43 43 12
Width: 537
GlyphClass: 2
Flags: MW
HStem: 195 74<61 232 61 232 306 477> 413 20G<232 306 306 306>
VStem: 232 74<32 195 32 195 269 433>
LayerCount: 2
Fore
SplineSet
306 269 m 1
 477 269 l 1
 477 195 l 1
 306 195 l 1
 306 32 l 1
 232 32 l 1
 232 195 l 1
 61 195 l 1
 61 269 l 1
 232 269 l 1
 232 433 l 1
 306 433 l 1
 306 269 l 1
EndSplineSet
Substitution2: "'subs' Subscript lookup 7 subtable" uni208A
Substitution2: "'sups' Superscript lookup 6 subtable" uni207A
Substitution2: "Single Substitution lookup 4 subtable" uni207A
Substitution2: "Single Substitution lookup 3 subtable" uni208A
EndChar

StartChar: comma
Encoding: 44 44 13
Width: 244
GlyphClass: 2
Flags: MW
HStem: -167 294
VStem: 125 74<-40 45>
LayerCount: 2
Fore
SplineSet
112 127 m 0
 166 127 199 86 199 4 c 0
 199 -31 173 -80 145 -108 c 0
 117 -136 73 -161 36 -167 c 1
 25 -159 24 -149 29 -136 c 1
 74 -124 125 -53 125 -27 c 0
 125 -5 102 3 89 6 c 0
 70 11 49 39 49 64 c 0
 49 87 86 127 112 127 c 0
EndSplineSet
EndChar

StartChar: hyphen
Encoding: 45 45 14
Width: 358
GlyphClass: 2
Flags: MW
HStem: 215 79<63 284 84 273>
VStem: 38 282<230.5 278.5>
LayerCount: 2
Fore
SplineSet
273 215 m 2
 75 215 l 2
 51 215 38 225 38 236 c 0
 38 253 63 294 84 294 c 2
 284 294 l 2
 312 294 320 284 320 273 c 0
 320 260 296 215 273 215 c 2
EndSplineSet
MultipleSubs2: "'c2sc' Capitals to Small Capitals lookup 12 subtable" hyphen.sc
MultipleSubs2: "'smcp' Lowercase to Small Capitals lookup 10 subtable" hyphen.sc
Substitution2: "'case' Case-Sensitive Forms lookup 8 subtable" hyphen.cap
Substitution2: "'subs' Subscript lookup 7 subtable" uni208B
Substitution2: "'sups' Superscript lookup 6 subtable" uni207B
Substitution2: "Single Substitution lookup 4 subtable" uni207B
Substitution2: "Single Substitution lookup 3 subtable" uni208B
EndChar

StartChar: period
Encoding: 46 46 15
Width: 244
GlyphClass: 2
Flags: MW
HStem: -10 139<103 141>
VStem: 49 146<41 77.5>
LayerCount: 2
Fore
SplineSet
49 58 m 0
 49 97 83 129 123 129 c 0
 163 129 195 99 195 60 c 0
 195 22 161 -10 121 -10 c 0
 81 -10 49 20 49 58 c 0
EndSplineSet
EndChar

StartChar: slash
Encoding: 47 47 16
Width: 316
GlyphClass: 2
Flags: MW
HStem: -21 703<2 302 2 302>
VStem: 2 300
LayerCount: 2
Fore
SplineSet
302 682 m 1
 65 -21 l 1
 2 -21 l 1
 239 682 l 1
 302 682 l 1
EndSplineSet
Substitution2: "'sups' Superscript lookup 6 subtable" fraction
Substitution2: "Single Substitution lookup 4 subtable" fraction
EndChar

StartChar: zero
Encoding: 48 48 17
Width: 514
GlyphClass: 2
Flags: MW
HStem: -10 42<215 276 215 304.5> 568 42<240 279.5>
VStem: 30 143<244.5 398> 342 142<207 415.5>
LayerCount: 2
Fore
SplineSet
255 -10 m 0
 109 -10 30 134 30 298 c 0
 30 498 131 610 260 610 c 0
 361 610 484 543 484 307 c 0
 484 69 354 -10 255 -10 c 0
260 568 m 0
 220 568 173 530 173 287 c 0
 173 202 174 32 256 32 c 0
 296 32 342 87 342 327 c 0
 342 504 299 568 260 568 c 0
EndSplineSet
Substitution2: "'zero' Slashed Zero lookup 18 subtable" zero.slash
Substitution2: "'pnum' Proportional Numbers lookup 17 subtable" zero.fitted
Substitution2: "'onum' Oldstyle Figures lookup 15 subtable" zero.oldstyle
Substitution2: "'case' Case-Sensitive Forms lookup 8 subtable" zero.cap
Substitution2: "'subs' Subscript lookup 7 subtable" uni2080
Substitution2: "'sups' Superscript lookup 6 subtable" uni2070
Substitution2: "Single Substitution lookup 4 subtable" uni2070
Substitution2: "Single Substitution lookup 3 subtable" uni2080
EndChar

StartChar: one
Encoding: 49 49 18
Width: 514
GlyphClass: 2
Flags: MW
HStem: -2 34<134 134 470 470> 590 20G<353 362.5> 593 17<353 375>
VStem: 237 130<122 435 435 460> 470 8
LayerCount: 2
Fore
SplineSet
367 122 m 2xd8
 367 39 415 35 470 32 c 1
 480 26 480 4 470 -2 c 1
 388 -1 343 0 303 0 c 0
 263 0 216 -1 134 -2 c 1
 124 4 124 26 134 32 c 1
 189 35 237 39 237 122 c 2
 237 435 l 2
 237 485 231 489 218 489 c 0
 204 489 168 487 114 464 c 1
 100 474 93 490 92 507 c 1
 179 543 247 567 308 595 c 0
 331 606 348 610 358 610 c 0
 367 610 375 606 375 593 c 2xb8
 375 593 367 536 367 483 c 2
 367 122 l 2xd8
EndSplineSet
Substitution2: "'pnum' Proportional Numbers lookup 17 subtable" one.fitted
Substitution2: "'onum' Oldstyle Figures lookup 15 subtable" one.oldstyle
Substitution2: "'case' Case-Sensitive Forms lookup 8 subtable" one.cap
Substitution2: "'subs' Subscript lookup 7 subtable" uni2081
Substitution2: "'sups' Superscript lookup 6 subtable" uni00B9
Substitution2: "Single Substitution lookup 4 subtable" uni00B9
Substitution2: "Single Substitution lookup 3 subtable" uni2081
EndChar

StartChar: two
Encoding: 50 50 19
Width: 514
GlyphClass: 2
Flags: MW
HStem: 0 79<189 319 319 341.5 189 429> 569 41<215 264.5>
VStem: 50 106<441.5 511.5> 50 117<441.5 455.5 437.5 485> 325 128<412.5 476>
LayerCount: 2
Fore
SplineSet
50 454 m 0xd8
 50 516 119 610 262 610 c 0
 365 610 453 553 453 449 c 0
 453 356 413 332 294 222 c 2
 235 168 l 2
 202 138 192 111 189 79 c 1
 319 79 l 2
 364 79 393 106 415 174 c 1
 438 174 447 170 460 164 c 1
 453 107 441 38 429 0 c 1
 43 0 l 1
 39 32 l 1
 42 59 59 87 183 205 c 2
 268 286 l 2
 321 336 325 379 325 446 c 0
 325 506 290 569 239 569 c 0
 191 569 156 523 156 500 c 0xe8
 156 489 159 481 162 474 c 0
 165 465 167 458 167 453 c 0
 167 422 138 400 109 400 c 0
 73 400 50 429 50 454 c 0xd8
EndSplineSet
Substitution2: "'pnum' Proportional Numbers lookup 17 subtable" two.fitted
Substitution2: "'onum' Oldstyle Figures lookup 15 subtable" two.oldstyle
Substitution2: "'case' Case-Sensitive Forms lookup 8 subtable" two.cap
Substitution2: "'subs' Subscript lookup 7 subtable" uni2082
Substitution2: "'sups' Superscript lookup 6 subtable" uni00B2
Substitution2: "Single Substitution lookup 4 subtable" uni00B2
Substitution2: "Single Substitution lookup 3 subtable" uni2082
EndChar

StartChar: three
Encoding: 51 51 20
Width: 514
GlyphClass: 2
Flags: MW
HStem: -10 42<213.5 251.5 213.5 276> 568 42<231 269>
VStem: 311 118<468.5 520.5> 338 129<152.5 232>
LayerCount: 2
Fore
SplineSet
248 568 m 0xe0
 214 568 172 565 161 504 c 0
 155 472 143 449 99 449 c 0
 66 449 61 472 61 486 c 0
 61 499 67 526 89 546 c 0
 121 575 163 610 267 610 c 0
 405 610 429 543 429 499 c 0xe0
 429 438 380 385 336 363 c 1
 420 357 467 294 467 222 c 0
 467 83 335 -10 217 -10 c 0
 168 -10 115 3 79 21 c 0
 57 32 46 47 46 68 c 0
 46 85 64 111 95 111 c 0
 132 111 149 89 160 74 c 0
 173 57 194 32 233 32 c 0
 270 32 338 57 338 172 c 0xd0
 338 292 265 307 213 307 c 0
 198 307 186 305 165 299 c 1
 158 339 l 1
 250 360 311 421 311 497 c 0
 311 544 290 568 248 568 c 0xe0
EndSplineSet
Substitution2: "'pnum' Proportional Numbers lookup 17 subtable" three.fitted
Substitution2: "'onum' Oldstyle Figures lookup 15 subtable" three.oldstyle
Substitution2: "'case' Case-Sensitive Forms lookup 8 subtable" three.cap
Substitution2: "'subs' Subscript lookup 7 subtable" uni2083
Substitution2: "'sups' Superscript lookup 6 subtable" uni00B3
Substitution2: "Single Substitution lookup 4 subtable" uni00B3
Substitution2: "Single Substitution lookup 3 subtable" uni2083
EndChar

StartChar: four
Encoding: 52 52 21
Width: 514
GlyphClass: 2
Flags: MW
HStem: -2 34<168 168 478 478> 162 47<77 84 84 261 385 469> 590 20G<295 385 385 385>
VStem: 261 124<122 162 80.5 162 209 501 501 501> 478 8
LayerCount: 2
Fore
SplineSet
483 209 m 2
 494 209 498 203 498 193 c 0
 498 181 483 162 469 162 c 2
 385 162 l 1
 385 122 l 2
 385 39 423 35 478 32 c 1
 488 26 488 4 478 -2 c 1
 396 -1 364 0 324 0 c 0
 284 0 250 -1 168 -2 c 1
 158 4 158 26 168 32 c 1
 223 35 261 39 261 122 c 2
 261 162 l 1
 84 162 l 2
 60 162 56 164 51 169 c 0
 44 177 22 202 22 210 c 0
 22 213 27 219 29 223 c 0
 111 347 219 519 295 610 c 1
 385 610 l 1
 385 209 l 1
 483 209 l 2
261 501 m 1
 208 429 127 293 77 209 c 1
 261 209 l 1
 261 501 l 1
EndSplineSet
Substitution2: "'pnum' Proportional Numbers lookup 17 subtable" four.fitted
Substitution2: "'onum' Oldstyle Figures lookup 15 subtable" four.oldstyle
Substitution2: "'case' Case-Sensitive Forms lookup 8 subtable" four.cap
Substitution2: "'subs' Subscript lookup 7 subtable" uni2084
Substitution2: "'sups' Superscript lookup 6 subtable" uni2074
Substitution2: "Single Substitution lookup 4 subtable" uni2074
Substitution2: "Single Substitution lookup 3 subtable" uni2084
EndChar

StartChar: five
Encoding: 53 53 22
Width: 514
GlyphClass: 2
Flags: MW
HStem: -10 44<223 260.5 223 305.5> 338 56<253.5 263.5> 508 92<235.5 333>
VStem: 323 136<159 238>
LayerCount: 2
Fore
SplineSet
323 188 m 0
 323 288 287 338 240 338 c 0
 190 338 172 331 99 304 c 1
 86 312 l 1
 126 610 l 1
 183 606 215 600 256 600 c 0
 316 600 353 606 426 613 c 1
 449 600 l 1
 430 514 l 1
 369 510 351 508 315 508 c 0
 273 508 202 510 170 513 c 1
 151 381 l 1
 175 387 238 394 269 394 c 0
 387 394 459 319 459 219 c 0
 459 99 372 -10 239 -10 c 0
 191 -10 131 -2 92 18 c 0
 67 31 52 54 52 71 c 0
 52 93 67 118 103 118 c 0
 140 118 165 99 178 79 c 0
 194 54 213 34 233 34 c 0
 288 34 323 90 323 188 c 0
EndSplineSet
Substitution2: "'pnum' Proportional Numbers lookup 17 subtable" five.fitted
Substitution2: "'onum' Oldstyle Figures lookup 15 subtable" five.oldstyle
Substitution2: "'case' Case-Sensitive Forms lookup 8 subtable" five.cap
Substitution2: "'subs' Subscript lookup 7 subtable" uni2085
Substitution2: "'sups' Superscript lookup 6 subtable" uni2075
Substitution2: "Single Substitution lookup 4 subtable" uni2075
Substitution2: "Single Substitution lookup 3 subtable" uni2085
EndChar

StartChar: six
Encoding: 54 54 23
Width: 514
GlyphClass: 2
Flags: MW
HStem: -10 39<250 293 250 341> 315 50<267 281.5> 569 41
VStem: 44 126<155 247.5 155 294> 343 134<160 216>
LayerCount: 2
Fore
SplineSet
450 569 m 1
 393 566 324 557 265 509 c 0
 218 471 184 402 176 330 c 1
 214 352 248 365 286 365 c 0
 434 365 477 253 477 204 c 0
 477 116 419 -10 263 -10 c 0
 162 -10 44 32 44 246 c 0
 44 342 76 447 152 513 c 0
 228 579 303 606 444 610 c 1
 452 600 453 581 450 569 c 1
171 289 m 1
 170 278 170 253 170 242 c 0
 170 68 225 29 275 29 c 0
 311 29 343 78 343 186 c 0
 343 246 315 315 248 315 c 0
 230 315 209 313 171 289 c 1
EndSplineSet
Substitution2: "'pnum' Proportional Numbers lookup 17 subtable" six.fitted
Substitution2: "'onum' Oldstyle Figures lookup 15 subtable" six.oldstyle
Substitution2: "'case' Case-Sensitive Forms lookup 8 subtable" six.cap
Substitution2: "'subs' Subscript lookup 7 subtable" uni2086
Substitution2: "'sups' Superscript lookup 6 subtable" uni2076
Substitution2: "Single Substitution lookup 4 subtable" uni2076
Substitution2: "Single Substitution lookup 3 subtable" uni2086
EndChar

StartChar: seven
Encoding: 55 55 24
Width: 514
GlyphClass: 2
Flags: MW
HStem: -12 21G<127 127> 498 102<167.5 184 184 379> 591 9<138 479>
VStem: 60 419
LayerCount: 2
Fore
SplineSet
184 498 m 2xd0
 151 498 117 491 95 411 c 1
 83 409 73 410 60 414 c 1
 68 466 79 563 80 611 c 0
 80 614 81 614 84 614 c 0
 102 610 104 600 138 600 c 2xd0
 473 600 l 1
 479 591 l 1xb0
 350 319 296 169 229 -2 c 1
 127 -12 l 1
 121 0 l 1
 199 144 313 362 379 498 c 1
 184 498 l 2xd0
EndSplineSet
Substitution2: "'pnum' Proportional Numbers lookup 17 subtable" seven.fitted
Substitution2: "'onum' Oldstyle Figures lookup 15 subtable" seven.oldstyle
Substitution2: "'case' Case-Sensitive Forms lookup 8 subtable" seven.cap
Substitution2: "'subs' Subscript lookup 7 subtable" uni2087
Substitution2: "'sups' Superscript lookup 6 subtable" uni2077
Substitution2: "Single Substitution lookup 4 subtable" uni2077
Substitution2: "Single Substitution lookup 3 subtable" uni2087
EndChar

StartChar: eight
Encoding: 56 56 25
Width: 514
GlyphClass: 2
Flags: MW
HStem: -10 40<223.5 273.5 223.5 328> 575 35<228 295>
VStem: 34 123<108.5 171.5 108.5 185.5> 65 123<473.5 499> 335 116<457.5 499.5> 356 124<124.5 167>
LayerCount: 2
Fore
SplineSet
451 477 m 0xe8
 451 413 398 364 339 347 c 1
 395 314 l 2
 453 280 480 222 480 163 c 0
 480 86 406 -10 250 -10 c 0
 123 -10 34 43 34 147 c 0xe4
 34 224 87 272 182 319 c 1
 161 330 l 2
 88 368 65 403 65 460 c 0xd8
 65 538 125 610 267 610 c 0
 398 610 451 550 451 477 c 0xe8
252 30 m 0
 295 30 356 47 356 143 c 0
 356 191 349 229 277 267 c 2
 223 296 l 1
 160 252 157 188 157 155 c 0
 157 62 195 30 252 30 c 0
260 575 m 0xd8
 196 575 188 536 188 489 c 0
 188 458 196 423 246 397 c 2
 296 371 l 1
 328 391 335 436 335 479 c 0
 335 520 330 575 260 575 c 0xd8
EndSplineSet
Substitution2: "'pnum' Proportional Numbers lookup 17 subtable" eight.fitted
Substitution2: "'onum' Oldstyle Figures lookup 15 subtable" eight.oldstyle
Substitution2: "'case' Case-Sensitive Forms lookup 8 subtable" eight.cap
Substitution2: "'subs' Subscript lookup 7 subtable" uni2088
Substitution2: "'sups' Superscript lookup 6 subtable" uni2078
Substitution2: "Single Substitution lookup 4 subtable" uni2078
Substitution2: "Single Substitution lookup 3 subtable" uni2088
EndChar

StartChar: nine
Encoding: 57 57 26
Width: 514
GlyphClass: 2
Flags: MW
HStem: -10 41 235 50<239.5 254> 571 39<228 271>
VStem: 44 134<384 440> 351 126<352.5 445>
LayerCount: 2
Fore
SplineSet
71 31 m 1
 128 34 197 43 256 91 c 0
 303 129 336 198 344 270 c 1
 306 248 273 235 235 235 c 0
 87 235 44 347 44 396 c 0
 44 484 102 610 258 610 c 0
 359 610 477 568 477 354 c 0
 477 258 445 153 369 87 c 0
 293 21 218 -6 77 -10 c 1
 69 0 68 19 71 31 c 1
350 311 m 1
 351 322 351 347 351 358 c 0
 351 532 296 571 246 571 c 0
 210 571 178 522 178 414 c 0
 178 354 206 285 273 285 c 0
 291 285 312 287 350 311 c 1
EndSplineSet
Substitution2: "'pnum' Proportional Numbers lookup 17 subtable" nine.fitted
Substitution2: "'onum' Oldstyle Figures lookup 15 subtable" nine.oldstyle
Substitution2: "'case' Case-Sensitive Forms lookup 8 subtable" nine.cap
Substitution2: "'subs' Subscript lookup 7 subtable" uni2089
Substitution2: "'sups' Superscript lookup 6 subtable" uni2079
Substitution2: "Single Substitution lookup 4 subtable" uni2079
Substitution2: "Single Substitution lookup 3 subtable" uni2089
EndChar

StartChar: colon
Encoding: 58 58 27
Width: 256
GlyphClass: 2
Flags: MW
HStem: -8 139<114 152> 290 139<114 152>
VStem: 60 146<43 79.5 341 377.5>
LayerCount: 2
Fore
SplineSet
60 60 m 0
 60 99 94 131 134 131 c 0
 174 131 206 101 206 62 c 0
 206 24 172 -8 132 -8 c 0
 92 -8 60 22 60 60 c 0
60 358 m 0
 60 397 94 429 134 429 c 0
 174 429 206 399 206 360 c 0
 206 322 172 290 132 290 c 0
 92 290 60 320 60 358 c 0
EndSplineSet
EndChar

StartChar: semicolon
Encoding: 59 59 28
Width: 256
GlyphClass: 2
Flags: MW
HStem: 295 139<114 152>
VStem: 60 146<346 382.5> 136 74<-40 45>
LayerCount: 2
Fore
SplineSet
123 127 m 0xa0
 177 127 210 86 210 4 c 0
 210 -31 184 -80 156 -108 c 0
 128 -136 84 -161 47 -167 c 1
 36 -159 35 -149 40 -136 c 1
 85 -124 136 -53 136 -27 c 0
 136 -5 113 3 100 6 c 0
 81 11 60 39 60 64 c 0
 60 87 97 127 123 127 c 0xa0
60 363 m 0xc0
 60 402 94 434 134 434 c 0
 174 434 206 404 206 365 c 0
 206 327 172 295 132 295 c 0
 92 295 60 325 60 363 c 0xc0
EndSplineSet
EndChar

StartChar: less
Encoding: 60 60 29
Width: 512
GlyphClass: 2
Flags: MW
HStem: 62 356<471 471>
VStem: 42 429<62 262 62 262>
LayerCount: 2
Fore
SplineSet
153 240 m 1
 471 124 l 1
 471 62 l 1
 42 218 l 1
 42 262 l 1
 471 418 l 1
 471 356 l 1
 153 240 l 1
EndSplineSet
EndChar

StartChar: equal
Encoding: 61 61 30
Width: 551
GlyphClass: 2
Flags: MW
HStem: 142 56<59 493 59 493> 266 57<59 493 59 493>
VStem: 59 434<142 198 142 198 266 323 142 323>
LayerCount: 2
Fore
SplineSet
493 323 m 1
 493 266 l 1
 59 266 l 1
 59 323 l 1
 493 323 l 1
493 198 m 1
 493 142 l 1
 59 142 l 1
 59 198 l 1
 493 198 l 1
EndSplineSet
Substitution2: "'subs' Subscript lookup 7 subtable" uni208C
Substitution2: "'sups' Superscript lookup 6 subtable" uni207C
Substitution2: "Single Substitution lookup 4 subtable" uni207C
Substitution2: "Single Substitution lookup 3 subtable" uni208C
EndChar

StartChar: greater
Encoding: 62 62 31
Width: 512
GlyphClass: 2
Flags: MW
HStem: 60 356<42 42>
VStem: 42 429<60 259 122 259 215 416 215 416>
LayerCount: 2
Fore
SplineSet
359 238 m 1
 42 354 l 1
 42 416 l 1
 471 259 l 1
 471 215 l 1
 42 60 l 1
 42 122 l 1
 359 238 l 1
EndSplineSet
EndChar

StartChar: question
Encoding: 63 63 32
Width: 430
GlyphClass: 2
Flags: MW
HStem: -10 139<175 213> 622 36<185.5 234>
VStem: 26 110<514 529.5 503.5 550.5> 121 146<41 77.5> 160 65<216 229 203.5 231 203.5 251.5> 286 115<487 541>
LayerCount: 2
Fore
SplineSet
127 570 m 0xe4
 127 549 136 543 136 516 c 0
 136 491 113 475 83 475 c 0
 59 475 26 495 26 533 c 0
 26 568 45 591 79 619 c 0xe0
 109 644 155 658 216 658 c 0
 330 658 401 597 401 505 c 0
 401 431 338 385 288 348 c 0
 260 328 225 301 225 229 c 2
 225 216 l 2
 225 191 221 182 192 182 c 0
 166 182 160 194 160 216 c 2
 160 231 l 2xcc
 160 272 160 329 231 394 c 0
 266 425 286 462 286 512 c 0
 286 570 262 622 206 622 c 0
 162 622 127 598 127 570 c 0xe4
121 58 m 0xd0
 121 97 155 129 195 129 c 0
 235 129 267 99 267 60 c 0
 267 22 233 -10 193 -10 c 0
 153 -10 121 20 121 58 c 0xd0
EndSplineSet
EndChar

StartChar: at
Encoding: 64 64 33
Width: 988
GlyphClass: 2
Flags: MW
HStem: -160 39<399 559.5 399 563.5> 24 42<652.5 676.5 652.5 705> 26 46<411 485> 381 34<550 569.5> 584 37<426.5 562.5>
VStem: 92 94<154 324.5> 297 117<140.5 195.5 140.5 222> 805 85<217 381.5 217 383.5>
LayerCount: 2
Fore
SplineSet
640 80 m 0xdf
 640 67 647 66 658 66 c 0
 695 66 805 129 805 273 c 0
 805 494 621 584 504 584 c 0
 349 584 186 459 186 228 c 0
 186 80 277 -121 521 -121 c 0
 598 -121 669 -97 731 -46 c 1
 752 -75 l 1
 688 -124 625 -160 502 -160 c 0
 265 -160 92 -7 92 221 c 0
 92 428 260 621 513 621 c 0
 739 621 890 476 890 287 c 0
 890 147 772 24 638 24 c 0
 606 24 573 27 560 39 c 0xdf
 545 53 540 67 540 86 c 1
 507 44 458 26 434 26 c 0
 388 26 358 35 336 54 c 0xbf
 307 79 297 122 297 158 c 0
 297 286 439 415 554 415 c 0
 602 415 631 398 648 377 c 1
 685 410 l 1
 712 399 l 1
 653 146 l 2
 647 120 640 91 640 80 c 0xdf
586 320 m 0
 586 355 582 381 557 381 c 0
 543 381 511 381 476 343 c 0
 431 295 414 227 414 164 c 0
 414 117 423 72 470 72 c 0xbf
 500 72 530 107 557 193 c 0
 567 226 586 296 586 320 c 0
EndSplineSet
EndChar

StartChar: A
Encoding: 65 65 34
Width: 740
GlyphClass: 2
Flags: MW
HStem: -2 34<7 7 234 234 425 425 730 730> -2 34.5 235 48<241 425 273 425 273 443> 638 20G<434 434>
VStem: 3 159 3 732
AnchorPoint: "Anchor-5" 116 5 basechar 0
AnchorPoint: "Anchor-2" 308 -110 basechar 0
AnchorPoint: "Anchor-0" 354 850 basechar 0
LayerCount: 2
Fore
SplineSet
165 79 m 2xb8
 149 38 196 35 234 32 c 1
 240 26 240 4 234 -2 c 1
 197 -1 142 0 101 0 c 0
 62 0 44 -1 7 -2 c 1
 1 4 1 26 7 32 c 1
 51 35 81 40 107 102 c 2
 324 614 l 1
 359 614 419 649 434 658 c 1
 640 86 l 2
 658 35 691 36 730 32 c 1
 736 26 736 4 730 -2 c 1
 693 -1 637 0 596 0 c 0
 557 0 462 -1 425 -2 c 1xb8
 419 4 419 26 425 32 c 1
 431 32 438 33 444 33 c 0
 482 35 511 36 499 72 c 2x74
 443 235 l 1
 253 235 l 2
 229 235 223 231 218 218 c 2
 165 79 l 2xb8
273 283 m 2
 425 283 l 1
 343 520 l 1
 336 520 l 1
 248 296 l 2
 244 286 251 283 273 283 c 2
EndSplineSet
MultipleSubs2: "'c2sc' Capitals to Small Capitals lookup 12 subtable" a.sc
Position2: "'cpsp' Capital Spacing lookup 3 per glyph data 0" dx=2 dy=0 dh=5 dv=0
EndChar

StartChar: B
Encoding: 66 66 35
Width: 654
GlyphClass: 2
Flags: MW
HStem: -2 42<307 374 278 439.5> 334 42<242 298 242 298 298 313> 605 42<290 335>
VStem: 102 140<122 334 376 523 523 562> 414 140<465.5 525.5 465.5 538> 461 147<157 230>
AnchorPoint: "Anchor-6" 146 185 basechar 0
AnchorPoint: "Anchor-5" 250 0 basechar 0
AnchorPoint: "Anchor-3" 509 732 basechar 0
AnchorPoint: "Anchor-2" 268 -110 basechar 0
AnchorPoint: "Anchor-0" 267 850 basechar 0
LayerCount: 2
Fore
SplineSet
173 645 m 0xf8
 205 645 265 647 315 647 c 0
 517 647 554 560 554 491 c 0xf8
 554 440 512 385 458 361 c 1
 458 359 l 1
 564 331 608 274 608 186 c 0xf4
 608 84 542 -2 337 -2 c 0
 277 -2 213 0 173 0 c 0
 133 0 19 -2 19 -2 c 1
 9 4 9 26 19 32 c 1
 74 35 102 39 102 122 c 2
 102 523 l 2
 102 606 74 610 19 613 c 1
 9 619 9 641 19 647 c 1
 19 647 133 645 173 645 c 0xf8
242 334 m 1
 242 84 l 2
 242 55 248 40 308 40 c 0
 440 40 461 127 461 187 c 0xf4
 461 273 416 334 313 334 c 2
 242 334 l 1
242 562 m 2
 242 376 l 1
 298 376 l 2
 369 376 414 409 414 489 c 0xf8
 414 587 358 605 312 605 c 0
 247 605 242 591 242 562 c 2
EndSplineSet
MultipleSubs2: "'c2sc' Capitals to Small Capitals lookup 12 subtable" b.sc
Position2: "'cpsp' Capital Spacing lookup 3 per glyph data 0" dx=2 dy=0 dh=5 dv=0
EndChar

StartChar: C
Encoding: 67 67 36
Width: 706
GlyphClass: 2
Flags: MW
HStem: -10 52<348.5 431 338 445.5> 617 41<327.5 456>
VStem: 37 151<268 411.5 256 425>
AnchorPoint: "Anchor-6" 346 315 basechar 0
AnchorPoint: "Anchor-5" 356 -7 basechar 0
AnchorPoint: "Anchor-3" 609 732 basechar 0
AnchorPoint: "Anchor-2" 363 -110 basechar 0
AnchorPoint: "Anchor-0" 340 850 basechar 0
LayerCount: 2
Fore
SplineSet
397 -10 m 0
 300 -10 222 7 158 53 c 0
 78 111 37 221 37 315 c 0
 37 535 202 658 398 658 c 0
 521 658 566 618 617 613 c 1
 626 558 634 510 639 458 c 1
 628 452 608 449 596 453 c 1
 570 539 525 617 387 617 c 0
 268 617 188 489 188 334 c 0
 188 178 280 42 396 42 c 0
 466 42 547 68 618 146 c 1
 629 146 646 134 651 125 c 1
 583 36 494 -10 397 -10 c 0
EndSplineSet
MultipleSubs2: "'c2sc' Capitals to Small Capitals lookup 12 subtable" c.sc
Position2: "'cpsp' Capital Spacing lookup 3 per glyph data 0" dx=2 dy=0 dh=5 dv=0
EndChar

StartChar: D
Encoding: 68 68 37
Width: 734
GlyphClass: 2
Flags: MW
HStem: -2 42<327 388 315 391> 604 42<298 414.5>
VStem: 114 140<122 523 523 529> 535 151<258 359.5>
AnchorPoint: "Anchor-6" 346 315 basechar 0
AnchorPoint: "Anchor-5" 279 4 basechar 0
AnchorPoint: "Anchor-3" 619 732 basechar 0
AnchorPoint: "Anchor-2" 279 -110 basechar 0
AnchorPoint: "Anchor-0" 306 850 basechar 0
LayerCount: 2
Fore
SplineSet
185 0 m 0
 145 0 31 -2 31 -2 c 1
 21 4 21 26 31 32 c 1
 86 35 114 39 114 122 c 2
 114 523 l 2
 114 606 86 610 31 613 c 1
 21 619 21 641 31 647 c 1
 31 647 145 645 185 645 c 0
 225 645 267 646 320 646 c 0
 566 646 686 494 686 309 c 0
 686 207 653 124 605 82 c 0
 534 20 435 -2 347 -2 c 0
 307 -2 225 0 185 0 c 0
254 119 m 2
 254 52 280 40 350 40 c 0
 426 40 535 102 535 284 c 0
 535 435 513 604 316 604 c 0
 280 604 254 584 254 529 c 2
 254 119 l 2
EndSplineSet
MultipleSubs2: "'c2sc' Capitals to Small Capitals lookup 12 subtable" d.sc
Position2: "'cpsp' Capital Spacing lookup 3 per glyph data 0" dx=2 dy=0 dh=5 dv=0
EndChar

StartChar: E
Encoding: 69 69 38
Width: 609
GlyphClass: 2
Flags: MW
HStem: 0 42<283 384 384 405> 319 46<242 323 242 323> 413 20G 603 42<271 283 283 368> 629 20G<513 514.5>
VStem: 102 140<122 319 365 522 522 554>
AnchorPoint: "Anchor-5" 284 4 basechar 0
AnchorPoint: "Anchor-3" 524 732 basechar 0
AnchorPoint: "Anchor-2" 284 -110 basechar 0
AnchorPoint: "Anchor-0" 278 850 basechar 0
LayerCount: 2
Fore
SplineSet
323 365 m 2xf4
 390 365 411 374 414 429 c 1
 420 435 451 435 457 429 c 1
 456 399 455 377 455 343 c 0
 455 309 456 290 457 255 c 1
 451 249 420 249 414 255 c 1
 411 300 392 319 323 319 c 2
 242 319 l 1
 242 90 l 2
 242 63 261 42 283 42 c 2
 384 42 l 2
 460 42 505 98 525 170 c 1
 538 173 560 171 570 165 c 1
 562 114 557 48 543 -2 c 1
 543 -2 453 0 405 0 c 2
 170 0 l 1
 170 0 64 -1 15 -2 c 1
 9 4 9 26 15 32 c 1
 85 35 102 39 102 122 c 2
 102 522 l 2
 102 605 85 610 15 613 c 1
 9 619 9 641 15 647 c 1
 65 646 169 645 169 645 c 1
 464 645 l 2xf4
 488 645 496 646 513 649 c 0
 516 649 517 648 517 646 c 0xec
 519 638 524 542 529 501 c 1
 519 496 498 494 486 496 c 1
 464 565 443 603 368 603 c 2
 283 603 l 2
 259 603 242 578 242 554 c 2
 242 365 l 1
 323 365 l 2xf4
EndSplineSet
MultipleSubs2: "'c2sc' Capitals to Small Capitals lookup 12 subtable" e.sc
Position2: "'cpsp' Capital Spacing lookup 3 per glyph data 0" dx=2 dy=0 dh=5 dv=0
EndChar

StartChar: F
Encoding: 70 70 39
Width: 545
GlyphClass: 2
Flags: MW
HStem: -2 34<19 19 335 335> 299 46<242 323 242 323> 603 42<271 283 283 373> 629 20G<515 516.5>
VStem: 102 140<122 299 345 522 522 554> 335 8
AnchorPoint: "Anchor-5" 150 -1 basechar 0
AnchorPoint: "Anchor-3" 504 732 basechar 0
AnchorPoint: "Anchor-2" 206 -110 basechar 0
AnchorPoint: "Anchor-0" 281 850 basechar 0
LayerCount: 2
Fore
SplineSet
242 122 m 2xec
 242 39 280 35 335 32 c 1
 345 26 345 4 335 -2 c 1
 295 -1 213 0 173 0 c 0
 133 0 59 -1 19 -2 c 1
 9 4 9 26 19 32 c 1
 74 35 102 39 102 122 c 2
 102 522 l 2
 102 605 85 610 15 613 c 1
 9 619 9 641 15 647 c 1
 65 646 169 645 169 645 c 1
 466 645 l 2xec
 490 645 498 646 515 649 c 0
 518 649 519 648 519 646 c 0xdc
 520 638 528 540 531 496 c 1
 521 491 508 489 496 491 c 1
 474 560 448 603 373 603 c 2
 283 603 l 2
 259 603 242 578 242 554 c 2
 242 345 l 1
 323 345 l 2
 390 345 411 354 414 409 c 1
 420 415 451 415 457 409 c 1
 456 380 455 346 455 323 c 0
 455 300 455 270 457 235 c 1
 451 229 420 229 414 235 c 1
 411 280 392 299 323 299 c 2
 242 299 l 1
 242 122 l 2xec
EndSplineSet
MultipleSubs2: "'c2sc' Capitals to Small Capitals lookup 12 subtable" f.sc
Position2: "'cpsp' Capital Spacing lookup 3 per glyph data 0" dx=2 dy=0 dh=5 dv=0
EndChar

StartChar: G
Encoding: 71 71 40
Width: 732
GlyphClass: 2
Flags: MW
HStem: -10 42<332.5 432.5 322.5 441> 271 37<436 436 697 697> 453 170 616 42<354.5 446>
VStem: 33 151<262 361> 514 140<100.5 106 106 223 100.5 243>
AnchorPoint: "Anchor-6" 308 335 basechar 0
AnchorPoint: "Anchor-5" 367 2 basechar 0
AnchorPoint: "Anchor-3" 631 732 basechar 0
AnchorPoint: "Anchor-2" 367 -110 basechar 0
AnchorPoint: "Anchor-1" 620 606 basechar 0
AnchorPoint: "Anchor-0" 365 850 basechar 0
LayerCount: 2
Fore
SplineSet
395 658 m 0xdc
 520 658 573 623 625 623 c 1
 632 551 637 501 646 459 c 1xec
 634 453 618 451 602 453 c 1
 577 539 511 616 381 616 c 0
 328 616 273 595 234 542 c 0
 197 491 184 413 184 327 c 0
 184 195 238 32 407 32 c 0
 458 32 482 42 514 74 c 1
 514 223 l 2
 514 263 488 267 436 271 c 1
 430 277 430 302 436 308 c 1
 481 307 547 306 584 306 c 0
 622 306 669 307 697 308 c 1
 703 302 703 277 697 271 c 1
 669 268 654 258 654 223 c 2
 654 106 l 2
 654 95 659 87 669 78 c 1
 605 24 497 -10 385 -10 c 0
 280 -10 201 12 138 66 c 0
 69 124 33 217 33 307 c 0
 33 415 72 505 139 565 c 0
 208 627 297 658 395 658 c 0xdc
EndSplineSet
MultipleSubs2: "'c2sc' Capitals to Small Capitals lookup 12 subtable" g.sc
Position2: "'cpsp' Capital Spacing lookup 3 per glyph data 0" dx=2 dy=0 dh=5 dv=0
EndChar

StartChar: H
Encoding: 72 72 41
Width: 817
GlyphClass: 2
Flags: MW
HStem: -2 21G 319 48<254 564 254 564> 627 20G
VStem: 24 7 114 140<122 319 367 523> 337 8 474 7 564 140<122 319 319 319 367 523> 787 8
AnchorPoint: "Anchor-6" 356 485 basechar 0
AnchorPoint: "Anchor-5" 150 0 basechar 0
AnchorPoint: "Anchor-3" 729 732 basechar 0
AnchorPoint: "Anchor-2" 409 -110 basechar 0
AnchorPoint: "Anchor-0" 361 850 basechar 0
LayerCount: 2
Fore
SplineSet
564 523 m 2
 564 606 536 610 481 613 c 1
 471 619 471 641 481 647 c 1
 521 646 595 645 635 645 c 0
 675 645 747 646 787 647 c 1
 797 641 797 619 787 613 c 1
 732 610 704 606 704 523 c 2
 704 122 l 2
 704 39 732 35 787 32 c 1
 797 26 797 4 787 -2 c 1
 747 -1 675 0 635 0 c 0
 595 0 521 -1 481 -2 c 1
 471 4 471 26 481 32 c 1
 536 35 564 39 564 122 c 2
 564 319 l 1
 254 319 l 1
 254 122 l 2
 254 39 282 35 337 32 c 1
 347 26 347 4 337 -2 c 1
 297 -1 225 0 185 0 c 0
 145 0 71 -1 31 -2 c 1
 21 4 21 26 31 32 c 1
 86 35 114 39 114 122 c 2
 114 523 l 2
 114 606 86 610 31 613 c 1
 21 619 21 641 31 647 c 1
 71 646 145 645 185 645 c 0
 225 645 297 646 337 647 c 1
 347 641 347 619 337 613 c 1
 282 610 254 606 254 523 c 2
 254 367 l 1
 564 367 l 1
 564 523 l 2
EndSplineSet
MultipleSubs2: "'c2sc' Capitals to Small Capitals lookup 12 subtable" h.sc
Position2: "'cpsp' Capital Spacing lookup 3 per glyph data 0" dx=2 dy=0 dh=5 dv=0
EndChar

StartChar: I
Encoding: 73 73 42
Width: 367
GlyphClass: 2
Flags: MW
HStem: -2 21G 627 20G
VStem: 24 7 114 140<122 523> 337 8
AnchorPoint: "Anchor-6" 148 325 basechar 0
AnchorPoint: "Anchor-5" 147 1 basechar 0
AnchorPoint: "Anchor-2" 147 -110 basechar 0
AnchorPoint: "Anchor-0" 150 850 basechar 0
LayerCount: 2
Fore
SplineSet
114 523 m 2
 114 606 86 610 31 613 c 1
 21 619 21 641 31 647 c 1
 71 646 145 645 185 645 c 0
 225 645 297 646 337 647 c 1
 347 641 347 619 337 613 c 1
 282 610 254 606 254 523 c 2
 254 122 l 2
 254 39 282 35 337 32 c 1
 347 26 347 4 337 -2 c 1
 297 -1 225 0 185 0 c 0
 145 0 71 -1 31 -2 c 1
 21 4 21 26 31 32 c 1
 86 35 114 39 114 122 c 2
 114 523 l 2
EndSplineSet
MultipleSubs2: "'c2sc' Capitals to Small Capitals lookup 12 subtable" i.sc
Position2: "'cpsp' Capital Spacing lookup 3 per glyph data 1" dx=2 dy=0 dh=6 dv=0
EndChar

StartChar: J
Encoding: 74 74 43
Width: 373
GlyphClass: 2
Flags: MW
HStem: -187 59<13.5 113.5> 613 34<44 44 358 358>
VStem: 141 140<81 103 103 522>
AnchorPoint: "Anchor-6" 186 315 basechar 0
AnchorPoint: "Anchor-0" 182 850 basechar 0
LayerCount: 2
Fore
SplineSet
281 522 m 2
 281 103 l 2
 281 -40 223 -92 179 -129 c 0
 138 -164 87 -187 28 -187 c 0
 -1 -187 -70 -163 -70 -116 c 0
 -70 -87 -30 -60 -12 -60 c 0
 28 -60 33 -88 46 -105 c 0
 56 -118 74 -128 92 -128 c 0
 135 -128 141 -99 141 81 c 2
 141 522 l 2
 141 605 124 610 44 613 c 1
 38 619 38 641 44 647 c 1
 94 646 145 645 210 645 c 0
 268 645 309 646 358 647 c 1
 364 641 364 619 358 613 c 1
 298 610 281 605 281 522 c 2
EndSplineSet
Substitution2: "'ss02' Style Set 2 lookup 40 subtable" J.alt
Substitution2: "'salt' Stylistic Alternatives lookup 19 subtable" J.alt
MultipleSubs2: "'c2sc' Capitals to Small Capitals lookup 12 subtable" j.sc
Position2: "'cpsp' Capital Spacing lookup 3 per glyph data 0" dx=2 dy=0 dh=5 dv=0
EndChar

StartChar: K
Encoding: 75 75 44
Width: 736
GlyphClass: 2
Flags: MW
HStem: -2 34<25 25 331 331 726 726> 613 34<25 25 331 331 476 476 694 694>
VStem: 18 7 108 140<122 318 342 523> 331 8 519 180
AnchorPoint: "Anchor-5" 142 -1 basechar 0
AnchorPoint: "Anchor-3" 643 732 basechar 0
AnchorPoint: "Anchor-2" 336 -110 basechar 0
AnchorPoint: "Anchor-0" 330 850 basechar 0
LayerCount: 2
Fore
SplineSet
108 523 m 2
 108 606 80 610 25 613 c 1
 15 619 15 641 25 647 c 1
 65 646 139 645 179 645 c 0
 219 645 291 646 331 647 c 1
 341 641 341 619 331 613 c 1
 276 610 248 606 248 523 c 2
 248 342 l 1
 281 353 309 372 374 430 c 2
 374 430 450 493 481 525 c 0
 531 576 535 607 476 613 c 1
 470 619 470 641 476 647 c 1
 514 646 559 645 599 645 c 0
 634 645 669 646 694 647 c 1
 700 641 700 619 694 613 c 1
 635 605 579 556 520 504 c 2
 411 407 l 2
 400 397 399 385 399 378 c 0
 399 370 412 353 429 333 c 2
 648 74 l 2
 674 44 696 36 726 32 c 1
 732 26 732 4 726 -2 c 1
 687 -1 647 0 608 0 c 0
 578 0 525 -1 505 -2 c 0
 501 -2 500 1 500 4 c 0
 498 20 484 48 464 74 c 2
 313 271 l 2
 293 297 278 311 248 318 c 1
 248 122 l 2
 248 39 276 35 331 32 c 1
 341 26 341 4 331 -2 c 1
 291 -1 219 0 179 0 c 0
 139 0 65 -1 25 -2 c 1
 15 4 15 26 25 32 c 1
 80 35 108 39 108 122 c 2
 108 523 l 2
EndSplineSet
Substitution2: "'ss02' Style Set 2 lookup 40 subtable" K.alt
Substitution2: "'salt' Stylistic Alternatives lookup 19 subtable" K.alt
MultipleSubs2: "'c2sc' Capitals to Small Capitals lookup 12 subtable" k.sc
Position2: "'cpsp' Capital Spacing lookup 3 per glyph data 0" dx=2 dy=0 dh=5 dv=0
EndChar

StartChar: L
Encoding: 76 76 45
Width: 577
GlyphClass: 2
Flags: MW
HStem: 0 42<289 349 349 401.5> 627 20G<31 31>
VStem: 114 140<122 523> 337 8
AnchorPoint: "Anchor-6" 286 315 basechar 0
AnchorPoint: "Anchor-5" 260 1 basechar 0
AnchorPoint: "Anchor-3" 469 732 basechar 0
AnchorPoint: "Anchor-2" 260 -110 basechar 0
AnchorPoint: "Anchor-0" 149 850 basechar 0
LayerCount: 2
Fore
SplineSet
349 42 m 2
 454 42 491 98 511 170 c 1
 523 172 544 170 554 165 c 1
 548 113 538 48 528 -2 c 1
 528 -2 437 0 408 0 c 2
 185 0 l 2
 146 0 31 -2 31 -2 c 1
 21 4 21 26 31 32 c 1
 86 35 114 39 114 122 c 2
 114 523 l 2
 114 606 86 610 31 613 c 1
 21 619 21 641 31 647 c 1
 31 647 145 645 185 645 c 0
 225 645 255 646 337 647 c 1
 347 641 347 619 337 613 c 1
 282 610 254 606 254 523 c 2
 254 121 l 2
 254 61 268 42 289 42 c 2
 349 42 l 2
EndSplineSet
MultipleSubs2: "'c2sc' Capitals to Small Capitals lookup 12 subtable" l.sc
Position2: "'cpsp' Capital Spacing lookup 3 per glyph data 0" dx=2 dy=0 dh=5 dv=0
EndChar

StartChar: M
Encoding: 77 77 46
Width: 899
GlyphClass: 2
Flags: MW
HStem: -8 21G<388 394> -2 21G 498 149<57 174 57 170> 534 113 627 20G<57 57 837 837>
VStem: 6 138
AnchorPoint: "Anchor-6" 426 445 basechar 0
AnchorPoint: "Anchor-5" 107 2 basechar 0
AnchorPoint: "Anchor-2" 393 -110 basechar 0
AnchorPoint: "Anchor-0" 431 850 basechar 0
LayerCount: 2
Fore
SplineSet
663 116 m 2x4c
 637 534 l 1
 635 534 l 1x54
 410 5 l 2
 406 -4 397 -8 391 -8 c 0
 385 -8 374 -2 371 5 c 2
 174 498 l 1
 170 498 l 1xa4
 144 123 l 2
 139 67 144 37 210 32 c 1
 216 26 216 4 210 -2 c 1
 180 -1 120 0 96 0 c 0
 72 0 40 -1 10 -2 c 1
 4 4 4 26 10 32 c 1
 67 37 79 61 85 121 c 2
 125 533 l 2
 132 608 126 609 57 613 c 1
 51 619 51 641 57 647 c 1
 262 645 l 1
 441 201 l 1
 446 201 l 1
 636 645 l 1
 837 647 l 1
 843 641 843 619 837 613 c 1
 769 609 764 596 768 542 c 2
 798 121 l 2
 804 38 807 35 875 32 c 1
 881 26 881 4 875 -2 c 1
 842 -1 796 0 766 0 c 0
 736 0 646 -1 599 -2 c 1
 593 4 593 26 599 32 c 1
 599 32 l 1
 664 35 668 35 663 116 c 2x4c
EndSplineSet
MultipleSubs2: "'c2sc' Capitals to Small Capitals lookup 12 subtable" m.sc
Position2: "'cpsp' Capital Spacing lookup 3 per glyph data 0" dx=2 dy=0 dh=5 dv=0
EndChar

StartChar: N
Encoding: 78 78 47
Width: 740
GlyphClass: 2
Flags: MW
HStem: -12 21G<568 585.5> -2 21G 0 21G<114 158 631 631> 613 34<32 32 489 489 713 713>
VStem: 111 50<133 430> 576 50<231 512>
AnchorPoint: "Anchor-6" 356 320 basechar 0
AnchorPoint: "Anchor-5" 125 -4 basechar 0
AnchorPoint: "Anchor-2" 348 -110 basechar 0
AnchorPoint: "Anchor-0" 346 850 basechar 0
LayerCount: 2
Fore
SplineSet
631 0 m 1x9c
 613 -9 603 -12 568 -12 c 1
 568 -12 548 7 528 32 c 2x9c
 193 430 l 2
 182 443 174 450 169 450 c 0
 163 450 161 440 161 430 c 2
 161 133 l 2
 161 42 178 39 248 32 c 1
 254 26 254 4 248 -2 c 1
 198 -1 180 0 136 0 c 0
 92 0 73 -1 24 -2 c 1
 18 4 18 26 24 32 c 1x5c
 94 39 111 44 111 133 c 2
 111 550 l 1
 105 576 75 610 32 613 c 1
 26 619 26 641 32 647 c 1
 195 645 l 1
 284 540 l 1
 549 228 l 2
 563 211 576 206 576 231 c 2
 576 512 l 2
 576 603 559 606 489 613 c 1
 483 619 483 641 489 647 c 1
 539 646 560 645 605 645 c 0
 647 645 664 646 713 647 c 1
 719 641 719 619 713 613 c 1
 643 606 626 601 626 512 c 2
 626 102 l 2x3c
 626 71 631 0 631 0 c 1x9c
EndSplineSet
MultipleSubs2: "'c2sc' Capitals to Small Capitals lookup 12 subtable" n.sc
Position2: "'cpsp' Capital Spacing lookup 3 per glyph data 0" dx=2 dy=0 dh=5 dv=0
EndChar

StartChar: O
Encoding: 79 79 48
Width: 730
GlyphClass: 2
Flags: MW
HStem: -10 42<329 415.5> 616 42<313 404.5>
VStem: 37 151<235 355> 543 151<280 409.5>
AnchorPoint: "Anchor-6" 346 322 basechar 0
AnchorPoint: "Anchor-5" 350 0 basechar 0
AnchorPoint: "Anchor-2" 350 -110 basechar 0
AnchorPoint: "Anchor-1" 620 606 basechar 0
AnchorPoint: "Anchor-0" 335 850 basechar 0
LayerCount: 2
Fore
SplineSet
694 329 m 0
 694 231 663 149 608 89 c 0
 551 27 467 -10 364 -10 c 0
 194 -10 37 111 37 309 c 0
 37 401 66 484 118 546 c 0
 176 615 263 658 363 658 c 0
 546 658 694 528 694 329 c 0
351 616 m 0
 262 616 188 533 188 329 c 0
 188 141 274 32 384 32 c 0
 485 32 543 142 543 308 c 0
 543 511 458 616 351 616 c 0
EndSplineSet
MultipleSubs2: "'c2sc' Capitals to Small Capitals lookup 12 subtable" o.sc
Position2: "'cpsp' Capital Spacing lookup 3 per glyph data 0" dx=2 dy=0 dh=5 dv=0
EndChar

StartChar: P
Encoding: 80 80 49
Width: 614
GlyphClass: 2
Flags: MW
HStem: -2 21G 277 42<321 369 320.5 377> 613 41<326 343>
VStem: 114 140<122 523 523 524> 337 8 439 151<457.5 504 457.5 528>
AnchorPoint: "Anchor-6" 286 464 basechar 0
AnchorPoint: "Anchor-5" 150 -3 basechar 0
AnchorPoint: "Anchor-3" 509 732 basechar 0
AnchorPoint: "Anchor-2" 240 -110 basechar 0
AnchorPoint: "Anchor-0" 277 850 basechar 0
LayerCount: 2
Fore
SplineSet
346 654 m 0
 421 654 476 643 513 621 c 0
 575 584 590 524 590 484 c 0
 590 431 573 366 523 325 c 0
 483 292 421 277 333 277 c 0
 309 277 312 278 298 280 c 1
 284 289 278 303 278 322 c 1
 292 320 313 319 328 319 c 0
 410 319 439 363 439 467 c 0
 439 589 372 613 314 613 c 0
 261 613 254 592 254 524 c 2
 254 122 l 2
 254 39 282 35 337 32 c 1
 347 26 347 4 337 -2 c 1
 297 -1 225 0 185 0 c 0
 145 0 71 -1 31 -2 c 1
 21 4 21 26 31 32 c 1
 86 35 114 39 114 122 c 2
 114 523 l 2
 114 606 86 610 31 613 c 1
 21 619 21 641 31 647 c 1
 71 647 306 654 346 654 c 0
EndSplineSet
MultipleSubs2: "'c2sc' Capitals to Small Capitals lookup 12 subtable" p.sc
Position2: "'cpsp' Capital Spacing lookup 3 per glyph data 0" dx=2 dy=0 dh=5 dv=0
EndChar

StartChar: Q
Encoding: 81 81 50
Width: 730
GlyphClass: 2
Flags: MW
HStem: -229 77 -124 64 -8 40 616 42<313 404.5>
VStem: 37 151<235 355> 543 151<280 409.5>
AnchorPoint: "Anchor-6" 336 324 basechar 0
AnchorPoint: "Anchor-3" 619 732 basechar 0
AnchorPoint: "Anchor-1" 620 606 basechar 0
AnchorPoint: "Anchor-0" 348 850 basechar 0
LayerCount: 2
Fore
SplineSet
694 329 m 0
 694 231 663 149 608 89 c 0
 565 42 506 9 435 -4 c 0
 408 -11 396 -8 353 -9 c 1
 358 -9 l 2
 468 -9 539 -101 627 -101 c 0
 656 -101 692 -91 714 -64 c 1
 731 -86 l 1
 692 -142 650 -178 587 -178 c 0
 457 -178 394 -73 301 -73 c 0
 293 -73 279 -77 264 -87 c 1
 252 -101 239 -116 228 -132 c 1
 189 -102 l 1
 194 -94 200 -86 206 -79 c 0
 242 -36 267 -40 328 -8 c 1
 172 8 37 125 37 309 c 0
 37 401 66 484 118 546 c 0
 176 615 263 658 363 658 c 0
 546 658 694 528 694 329 c 0
351 616 m 0
 262 616 188 533 188 329 c 0
 188 141 274 32 384 32 c 0
 485 32 543 142 543 308 c 0
 543 511 458 616 351 616 c 0
EndSplineSet
MultipleSubs2: "'c2sc' Capitals to Small Capitals lookup 12 subtable" q.sc
Position2: "'cpsp' Capital Spacing lookup 3 per glyph data 0" dx=2 dy=0 dh=5 dv=0
EndChar

StartChar: R
Encoding: 82 82 51
Width: 716
GlyphClass: 2
Flags: MW
HStem: -10 42 -2 21G 283 42<254 293.5> 613 41<342 359>
VStem: 114 140<122 283 325 523 523 524> 337 8 455 151<433 504 433 528>
AnchorPoint: "Anchor-5" 178 -1 basechar 0
AnchorPoint: "Anchor-3" 559 732 basechar 0
AnchorPoint: "Anchor-2" 308 -110 basechar 0
AnchorPoint: "Anchor-0" 319 850 basechar 0
LayerCount: 2
Fore
SplineSet
362 654 m 0xbe
 437 654 492 643 529 621 c 0
 591 584 606 524 606 484 c 0
 606 382 528 330 474 308 c 1
 610 98 l 2
 638 56 661 32 706 32 c 1
 710 24 711 5 707 -2 c 1
 697 -7 645 -10 605 -10 c 0
 545 -10 504 34 473 79 c 2xbe
 356 253 l 2
 342 276 333 283 254 283 c 1
 254 122 l 2
 254 39 282 35 337 32 c 1
 347 26 347 4 337 -2 c 1
 297 -1 225 0 185 0 c 0
 145 0 71 -1 31 -2 c 1
 21 4 21 26 31 32 c 1x7e
 86 35 114 39 114 122 c 2
 114 523 l 2
 114 606 86 610 31 613 c 1
 21 619 21 641 31 647 c 1
 71 647 322 654 362 654 c 0xbe
455 467 m 0
 455 589 388 613 330 613 c 0
 277 613 254 592 254 524 c 2
 254 325 l 1
 297 325 l 2
 381 325 455 344 455 467 c 0
EndSplineSet
Substitution2: "'ss02' Style Set 2 lookup 40 subtable" R.alt
Substitution2: "'salt' Stylistic Alternatives lookup 19 subtable" R.alt
MultipleSubs2: "'c2sc' Capitals to Small Capitals lookup 12 subtable" r.sc
Position2: "'cpsp' Capital Spacing lookup 3 per glyph data 0" dx=2 dy=0 dh=5 dv=0
EndChar

StartChar: S
Encoding: 83 83 52
Width: 504
GlyphClass: 2
Flags: MW
HStem: -10 42<199.5 263.5 199.5 274.5> 10 171 617 41<229.5 293.5>
VStem: 41 125<498.5 509.5> 337 126<90.5 210>
AnchorPoint: "Anchor-6" 236 345 basechar 0
AnchorPoint: "Anchor-5" 224 2 basechar 0
AnchorPoint: "Anchor-3" 481 732 basechar 0
AnchorPoint: "Anchor-2" 234 -110 basechar 0
AnchorPoint: "Anchor-0" 232 850 basechar 0
LayerCount: 2
Fore
SplineSet
421 631 m 1xb8
 428 573 432 532 432 479 c 1
 421 470 396 470 382 474 c 1
 364 540 336 617 251 617 c 0
 200 617 166 583 166 527 c 0
 166 470 237 418 277 398 c 0
 316 378 372 347 411 304 c 0
 441 271 463 236 463 184 c 0
 463 122 431 76 395 45 c 0
 354 8 305 -10 244 -10 c 0xb8
 106 -10 103 10 46 10 c 1
 35 47 27 100 27 175 c 1
 28 175 29 176 30 176 c 0x78
 45 180 61 184 77 178 c 1
 97 87 166 32 233 32 c 0
 294 32 337 66 337 115 c 0
 337 171 292 211 246 243 c 0
 203 273 120 307 74 369 c 0
 51 399 41 447 41 485 c 0
 41 534 69 580 106 610 c 0
 148 644 207 658 252 658 c 0
 345 658 366 639 421 631 c 1xb8
EndSplineSet
MultipleSubs2: "'c2sc' Capitals to Small Capitals lookup 12 subtable" s.sc
Position2: "'cpsp' Capital Spacing lookup 3 per glyph data 0" dx=2 dy=0 dh=5 dv=0
EndChar

StartChar: T
Encoding: 84 84 53
Width: 652
GlyphClass: 2
Flags: MW
HStem: -2 34<168 168 502 502> 604 41<433 445.5 265 451> 633 20G<31 32 630 630.5>
VStem: 265 140<123 503>
AnchorPoint: "Anchor-6" 507 285 basechar 0
AnchorPoint: "Anchor-5" 333 1 basechar 0
AnchorPoint: "Anchor-3" 619 732 basechar 0
AnchorPoint: "Anchor-2" 340 -110 basechar 0
AnchorPoint: "Anchor-0" 327 850 basechar 0
LayerCount: 2
Fore
SplineSet
405 123 m 2xd0
 405 40 422 35 502 32 c 1
 508 26 508 4 502 -2 c 1
 452 -1 399 0 333 0 c 0
 269 0 217 -1 168 -2 c 1
 162 4 162 26 168 32 c 1
 248 35 265 40 265 123 c 2
 265 506 l 2
 265 567 255 604 218 604 c 2
 169 604 l 2xd0
 103 604 62 579 42 499 c 1
 30 499 13 500 3 504 c 1
 14 552 24 605 28 650 c 0
 28 651 30 653 32 653 c 0xb0
 70 650 188 645 265 645 c 2
 406 645 l 2xd0
 485 645 596 650 630 653 c 0
 631 653 633 651 633 650 c 0xb0
 634 605 639 553 646 507 c 1
 637 503 618 502 607 502 c 1
 590 579 548 604 473 604 c 2
 451 604 l 2
 415 604 405 567 405 503 c 2
 405 123 l 2xd0
EndSplineSet
MultipleSubs2: "'c2sc' Capitals to Small Capitals lookup 12 subtable" t.sc
Position2: "'cpsp' Capital Spacing lookup 3 per glyph data 0" dx=2 dy=0 dh=5 dv=0
EndChar

StartChar: U
Encoding: 85 85 54
Width: 732
GlyphClass: 2
Flags: MW
HStem: -10 42<373 478.5> 613 34<10 10 319 319 489 489 723 723>
VStem: 87 140<236.5 269 269 522> 581 65<277 295 295 522>
AnchorPoint: "Anchor-6" 406 321 basechar 0
AnchorPoint: "Anchor-5" 388 -6 basechar 0
AnchorPoint: "Anchor-2" 328 -110 basechar 0
AnchorPoint: "Anchor-0" 346 850 basechar 0
LayerCount: 2
Fore
SplineSet
227 522 m 2
 227 269 l 2
 227 204 229 129 278 82 c 0
 308 53 349 32 397 32 c 0
 566 32 581 165 581 277 c 2
 581 522 l 2
 581 605 565 607 489 613 c 1
 483 619 483 641 489 647 c 1
 535 646 587 645 616 645 c 0
 644 645 684 646 723 647 c 1
 729 641 729 619 723 613 c 1
 664 607 646 605 646 522 c 2
 646 295 l 2
 646 117 581 -10 376 -10 c 0
 329 -10 237 -9 174 32 c 0
 118 69 87 139 87 236 c 2
 87 522 l 2
 87 605 70 610 10 613 c 1
 4 619 4 641 10 647 c 1
 60 646 111 645 156 645 c 0
 204 645 270 646 319 647 c 1
 325 641 325 619 319 613 c 1
 242 610 227 605 227 522 c 2
EndSplineSet
MultipleSubs2: "'c2sc' Capitals to Small Capitals lookup 12 subtable" u.sc
Position2: "'cpsp' Capital Spacing lookup 3 per glyph data 0" dx=2 dy=0 dh=5 dv=0
EndChar

StartChar: V
Encoding: 86 86 55
Width: 700
GlyphClass: 2
Flags: MW
HStem: -12 21G<340 354> 613 34<6 6 316 316 467 467 694 694>
VStem: 539 160
AnchorPoint: "Anchor-6" 374 474 basechar 0
AnchorPoint: "Anchor-5" 348 3 basechar 0
AnchorPoint: "Anchor-3" 679 732 basechar 0
AnchorPoint: "Anchor-2" 348 -110 basechar 0
AnchorPoint: "Anchor-0" 376 850 basechar 0
LayerCount: 2
Fore
SplineSet
594 543 m 2
 381 11 l 2
 374 -7 361 -12 347 -12 c 0
 333 -12 321 -6 314 11 c 2
 96 559 l 2
 78 604 45 609 6 613 c 1
 0 619 0 641 6 647 c 1
 43 646 99 645 140 645 c 0
 179 645 279 646 316 647 c 1
 322 641 322 619 316 613 c 1
 268 610 231 606 242 573 c 2
 366 216 l 1
 382 171 l 1
 398 210 l 1
 536 566 l 2
 551 604 505 610 467 613 c 1
 461 619 461 641 467 647 c 1
 504 646 559 645 600 645 c 0
 632 645 664 646 694 647 c 1
 700 641 700 619 694 613 c 1
 650 610 618 603 594 543 c 2
EndSplineSet
MultipleSubs2: "'c2sc' Capitals to Small Capitals lookup 12 subtable" v.sc
Position2: "'cpsp' Capital Spacing lookup 3 per glyph data 0" dx=2 dy=0 dh=5 dv=0
EndChar

StartChar: W
Encoding: 87 87 56
Width: 1028
GlyphClass: 2
Flags: MW
HStem: -12 21G<315.5 326 683.5 697.5> 590 20G 613 34<10 10 320 320 791 791 1018 1018>
VStem: 6 1017 858 165
AnchorPoint: "Anchor-5" 325 -10 basechar 0
AnchorPoint: "Anchor-3" 979 732 basechar 0
AnchorPoint: "Anchor-2" 495 -110 basechar 0
AnchorPoint: "Anchor-0" 540 850 basechar 0
LayerCount: 2
Fore
SplineSet
575 613 m 1xd0
 715 216 l 1
 730 174 l 1
 742 210 l 1
 855 546 l 2
 867 583 848 604 791 613 c 1
 785 619 785 641 791 647 c 1
 828 646 875 645 916 645 c 0
 951 645 985 646 1018 647 c 1
 1024 641 1024 619 1018 613 c 1xa8
 974 610 934 582 913 523 c 2
 725 11 l 2
 718 -7 704 -12 691 -12 c 0
 676 -12 665 -8 658 11 c 2
 505 410 l 1
 355 11 l 2
 347 -10 331 -12 321 -12 c 0
 310 -12 295 -10 288 11 c 2
 100 559 l 2
 85 602 49 609 10 613 c 1
 4 619 4 641 10 647 c 1
 47 646 103 645 144 645 c 0
 183 645 283 646 320 647 c 1
 326 641 326 619 320 613 c 1
 272 610 236 606 246 573 c 2xb0
 355 216 l 1
 365 184 l 1
 372 210 l 1
 515 613 l 1
 528 609 556 609 575 613 c 1xd0
EndSplineSet
Substitution2: "'ss05' Style Set 5 lookup 43 subtable" W.alt
Substitution2: "'salt' Stylistic Alternatives lookup 19 subtable" W.alt
MultipleSubs2: "'c2sc' Capitals to Small Capitals lookup 12 subtable" w.sc
Position2: "'cpsp' Capital Spacing lookup 3 per glyph data 0" dx=2 dy=0 dh=5 dv=0
EndChar

StartChar: X
Encoding: 88 88 57
Width: 718
GlyphClass: 2
Flags: MW
HStem: -1 34<10 10 243 243 410 410 708 708> 266 143 613 34<35 35 336 336 463 463 681 681>
VStem: 6 187 294 137 513 173
AnchorPoint: "Anchor-6" 596 345 basechar 0
AnchorPoint: "Anchor-5" 102 0 basechar 0
AnchorPoint: "Anchor-3" 689 732 basechar 0
AnchorPoint: "Anchor-2" 307 -110 basechar 0
AnchorPoint: "Anchor-0" 372 850 basechar 0
LayerCount: 2
Fore
SplineSet
434 89 m 2
 342 246 l 2
 329 269 322 271 312 258 c 0
 270 200 231 142 199 82 c 0
 183 52 199 36 243 33 c 1
 249 27 249 5 243 -1 c 1
 203 0 144 1 121 1 c 0
 98 1 40 0 10 -1 c 1
 4 5 4 27 10 33 c 1
 55 37 90 45 118 81 c 2
 282 291 l 2
 298 312 298 316 278 344 c 2
 134 547 l 2
 96 600 77 610 35 613 c 1
 29 619 28 641 34 647 c 1
 64 646 150 645 189 645 c 0
 229 645 296 646 336 647 c 1
 342 641 342 619 336 613 c 1
 280 610 279 594 301 557 c 2
 378 429 l 2
 389 410 396 402 407 415 c 0
 448 463 480 516 507 564 c 0
 522 594 507 610 463 613 c 1
 457 619 457 641 463 647 c 1
 503 646 556 645 579 645 c 0
 602 645 651 646 681 647 c 1
 687 641 687 619 681 613 c 1
 636 609 606 601 578 565 c 2
 443 389 l 2
 426 367 426 360 448 327 c 2
 602 99 l 2
 639 45 665 36 707 33 c 1
 713 27 714 5 708 -1 c 1
 678 0 605 1 566 1 c 0
 526 1 450 0 410 -1 c 1
 404 5 404 27 410 33 c 1
 466 36 459 54 434 89 c 2
EndSplineSet
MultipleSubs2: "'c2sc' Capitals to Small Capitals lookup 12 subtable" x.sc
Position2: "'cpsp' Capital Spacing lookup 3 per glyph data 0" dx=2 dy=0 dh=5 dv=0
EndChar

StartChar: Y
Encoding: 89 89 58
Width: 624
GlyphClass: 2
Flags: MW
HStem: -2 34<150 150 484 484> 613 34<6 6 271 271 415 415 619 619>
VStem: 247 140<122 259 259 268> 471 153
AnchorPoint: "Anchor-5" 322 1 basechar 0
AnchorPoint: "Anchor-2" 322 -110 basechar 0
AnchorPoint: "Anchor-0" 345 850 basechar 0
LayerCount: 2
Fore
SplineSet
387 122 m 2
 387 39 404 35 484 32 c 1
 490 26 490 4 484 -2 c 1
 434 -1 380 0 325 0 c 0
 257 0 199 -1 150 -2 c 1
 144 4 144 26 150 32 c 1
 230 35 247 39 247 122 c 2
 247 259 l 2
 247 296 245 303 227 332 c 2
 100 547 l 2
 67 603 48 610 6 613 c 1
 0 619 -1 641 5 647 c 1
 35 646 108 645 147 645 c 0
 187 645 231 646 271 647 c 1
 277 641 277 619 271 613 c 1
 215 610 215 595 236 557 c 2
 340 373 l 2
 349 357 356 357 363 370 c 2
 466 564 l 2
 482 594 459 610 415 613 c 1
 409 619 409 641 415 647 c 1
 455 646 503 645 526 645 c 0
 549 645 589 646 619 647 c 1
 625 641 625 619 619 613 c 1
 574 609 555 603 532 565 c 2
 404 351 l 2
 391 329 387 308 387 268 c 2
 387 122 l 2
EndSplineSet
MultipleSubs2: "'c2sc' Capitals to Small Capitals lookup 12 subtable" y.sc
Position2: "'cpsp' Capital Spacing lookup 3 per glyph data 0" dx=2 dy=0 dh=5 dv=0
EndChar

StartChar: Z
Encoding: 90 90 59
Width: 624
GlyphClass: 2
Flags: MW
HStem: -8 21G<571 572> 0 44<229 338> 602 43<305 400> 633 20G<71 72>
VStem: 20 582
AnchorPoint: "Anchor-6" 535 321 basechar 0
AnchorPoint: "Anchor-5" 287 4 basechar 0
AnchorPoint: "Anchor-3" 619 732 basechar 0
AnchorPoint: "Anchor-2" 287 -110 basechar 0
AnchorPoint: "Anchor-0" 320 850 basechar 0
LayerCount: 2
Fore
SplineSet
429 44 m 2x68
 495 44 543 97 563 177 c 1
 575 177 592 176 602 172 c 1
 596 112 583 25 575 -5 c 0
 575 -6 573 -8 571 -8 c 0xa8
 533 -5 415 0 338 0 c 2
 39 0 l 2
 25 0 20 5 20 15 c 0
 20 22 22 30 28 38 c 2
 402 579 l 2
 409 589 418 602 400 602 c 2
 209 602 l 2x68
 143 602 101 556 81 476 c 1
 69 476 52 477 42 481 c 1
 53 529 64 605 68 650 c 0
 68 651 70 653 72 653 c 0x58
 110 650 228 645 305 645 c 2
 506 645 l 2
 535 645 559 647 572 647 c 0
 586 647 589 643 589 637 c 0
 589 626 587 620 567 591 c 2
 213 72 l 2
 200 53 198 44 229 44 c 2
 429 44 l 2x68
EndSplineSet
MultipleSubs2: "'c2sc' Capitals to Small Capitals lookup 12 subtable" z.sc
Position2: "'cpsp' Capital Spacing lookup 3 per glyph data 0" dx=2 dy=0 dh=5 dv=0
EndChar

StartChar: bracketleft
Encoding: 91 91 60
Width: 397
GlyphClass: 2
Flags: MW
HStem: -193 30<342 342> 673 30<342 342>
VStem: 97 100<-93.5 -50 -50 561>
LayerCount: 2
Fore
SplineSet
97 -193 m 1
 97 703 l 1
 342 703 l 1
 348 697 348 679 342 673 c 1
 205 663 197 648 197 561 c 2
 197 -50 l 2
 197 -137 204 -152 342 -163 c 1
 348 -169 348 -187 342 -193 c 1
 97 -193 l 1
EndSplineSet
MultipleSubs2: "'c2sc' Capitals to Small Capitals lookup 12 subtable" bracketleft.sc
Substitution2: "'case' Case-Sensitive Forms lookup 8 subtable" bracketleft.sc
EndChar

StartChar: backslash
Encoding: 92 92 61
Width: 307
GlyphClass: 2
Flags: MW
HStem: 678 20G<11 76 76 76>
VStem: 11 295
LayerCount: 2
Fore
SplineSet
76 698 m 1
 306 -48 l 1
 241 -48 l 1
 11 698 l 1
 76 698 l 1
EndSplineSet
EndChar

StartChar: bracketright
Encoding: 93 93 62
Width: 397
GlyphClass: 2
Flags: MW
HStem: -195 30<57 57> 671 30<57 57>
VStem: 202 100<-53 558 558 601.5>
LayerCount: 2
Fore
SplineSet
302 701 m 1
 302 -195 l 1
 57 -195 l 1
 51 -189 51 -171 57 -165 c 1
 194 -155 202 -140 202 -53 c 2
 202 558 l 2
 202 645 195 660 57 671 c 1
 51 677 51 695 57 701 c 1
 302 701 l 1
EndSplineSet
MultipleSubs2: "'c2sc' Capitals to Small Capitals lookup 12 subtable" bracketright.sc
Substitution2: "'case' Case-Sensitive Forms lookup 8 subtable" bracketright.sc
EndChar

StartChar: asciicircum
Encoding: 94 94 63
Width: 518
GlyphClass: 2
Flags: MW
HStem: 630 20G<239 281 281 281>
VStem: 112 295<346 346>
LayerCount: 2
Fore
SplineSet
259 569 m 1
 169 346 l 1
 112 346 l 1
 239 650 l 1
 281 650 l 1
 407 346 l 1
 350 346 l 1
 259 569 l 1
EndSplineSet
EndChar

StartChar: underscore
Encoding: 95 95 64
Width: 486
GlyphClass: 2
Flags: MW
HStem: -154 51<5 482 5 482>
VStem: 5 477<-154 -103 -154 -103>
LayerCount: 2
Fore
SplineSet
482 -103 m 1
 482 -154 l 1
 5 -154 l 1
 5 -103 l 1
 482 -103 l 1
EndSplineSet
EndChar

StartChar: grave
Encoding: 96 96 65
Width: 392
GlyphClass: 2
Flags: MW
HStem: 508 168<160 263.5>
VStem: 103 173<519.5 633>
LayerCount: 2
Fore
SplineSet
198 674 m 2
 267 550 l 2
 271 543 276 532 276 524 c 0
 276 515 268 508 259 508 c 0
 251 508 241 513 224 528 c 2
 103 633 l 1
 105 644 l 1
 113 653 142 676 178 676 c 0
 183 676 194 675 198 674 c 2
EndSplineSet
EndChar

StartChar: a
Encoding: 97 97 66
Width: 506
GlyphClass: 2
Flags: MW
HStem: -10 60<125.5 231> -10 70<351 453.5> 402 42<210.5 234>
VStem: 44 120<94.5 128.5 94.5 134.5> 62 110 290 128<86 343 218 343 271 320.5>
AnchorPoint: "Anchor-5" 167 -3 basechar 0
AnchorPoint: "Anchor-4" 410 16 basechar 0
AnchorPoint: "Anchor-2" 196 -110 basechar 0
AnchorPoint: "Anchor-0" 209 645 basechar 0
LayerCount: 2
Fore
SplineSet
295 49 m 1xb4
 289 48 l 1
 256 22 198 -10 169 -10 c 0
 82 -10 44 26 44 95 c 0xb4
 44 174 118 203 223 236 c 2
 290 257 l 1
 290 384 255 402 213 402 c 0
 180 402 172 390 171 379 c 0
 169 369 171 359 173 349 c 0
 174 343 175 337 175 332 c 0
 175 308 149 286 113 286 c 0
 74 286 62 308 62 336 c 0
 62 402 174 444 247 444 c 0
 329 444 418 415 418 271 c 2
 416 127 l 2
 416 78 422 60 444 60 c 0
 463 60 473 64 486 74 c 1x6c
 498 66 502 58 504 46 c 1
 467 11 428 -10 373 -10 c 0
 329 -10 302 8 295 49 c 1xb4
290 218 m 1
 238 201 l 2
 167 178 164 147 164 110 c 0
 164 79 179 50 222 50 c 0
 240 50 265 66 290 86 c 1
 290 218 l 1
EndSplineSet
MultipleSubs2: "'smcp' Lowercase to Small Capitals lookup 10 subtable" a.sc
Substitution2: "'subs' Subscript lookup 7 subtable" uni2090
Substitution2: "'sups' Superscript lookup 6 subtable" uni1D43
Substitution2: "Single Substitution lookup 4 subtable" uni1D43
Substitution2: "Single Substitution lookup 3 subtable" uni2090
EndChar

StartChar: b
Encoding: 98 98 67
Width: 542
GlyphClass: 2
Flags: MW
HStem: -10 42<260.5 314.5 260.5 335.5> -6 21G 373 71<301.5 306.5> 678 20G<191 195.5> 685 13<191 207>
VStem: 74 130<127 348 388 565 565 583> 368 140<189 271.5 171.5 279>
AnchorPoint: "Anchor-6" 236 215 basechar 0
AnchorPoint: "Anchor-3" 420 580 basechar 0
AnchorPoint: "Anchor-2" 234 -110 basechar 0
LayerCount: 2
Fore
SplineSet
74 127 m 2xb6
 74 565 l 2
 74 634 69 635 6 640 c 1
 1 649 0 660 3 672 c 1
 74 675 154 686 191 698 c 0
 200 698 207 694 207 685 c 2
 207 685 204 648 204 583 c 2
 204 388 l 1
 233 409 286 444 317 444 c 0
 370 444 418 434 454 393 c 0
 486 356 508 300 508 243 c 0
 508 100 391 -10 280 -10 c 0
 234 -10 173 0 134 30 c 1
 125 12 115 -2 102 -13 c 1xae
 91 -13 80 -10 68 -6 c 1x76
 72 32 74 44 74 127 c 2xb6
204 348 m 1
 204 67 l 1
 223 44 246 32 275 32 c 0
 354 32 368 148 368 230 c 0
 368 328 331 373 282 373 c 0
 259 373 237 370 204 348 c 1
EndSplineSet
MultipleSubs2: "'smcp' Lowercase to Small Capitals lookup 10 subtable" b.sc
Substitution2: "'subs' Subscript lookup 7 subtable" b.inferior
Substitution2: "'sups' Superscript lookup 6 subtable" uni1D47
Substitution2: "Single Substitution lookup 4 subtable" uni1D47
Substitution2: "Single Substitution lookup 3 subtable" b.inferior
EndChar

StartChar: c
Encoding: 99 99 68
Width: 456
GlyphClass: 2
Flags: MW
HStem: -10 72<268.5 285> 402 42<223.5 268.5>
VStem: 37 135<176 275>
AnchorPoint: "Anchor-6" 236 215 basechar 0
AnchorPoint: "Anchor-5" 242 -2 basechar 0
AnchorPoint: "Anchor-4" 361 42 basechar 0
AnchorPoint: "Anchor-3" 490 580 basechar 0
AnchorPoint: "Anchor-2" 236 -110 basechar 0
AnchorPoint: "Anchor-1" 500 466 basechar 0
AnchorPoint: "Anchor-0" 242 645 basechar 0
LayerCount: 2
Fore
SplineSet
422 87 m 1
 384 32 315 -10 255 -10 c 0
 184 -10 138 5 99 42 c 0
 60 79 37 136 37 201 c 0
 37 349 141 444 259 444 c 0
 368 444 422 385 422 340 c 0
 422 309 399 284 367 284 c 0
 335 284 308 304 305 331 c 0
 302 363 287 402 250 402 c 0
 197 402 172 347 172 236 c 0
 172 116 231 62 306 62 c 0
 335 62 369 81 409 118 c 1
 420 118 422 99 422 87 c 1
EndSplineSet
MultipleSubs2: "'smcp' Lowercase to Small Capitals lookup 10 subtable" c.sc
Substitution2: "'subs' Subscript lookup 7 subtable" c.inferior
Substitution2: "'sups' Superscript lookup 6 subtable" uni1D9C
Substitution2: "Single Substitution lookup 4 subtable" uni1D9C
Substitution2: "Single Substitution lookup 3 subtable" c.inferior
EndChar

StartChar: d
Encoding: 100 100 69
Width: 561
GlyphClass: 2
Flags: MW
HStem: -10 66<196 272> 402 42<261 289> 413 20G<351 351> 678 20G<468 472.5> 685 13<468 484>
VStem: 37 140<170.5 255.5 170.5 264.5> 351 130<120 133 133 366 366 366 433 563 563 583>
AnchorPoint: "Anchor-6" 236 215 basechar 0
AnchorPoint: "Anchor-4" 312 20 basechar 0
AnchorPoint: "Anchor-3" 490 580 basechar 0
AnchorPoint: "Anchor-2" 221 -110 basechar 0
AnchorPoint: "Anchor-1" 500 466 basechar 0
AnchorPoint: "Anchor-0" 218 645 basechar 0
LayerCount: 2
Fore
SplineSet
355 48 m 1xd6
 346 48 l 1
 325 34 251 -10 224 -10 c 0
 168 -10 143 4 107 32 c 0
 58 70 37 139 37 198 c 0
 37 331 150 444 279 444 c 0xd6
 308 444 332 439 351 433 c 1
 351 563 l 2
 351 632 346 633 283 638 c 1
 278 647 277 660 280 672 c 1
 351 675 431 686 468 698 c 0
 477 698 484 694 484 685 c 2xae
 484 685 481 648 481 583 c 2
 481 133 l 2
 481 76 492 60 546 55 c 1
 548 49 550 29 548 23 c 1
 479 14 419 0 382 -10 c 0
 368 -10 360 -5 359 7 c 2
 359 7 357 24 355 48 c 1xd6
352 95 m 1
 351 103 351 112 351 120 c 2
 351 366 l 1
 327 399 302 402 276 402 c 0
 246 402 219 386 202 359 c 0
 183 328 177 282 177 229 c 0
 177 112 216 56 266 56 c 0
 278 56 331 78 352 95 c 1
EndSplineSet
MultipleSubs2: "'smcp' Lowercase to Small Capitals lookup 10 subtable" d.sc
Substitution2: "'subs' Subscript lookup 7 subtable" d.inferior
Substitution2: "'sups' Superscript lookup 6 subtable" uni1D48
Substitution2: "Single Substitution lookup 4 subtable" uni1D48
Substitution2: "Single Substitution lookup 3 subtable" d.inferior
EndChar

StartChar: e
Encoding: 101 101 70
Width: 489
GlyphClass: 2
Flags: MW
HStem: -10 86<259 293.5> 235 40<177 313 177 413 173 313> 402 42<245.5 264.5>
VStem: 37 135<170 222.5 170 274.5> 37 140<169 275> 315 127<293 308.5 259 336>
AnchorPoint: "Anchor-6" 241 215 basechar 0
AnchorPoint: "Anchor-5" 246 -3 basechar 0
AnchorPoint: "Anchor-4" 389 41 basechar 0
AnchorPoint: "Anchor-2" 239 -110 basechar 0
AnchorPoint: "Anchor-1" 425 396 basechar 0
AnchorPoint: "Anchor-0" 248 645 basechar 0
LayerCount: 2
Fore
SplineSet
431 129 m 1xec
 441 129 446 111 446 98 c 1
 396 25 328 -10 259 -10 c 0
 188 -10 139 6 101 40 c 0
 58 79 37 140 37 198 c 0xec
 37 351 157 444 262 444 c 0
 409 444 442 351 442 266 c 0
 442 252 437 235 413 235 c 2
 173 235 l 1
 173 230 172 226 172 219 c 0xf4
 172 121 220 76 298 76 c 0
 336 76 390 87 431 129 c 1xec
177 275 m 1
 313 275 l 2
 315 277 315 290 315 296 c 0
 315 376 278 402 251 402 c 0
 240 402 213 392 197 368 c 0
 183 348 178 310 177 275 c 1
EndSplineSet
MultipleSubs2: "'smcp' Lowercase to Small Capitals lookup 10 subtable" e.sc
Substitution2: "'subs' Subscript lookup 7 subtable" uni2091
Substitution2: "'sups' Superscript lookup 6 subtable" uni1D49
Substitution2: "Single Substitution lookup 4 subtable" uni1D49
Substitution2: "Single Substitution lookup 3 subtable" uni2091
EndChar

StartChar: f
Encoding: 102 102 71
Width: 391
GlyphClass: 2
Flags: MW
HStem: -2 21G 384 50<38.5 100 98 100 98 100 230 316> 656 42<288.5 301.5>
VStem: 100 130<126 128 128 384 434 454 454 485>
AnchorPoint: "Anchor-6" 136 215 basechar 0
AnchorPoint: "Anchor-3" 410 750 basechar 0
AnchorPoint: "Anchor-2" 132 -110 basechar 0
LayerCount: 2
Fore
SplineSet
230 128 m 2
 230 44 246 35 307 32 c 1
 313 26 313 4 307 -2 c 1
 264 -1 220 0 165 0 c 0
 110 0 65 -1 23 -2 c 1
 17 4 17 26 23 32 c 1
 84 35 100 44 100 126 c 2
 100 384 l 1
 50 384 l 2
 27 384 23 387 23 394 c 2
 23 421 l 2
 23 429 64 434 98 434 c 2
 100 434 l 1
 100 454 l 2
 100 550 134 600 171 640 c 0
 209 681 265 698 312 698 c 0
 418 698 449 651 449 624 c 0
 449 581 425 560 392 560 c 0
 356 560 330 585 321 617 c 0
 314 641 310 656 293 656 c 0
 271 656 230 634 230 485 c 2
 230 434 l 1
 331 434 l 2
 350 434 351 430 351 424 c 2
 351 401 l 2
 351 389 334 384 316 384 c 2
 230 384 l 1
 230 128 l 2
EndSplineSet
MultipleSubs2: "'smcp' Lowercase to Small Capitals lookup 10 subtable" f.sc
Substitution2: "'subs' Subscript lookup 7 subtable" f.inferior
Substitution2: "'sups' Superscript lookup 6 subtable" uni1DA0
Substitution2: "Single Substitution lookup 4 subtable" uni1DA0
Substitution2: "Single Substitution lookup 3 subtable" f.inferior
EndChar

StartChar: g
Encoding: 103 103 72
Width: 521
GlyphClass: 2
Flags: MW
HStem: -238 42<198 250 198 272.5> -25 94<179 213.5> -6 21G 142 38<215.5 249 205 256.5> 406 38<210.5 246.5> 440 51<396 466>
VStem: 11 109<-121.5 -97.5> 44 99<58.5 119> 46 120<279.5 321.5> 290 122<268.5 319 268.5 327.5> 400 101<-99 -54.5>
AnchorPoint: "Anchor-6" 227 285 basechar 0
AnchorPoint: "Anchor-3" 492 580 basechar 0
AnchorPoint: "Anchor-2" 229 -319 basechar 0
AnchorPoint: "Anchor-0" 231 645 basechar 0
LayerCount: 2
Fore
SplineSet
467 394 m 0xb4c0
 442 394 424 415 420 428 c 0
 417 434 410 440 401 440 c 0
 391 440 358 422 350 412 c 1
 384 384 412 347 412 291 c 0
 412 246 392 211 363 185 c 0xb4c0
 329 155 282 142 231 142 c 0
 200 142 179 143 158 153 c 1
 153 141 143 127 143 111 c 0
 143 71 170 69 188 69 c 0
 262 69 412 62 451 36 c 0xd920
 491 9 501 -34 501 -55 c 0
 501 -165 342 -238 203 -238 c 0
 155 -238 89 -232 50 -205 c 0
 23 -186 11 -143 11 -106 c 0
 11 -89 55 -32 98 -6 c 1xba20
 78 0 66 8 57 22 c 0
 47 37 44 49 44 68 c 0xb940
 44 88 92 141 123 168 c 1
 75 194 46 247 46 296 c 0
 46 347 73 386 114 412 c 0
 147 434 189 444 232 444 c 0xb8c0
 277 444 298 442 316 432 c 1
 345 458 403 491 447 491 c 0
 485 491 511 462 511 443 c 0
 511 406 495 394 467 394 c 0xb4c0
175 -25 m 0xda20
 154 -25 141 -23 131 -19 c 1
 120 -39 120 -62 120 -96 c 0
 120 -147 165 -196 231 -196 c 0
 269 -196 320 -194 351 -176 c 0
 384 -158 400 -117 400 -81 c 0
 400 -28 252 -25 175 -25 c 0xda20
290 288 m 0xb8c0
 290 367 270 406 223 406 c 0
 184 406 166 379 166 305 c 0
 166 254 174 180 236 180 c 0
 262 180 290 192 290 288 c 0xb8c0
EndSplineSet
MultipleSubs2: "'smcp' Lowercase to Small Capitals lookup 10 subtable" g.sc
Substitution2: "'subs' Subscript lookup 7 subtable" g.inferior
Substitution2: "'sups' Superscript lookup 6 subtable" uni1D4D
Substitution2: "Single Substitution lookup 4 subtable" uni1D4D
Substitution2: "Single Substitution lookup 3 subtable" g.inferior
EndChar

StartChar: h
Encoding: 104 104 73
Width: 619
GlyphClass: 2
Flags: MW
HStem: -2 21G 370 74<314 438> 678 20G<217 221.5> 685 13<217 233>
VStem: 100 130<127 332 372 565 565 583> 398 130<128 284>
AnchorPoint: "Anchor-6" 264 215 basechar 0
AnchorPoint: "Anchor-4" 423 10 basechar 0
AnchorPoint: "Anchor-3" 429 580 basechar 0
AnchorPoint: "Anchor-2" 315 -110 basechar 0
AnchorPoint: "Anchor-0" 299 645 basechar 0
LayerCount: 2
Fore
SplineSet
528 128 m 2xec
 528 44 544 35 605 32 c 1
 611 26 611 4 605 -2 c 1
 562 -1 518 0 463 0 c 0
 415 0 383 -1 341 -2 c 1
 335 4 335 26 341 32 c 1
 382 35 398 44 398 128 c 2
 398 295 l 2
 398 352 363 370 323 370 c 0
 305 370 272 358 230 332 c 1
 230 127 l 2
 230 44 245 35 287 32 c 1
 293 26 293 4 287 -2 c 1
 244 -1 213 0 165 0 c 0
 110 0 65 -1 23 -2 c 1
 17 4 17 26 23 32 c 1
 84 35 100 44 100 127 c 2
 100 565 l 2
 100 634 95 635 32 640 c 1
 27 649 26 660 29 672 c 1
 100 675 180 686 217 698 c 0
 226 698 233 694 233 685 c 2xdc
 233 685 230 648 230 583 c 2
 230 372 l 1
 287 407 358 444 395 444 c 0
 481 444 528 394 528 284 c 2
 528 128 l 2xec
EndSplineSet
Substitution2: "'salt' Stylistic Alternatives lookup 19 subtable" h.alt
MultipleSubs2: "'smcp' Lowercase to Small Capitals lookup 10 subtable" h.sc
Substitution2: "'subs' Subscript lookup 7 subtable" h.inferior
Substitution2: "'sups' Superscript lookup 6 subtable" uni02B0
Substitution2: "Single Substitution lookup 4 subtable" uni02B0
Substitution2: "Single Substitution lookup 3 subtable" h.inferior
EndChar

StartChar: i
Encoding: 105 105 74
Width: 322
GlyphClass: 2
Flags: MW
HStem: -2 21G 424 20G<213 220> 530 128<143.5 183.5>
VStem: 102 130<122 314 314 321>
AnchorPoint: "Anchor-6" 142 215 basechar 0
AnchorPoint: "Anchor-5" 137 12 basechar 0
AnchorPoint: "Anchor-4" 209 10 basechar 0
AnchorPoint: "Anchor-2" 136 -110 basechar 0
AnchorPoint: "Anchor-0" 137 795 basechar 0
LayerCount: 2
Fore
SplineSet
232 122 m 2
 232 39 243 36 304 32 c 1
 310 26 310 4 304 -2 c 1
 261 -1 220 0 167 0 c 0
 114 0 72 -1 30 -2 c 1
 24 4 24 26 30 32 c 1
 91 37 102 39 102 122 c 2
 102 314 l 2
 102 371 92 379 37 384 c 1
 35 390 33 410 35 416 c 1
 104 425 185 433 213 444 c 1
 227 444 236 438 236 427 c 2
 236 427 232 371 232 321 c 2
 232 122 l 2
97 596 m 0
 97 626 120 658 167 658 c 0
 209 658 232 622 232 592 c 0
 232 566 206 530 161 530 c 0
 121 530 97 563 97 596 c 0
EndSplineSet
Substitution2: "Single Substitution lookup 24 subtable" dotlessi
Substitution2: "'smcp' Lowercase to Small Capitals in Latin lookup 11 subtable" idotaccent.sc
Substitution2: "'smcp' Lowercase to Small Capitals lookup 9 subtable" i.sc
Substitution2: "'subs' Subscript lookup 7 subtable" i.inferior
Substitution2: "'sups' Superscript lookup 6 subtable" uni2071
Substitution2: "Single Substitution lookup 4 subtable" uni2071
Substitution2: "Single Substitution lookup 3 subtable" i.inferior
EndChar

StartChar: j
Encoding: 106 106 75
Width: 312
GlyphClass: 2
Flags: MW
HStem: -232 68<-16 77> 424 20G<213 220> 530 128<141.5 181.5>
VStem: 102 130<76 110 110 314 314 321>
AnchorPoint: "Anchor-6" 154 215 basechar 0
AnchorPoint: "Anchor-2" 109 -319 basechar 0
LayerCount: 2
Fore
SplineSet
102 314 m 2
 102 371 92 379 37 384 c 1
 35 390 33 410 35 416 c 1
 104 425 185 433 213 444 c 1
 227 444 236 438 236 427 c 2
 236 427 232 371 232 321 c 2
 232 110 l 2
 232 -79 198 -138 151 -176 c 0
 114 -207 77 -232 -1 -232 c 0
 -31 -232 -87 -210 -87 -165 c 0
 -87 -137 -54 -105 -37 -105 c 0
 -3 -105 16 -130 32 -146 c 0
 43 -157 48 -164 62 -164 c 0
 92 -164 109 -125 109 -92 c 0
 109 -26 102 19 102 76 c 2
 102 314 l 2
95 596 m 0
 95 626 118 658 165 658 c 0
 207 658 230 622 230 592 c 0
 230 566 204 530 159 530 c 0
 119 530 95 563 95 596 c 0
EndSplineSet
Substitution2: "Single Substitution lookup 24 subtable" uni0237
MultipleSubs2: "'smcp' Lowercase to Small Capitals lookup 10 subtable" j.sc
Substitution2: "'subs' Subscript lookup 7 subtable" j.inferior
Substitution2: "'sups' Superscript lookup 6 subtable" uni02B2
Substitution2: "Single Substitution lookup 4 subtable" uni02B2
Substitution2: "Single Substitution lookup 3 subtable" j.inferior
EndChar

StartChar: k
Encoding: 107 107 76
Width: 613
GlyphClass: 2
Flags: MW
HStem: -2 34<23 23 277 277 599 599> 209 40<230 244> 402 34<342 342 574 574> 678 20G<217 221.5> 685 13<217 233>
VStem: 100 130<127 209 249 565 565 583> 383 221 397 182
AnchorPoint: "Anchor-5" 108 -57 basechar 0
AnchorPoint: "Anchor-3" 536 696 basechar 0
AnchorPoint: "Anchor-2" 290 -214 basechar 0
AnchorPoint: "Anchor-0" 306 784 basechar 0
LayerCount: 2
Fore
SplineSet
100 127 m 2xf6
 100 565 l 2
 100 634 95 635 32 640 c 1
 27 649 26 660 29 672 c 1
 100 675 180 686 217 698 c 0
 226 698 233 694 233 685 c 2
 233 685 230 648 230 583 c 2
 230 249 l 1
 260 249 306 266 319 277 c 0
 339 295 361 319 383 349 c 0
 412 389 396 398 342 402 c 1
 336 408 336 430 342 436 c 1
 379 435 426 434 463 434 c 0
 489 434 552 435 574 436 c 1
 580 430 580 408 574 402 c 1xed
 498 394 471 359 439 324 c 2
 389 269 l 2
 385 264 387 256 392 249 c 2
 508 78 l 2
 538 33 560 36 599 32 c 1
 605 26 605 4 599 -2 c 1
 562 -1 506 0 465 0 c 0
 430 0 385 -2 385 -2 c 1
 383 0 l 1
 383 26 l 2
 383 41 380 50 367 78 c 0
 350 115 322 156 299 190 c 0
 289 206 258 209 230 209 c 1
 230 127 l 2
 230 44 247 36 277 32 c 1
 283 26 283 4 277 -2 c 1
 253 -1 209 0 165 0 c 0
 110 0 65 -1 23 -2 c 1
 17 4 17 26 23 32 c 1
 84 35 100 44 100 127 c 2xf6
EndSplineSet
MultipleSubs2: "'smcp' Lowercase to Small Capitals lookup 10 subtable" k.sc
Substitution2: "'subs' Subscript lookup 7 subtable" k.inferior
Substitution2: "'sups' Superscript lookup 6 subtable" uni1D4F
Substitution2: "Single Substitution lookup 4 subtable" uni1D4F
Substitution2: "Single Substitution lookup 3 subtable" k.inferior
EndChar

StartChar: l
Encoding: 108 108 77
Width: 325
GlyphClass: 2
Flags: MW
HStem: -2 21G 678 20G<217 221.5> 685 13<217 233>
VStem: 100 130<127 565 565 583>
AnchorPoint: "Anchor-6" 136 215 basechar 0
AnchorPoint: "Anchor-5" 131 10 basechar 0
AnchorPoint: "Anchor-3" 249 733 basechar 0
AnchorPoint: "Anchor-2" 135 -110 basechar 0
AnchorPoint: "Anchor-0" 156 885 basechar 0
LayerCount: 2
Fore
SplineSet
100 127 m 2xd0
 100 565 l 2
 100 634 95 635 32 640 c 1
 27 649 26 660 29 672 c 1
 100 675 180 686 217 698 c 0
 226 698 233 694 233 685 c 2xb0
 233 685 230 648 230 583 c 2
 230 127 l 2
 230 44 246 35 307 32 c 1
 313 26 313 4 307 -2 c 1
 264 -1 220 0 165 0 c 0
 110 0 65 -1 23 -2 c 1
 17 4 17 26 23 32 c 1
 84 35 100 44 100 127 c 2xd0
EndSplineSet
MultipleSubs2: "'smcp' Lowercase to Small Capitals lookup 10 subtable" l.sc
Substitution2: "'subs' Subscript lookup 7 subtable" l.inferior
Substitution2: "'sups' Superscript lookup 6 subtable" uni02E1
Substitution2: "Single Substitution lookup 4 subtable" uni02E1
Substitution2: "Single Substitution lookup 3 subtable" l.inferior
EndChar

StartChar: m
Encoding: 109 109 78
Width: 905
GlyphClass: 2
Flags: MW
HStem: -2 21G 370 74 427 17<197 220>
VStem: 98 130<122 309 309 321 321 336> 389 130<128 284> 680 130<128 284>
CounterMasks: 1 1c
AnchorPoint: "Anchor-6" 278 215 basechar 0
AnchorPoint: "Anchor-5" 137 9 basechar 0
AnchorPoint: "Anchor-2" 455 -110 basechar 0
AnchorPoint: "Anchor-0" 392 645 basechar 0
LayerCount: 2
Fore
SplineSet
228 122 m 2xdc
 228 39 238 36 280 32 c 1
 286 26 286 4 280 -2 c 1
 237 -1 209 0 163 0 c 0
 110 0 68 -1 26 -2 c 1
 20 4 20 26 26 32 c 1
 87 37 98 39 98 122 c 2
 98 309 l 2
 98 366 88 374 33 379 c 1
 31 385 29 405 31 411 c 1
 100 420 160 434 197 444 c 0xdc
 211 444 219 439 220 427 c 2xbc
 220 427 223 404 226 374 c 1
 283 406 355 444 391 444 c 0
 450 444 490 415 505 372 c 1
 563 404 647 444 684 444 c 0
 770 444 810 394 810 284 c 2
 810 128 l 2
 810 44 826 35 887 32 c 1
 893 26 893 4 887 -2 c 1
 844 -1 800 0 745 0 c 0
 697 0 665 -1 623 -2 c 1
 617 4 617 26 623 32 c 1
 664 35 680 44 680 128 c 2
 680 295 l 2
 680 352 652 370 612 370 c 0
 596 370 553 358 515 339 c 1
 518 329 519 309 519 284 c 2
 519 128 l 2
 519 44 536 35 576 32 c 1
 582 26 582 4 576 -2 c 1
 533 -1 502 0 454 0 c 0
 406 0 374 -1 332 -2 c 1
 326 4 326 26 332 32 c 1
 373 35 389 44 389 128 c 2
 389 295 l 2
 389 352 359 370 319 370 c 0
 302 370 267 360 228 336 c 1
 228 321 l 1
 228 122 l 2xdc
EndSplineSet
MultipleSubs2: "'smcp' Lowercase to Small Capitals lookup 10 subtable" m.sc
Substitution2: "'subs' Subscript lookup 7 subtable" m.inferior
Substitution2: "'sups' Superscript lookup 6 subtable" uni1D50
Substitution2: "Single Substitution lookup 4 subtable" uni1D50
Substitution2: "Single Substitution lookup 3 subtable" m.inferior
EndChar

StartChar: n
Encoding: 110 110 79
Width: 616
GlyphClass: 2
Flags: MW
HStem: -2 21G 370 74
VStem: 98 130<122 309 309 323> 396 130<128 284>
AnchorPoint: "Anchor-6" 264 215 basechar 0
AnchorPoint: "Anchor-5" 128 9 basechar 0
AnchorPoint: "Anchor-2" 265 -110 basechar 0
AnchorPoint: "Anchor-0" 264 646 basechar 0
LayerCount: 2
Fore
SplineSet
228 122 m 2
 228 39 238 36 280 32 c 1
 286 26 286 4 280 -2 c 1
 237 -1 209 0 163 0 c 0
 110 0 68 -1 26 -2 c 1
 20 4 20 26 26 32 c 1
 87 37 98 39 98 122 c 2
 98 309 l 2
 98 366 88 374 33 379 c 1
 31 385 29 405 31 411 c 1
 100 420 160 434 197 444 c 0
 211 444 219 439 220 427 c 2
 220 427 224 397 227 362 c 1
 282 400 353 444 393 444 c 0
 479 444 526 394 526 284 c 2
 526 128 l 2
 526 44 542 35 603 32 c 1
 609 26 609 4 603 -2 c 1
 560 -1 516 0 461 0 c 0
 413 0 381 -1 339 -2 c 1
 333 4 333 26 339 32 c 1
 380 35 396 44 396 128 c 2
 396 295 l 2
 396 352 366 370 326 370 c 0
 308 370 268 350 228 323 c 1
 228 122 l 2
EndSplineSet
MultipleSubs2: "'smcp' Lowercase to Small Capitals lookup 10 subtable" n.sc
Substitution2: "'subs' Subscript lookup 7 subtable" n.inferior
Substitution2: "'sups' Superscript lookup 6 subtable" uni207F
Substitution2: "Single Substitution lookup 4 subtable" uni207F
Substitution2: "Single Substitution lookup 3 subtable" n.inferior
EndChar

StartChar: o
Encoding: 111 111 80
Width: 551
GlyphClass: 2
Flags: MW
HStem: -10 42<250 309 250 310.5> 402 42<234.5 294>
VStem: 37 140<192 236.5> 374 140<188 252.5>
AnchorPoint: "Anchor-6" 236 215 basechar 0
AnchorPoint: "Anchor-5" 241 -3 basechar 0
AnchorPoint: "Anchor-4" 372 44 basechar 0
AnchorPoint: "Anchor-2" 243 -110 basechar 0
AnchorPoint: "Anchor-1" 420 396 basechar 0
AnchorPoint: "Anchor-0" 238 645 basechar 0
LayerCount: 2
Fore
SplineSet
37 207 m 0
 37 266 54 326 92 370 c 0
 131 415 193 444 276 444 c 0
 425 444 514 347 514 216 c 0
 514 160 497 92 446 47 c 0
 405 10 346 -10 275 -10 c 0
 141 -10 37 76 37 207 c 0
260 402 m 0
 193 402 177 321 177 229 c 0
 177 155 209 32 291 32 c 0
 327 32 374 64 374 184 c 0
 374 321 328 402 260 402 c 0
EndSplineSet
MultipleSubs2: "'smcp' Lowercase to Small Capitals lookup 10 subtable" o.sc
Substitution2: "'subs' Subscript lookup 7 subtable" uni2092
Substitution2: "'sups' Superscript lookup 6 subtable" uni1D52
Substitution2: "Single Substitution lookup 4 subtable" uni1D52
Substitution2: "Single Substitution lookup 3 subtable" uni2092
EndChar

StartChar: p
Encoding: 112 112 81
Width: 581
GlyphClass: 2
Flags: MW
HStem: -234 21G -10 42<280.5 329.5 280.5 368> 377 67<194 228 194 228 331.5 334.5>
VStem: 95 130<-110 7 65 309 309 321 321 337.5> 403 140<168 265 163.5 268.5>
AnchorPoint: "Anchor-6" 246 215 basechar 0
AnchorPoint: "Anchor-3" 429 580 basechar 0
AnchorPoint: "Anchor-2" 179 -319 basechar 0
AnchorPoint: "Anchor-0" 271 646 basechar 0
LayerCount: 2
Fore
SplineSet
95 309 m 2
 95 366 85 374 30 379 c 1
 28 385 26 405 28 411 c 1
 97 420 157 434 194 444 c 0
 208 444 216 439 217 427 c 2
 217 427 220 405 222 377 c 1
 228 377 l 1
 263 409 317 444 346 444 c 0
 398 444 448 429 483 394 c 0
 522 355 543 293 543 237 c 0
 543 90 444 -10 292 -10 c 0
 268 -10 247 -4 225 7 c 1
 225 -110 l 2
 225 -193 236 -196 297 -200 c 1
 303 -206 303 -228 297 -234 c 1
 254 -233 213 -232 160 -232 c 0
 107 -232 65 -233 23 -234 c 1
 17 -228 17 -206 23 -200 c 1
 84 -195 95 -193 95 -110 c 2
 95 309 l 2
225 65 m 1
 250 38 275 32 286 32 c 0
 373 32 403 126 403 210 c 0
 403 327 355 377 314 377 c 0
 291 377 254 364 225 338 c 1
 225 321 l 1
 225 65 l 1
EndSplineSet
MultipleSubs2: "'smcp' Lowercase to Small Capitals lookup 10 subtable" p.sc
Substitution2: "'subs' Subscript lookup 7 subtable" p.inferior
Substitution2: "'sups' Superscript lookup 6 subtable" uni1D56
Substitution2: "Single Substitution lookup 4 subtable" uni1D56
Substitution2: "Single Substitution lookup 3 subtable" p.inferior
EndChar

StartChar: q
Encoding: 113 113 82
Width: 573
GlyphClass: 2
Flags: MW
HStem: -234 21G -10 56<213 294> 402 42<252.5 297> 427 17
VStem: 36 140<178.5 274.5> 353 130<-110 28 28 28 71 321>
AnchorPoint: "Anchor-6" 236 215 basechar 0
AnchorPoint: "Anchor-3" 469 732 basechar 0
AnchorPoint: "Anchor-2" 348 -319 basechar 0
AnchorPoint: "Anchor-0" 238 645 basechar 0
LayerCount: 2
Fore
SplineSet
483 -110 m 2xec
 483 -193 494 -196 555 -200 c 1
 561 -206 561 -228 555 -234 c 1
 512 -233 471 -232 418 -232 c 0
 365 -232 323 -233 281 -234 c 1
 275 -228 275 -206 281 -200 c 1
 342 -195 353 -193 353 -110 c 2
 353 28 l 1
 348 28 l 1
 331 20 268 -10 241 -10 c 0
 185 -10 151 3 116 28 c 0
 54 73 36 149 36 208 c 0
 36 341 155 444 288 444 c 0
 336 444 370 424 392 407 c 1
 414 427 451 444 464 444 c 0xec
 478 444 487 438 487 427 c 2xdc
 487 427 483 371 483 321 c 2
 483 -110 l 2xec
353 71 m 1
 353 366 l 1
 331 393 309 402 285 402 c 0
 220 402 176 329 176 229 c 0
 176 82 238 46 288 46 c 0
 300 46 334 56 353 71 c 1
EndSplineSet
MultipleSubs2: "'smcp' Lowercase to Small Capitals lookup 10 subtable" q.sc
Substitution2: "'subs' Subscript lookup 7 subtable" q.inferior
Substitution2: "'sups' Superscript lookup 6 subtable" q.superior
Substitution2: "Single Substitution lookup 4 subtable" q.superior
Substitution2: "Single Substitution lookup 3 subtable" q.inferior
EndChar

StartChar: r
Encoding: 114 114 83
Width: 428
GlyphClass: 2
Flags: MW
HStem: -2 21G 316 128<347.5 368>
VStem: 98 130<122 268>
AnchorPoint: "Anchor-6" 136 185 basechar 0
AnchorPoint: "Anchor-5" 134 7 basechar 0
AnchorPoint: "Anchor-3" 349 580 basechar 0
AnchorPoint: "Anchor-2" 135 -110 basechar 0
AnchorPoint: "Anchor-0" 191 646 basechar 0
LayerCount: 2
Fore
SplineSet
228 268 m 2
 228 122 l 2
 228 39 239 36 300 32 c 1
 306 26 306 4 300 -2 c 1
 257 -1 216 0 163 0 c 0
 110 0 68 -1 26 -2 c 1
 20 4 20 26 26 32 c 1
 87 37 98 39 98 122 c 2
 98 309 l 2
 98 366 88 375 33 380 c 1
 31 386 29 405 31 411 c 1
 97 418 150 432 197 444 c 0
 211 444 219 436 220 427 c 2
 220 427 225 378 227 348 c 1
 231 348 l 1
 277 414 315 444 350 444 c 0
 386 444 416 414 416 388 c 0
 416 346 388 316 359 316 c 0
 336 316 319 324 312 332 c 0
 304 342 293 351 284 351 c 0
 269 351 260 344 252 334 c 0
 239 319 228 304 228 268 c 2
EndSplineSet
MultipleSubs2: "'smcp' Lowercase to Small Capitals lookup 10 subtable" r.sc
Substitution2: "'subs' Subscript lookup 7 subtable" r.inferior
Substitution2: "'sups' Superscript lookup 6 subtable" uni02B3
Substitution2: "Single Substitution lookup 4 subtable" uni02B3
Substitution2: "Single Substitution lookup 3 subtable" r.inferior
EndChar

StartChar: s
Encoding: 115 115 84
Width: 427
GlyphClass: 2
Flags: MW
HStem: -10 39<179.5 215.5 179.5 242.5> 402 42<209.5 241.5>
VStem: 63 113<299 371.5> 261 116<75.5 90>
AnchorPoint: "Anchor-5" 194 1 basechar 0
AnchorPoint: "Anchor-4" 290 13 basechar 0
AnchorPoint: "Anchor-3" 366 580 basechar 0
AnchorPoint: "Anchor-2" 196 -110 basechar 0
AnchorPoint: "Anchor-0" 206 645 basechar 0
LayerCount: 2
Fore
SplineSet
48 146 m 1
 64 150 72 151 88 148 c 1
 109 75 157 29 202 29 c 0
 229 29 261 46 261 78 c 0
 261 102 250 138 210 156 c 0
 180 170 125 205 94 239 c 0
 75 260 63 284 63 314 c 0
 63 341 74 369 97 392 c 0
 129 424 179 444 232 444 c 0
 287 444 312 434 344 420 c 1
 353 388 357 350 357 314 c 1
 347 307 336 306 318 309 c 1
 293 370 259 402 224 402 c 0
 195 402 176 383 176 360 c 0
 176 331 190 299 230 282 c 0
 276 262 318 237 346 205 c 0
 369 180 377 153 377 119 c 0
 377 32 281 -10 204 -10 c 0
 148 -10 84 6 65 12 c 1
 57 50 52 97 48 146 c 1
EndSplineSet
MultipleSubs2: "'smcp' Lowercase to Small Capitals lookup 10 subtable" s.sc
Substitution2: "'subs' Subscript lookup 7 subtable" s.inferior
Substitution2: "'sups' Superscript lookup 6 subtable" uni02E2
Substitution2: "Single Substitution lookup 4 subtable" uni02E2
Substitution2: "Single Substitution lookup 3 subtable" s.inferior
EndChar

StartChar: t
Encoding: 116 116 85
Width: 358
GlyphClass: 2
Flags: MW
HStem: -10 70<189 271.5> 384 50<24 91 63 91 63 91 217 318> 581 9<211.5 223>
VStem: 88 130<102 130> 91 127 91 132<434 584>
AnchorPoint: "Anchor-6" 127 215 basechar 0
AnchorPoint: "Anchor-5" 165 -3 basechar 0
AnchorPoint: "Anchor-4" 237 15 basechar 0
AnchorPoint: "Anchor-3" 279 580 basechar 0
AnchorPoint: "Anchor-2" 163 -110 basechar 0
LayerCount: 2
Fore
SplineSet
63 434 m 2xf0
 91 434 l 1
 91 514 95 541 102 550 c 0
 109 559 138 565 155 572 c 0xe8
 171 579 208 590 215 590 c 0
 220 590 223 587 223 581 c 2
 223 581 220 535 218 468 c 2
 217 434 l 1xe4
 334 434 l 2
 339 434 342 432 342 428 c 2
 342 397 l 2
 342 388 328 384 318 384 c 2
 217 384 l 1
 217 284 218 177 218 127 c 0
 218 77 240 60 262 60 c 0
 281 60 306 64 319 74 c 1
 331 64 337 58 337 46 c 1
 317 18 256 -10 201 -10 c 0
 177 -10 141 -1 118 18 c 0
 97 36 88 70 88 105 c 0
 88 155 89 283 91 384 c 1
 26 384 l 2
 22 384 21 385 21 390 c 2
 21 419 l 1
 34 430 49 434 63 434 c 2xf0
EndSplineSet
MultipleSubs2: "'smcp' Lowercase to Small Capitals lookup 10 subtable" t.sc
Substitution2: "'subs' Subscript lookup 7 subtable" t.inferior
Substitution2: "'sups' Superscript lookup 6 subtable" uni1D57
Substitution2: "Single Substitution lookup 4 subtable" uni1D57
Substitution2: "Single Substitution lookup 3 subtable" t.inferior
EndChar

StartChar: u
Encoding: 117 117 86
Width: 598
GlyphClass: 2
Flags: MW
HStem: -10 74<174 298> 416 20G
VStem: 89 130<150 306> 380 130<121 133 133 306>
AnchorPoint: "Anchor-6" 252 215 basechar 0
AnchorPoint: "Anchor-5" 213 0 basechar 0
AnchorPoint: "Anchor-4" 293 7 basechar 0
AnchorPoint: "Anchor-2" 239 -110 basechar 0
AnchorPoint: "Anchor-0" 255 645 basechar 0
LayerCount: 2
Fore
SplineSet
510 133 m 2
 510 76 521 60 575 55 c 1
 577 49 579 29 577 23 c 1
 508 14 448 0 411 -10 c 0
 397 -10 389 -5 388 7 c 2
 388 7 386 26 384 51 c 1
 326 19 253 -10 217 -10 c 0
 131 -10 89 44 89 150 c 2
 89 306 l 2
 89 390 68 400 22 402 c 1
 16 408 16 430 22 436 c 1
 65 435 103 434 154 434 c 0
 172 434 193 435 211 436 c 1
 217 430 221 419 221 402 c 0
 221 378 219 390 219 306 c 2
 219 139 l 2
 219 69 249 64 289 64 c 0
 307 64 340 66 381 91 c 1
 380 101 380 111 380 121 c 2
 380 306 l 2
 380 390 364 397 313 402 c 1
 307 408 307 430 313 436 c 1
 352 435 417 434 445 434 c 0
 464 434 484 435 502 436 c 1
 508 430 512 419 512 402 c 0
 512 378 510 390 510 306 c 2
 510 133 l 2
EndSplineSet
MultipleSubs2: "'smcp' Lowercase to Small Capitals lookup 10 subtable" u.sc
Substitution2: "'subs' Subscript lookup 7 subtable" u.inferior
Substitution2: "'sups' Superscript lookup 6 subtable" uni1D58
Substitution2: "Single Substitution lookup 4 subtable" uni1D58
Substitution2: "Single Substitution lookup 3 subtable" u.inferior
EndChar

StartChar: v
Encoding: 118 118 87
Width: 529
GlyphClass: 2
Flags: MW
HStem: -12 21G 402 34<10 10 259 259 342 342 519 519>
VStem: 6 207 393 131
AnchorPoint: "Anchor-6" 247 267 basechar 0
AnchorPoint: "Anchor-3" 460 580 basechar 0
AnchorPoint: "Anchor-2" 241 -110 basechar 0
AnchorPoint: "Anchor-0" 256 646 basechar 0
LayerCount: 2
Fore
SplineSet
342 402 m 1
 336 408 336 430 342 436 c 1
 369 435 406 434 443 434 c 0
 465 434 497 435 519 436 c 1
 525 430 525 408 519 402 c 1
 466 397 453 369 433 324 c 2
 296 11 l 2
 287 -10 267 -12 257 -12 c 0
 244 -12 227 -6 221 9 c 2
 90 325 l 2
 70 375 68 395 10 402 c 1
 4 408 4 430 10 436 c 1
 47 435 98 434 133 434 c 0
 182 434 222 435 259 436 c 1
 265 430 265 408 259 402 c 1
 203 397 209 383 223 345 c 0
 224 341 226 336 228 331 c 2
 291 153 l 2
 294 146 298 139 302 148 c 2
 381 331 l 2
 403 382 396 398 342 402 c 1
EndSplineSet
MultipleSubs2: "'smcp' Lowercase to Small Capitals lookup 10 subtable" v.sc
Substitution2: "'subs' Subscript lookup 7 subtable" v.inferior
Substitution2: "'sups' Superscript lookup 6 subtable" uni1D5B
Substitution2: "Single Substitution lookup 4 subtable" uni1D5B
Substitution2: "Single Substitution lookup 3 subtable" v.inferior
EndChar

StartChar: w
Encoding: 119 119 88
Width: 777
GlyphClass: 2
Flags: MW
HStem: -12 21G 402 34<14 14 268 268 580 580 763 763>
VStem: 10 210 630 138
AnchorPoint: "Anchor-3" 719 580 basechar 0
AnchorPoint: "Anchor-2" 352 -110 basechar 0
AnchorPoint: "Anchor-0" 345 646 basechar 0
LayerCount: 2
Fore
SplineSet
482 331 m 2
 548 164 l 2
 552 154 558 153 562 165 c 2
 620 323 l 2
 639 372 634 398 580 402 c 1
 574 408 574 430 580 436 c 1
 617 435 660 434 697 434 c 0
 723 434 741 435 763 436 c 1
 769 430 769 408 763 402 c 1
 707 397 690 359 673 316 c 2
 550 11 l 2
 542 -9 525 -12 515 -12 c 0
 502 -12 483 -9 476 9 c 2
 380 258 l 1
 286 11 l 2
 278 -10 259 -12 249 -12 c 0
 236 -12 223 -10 216 9 c 2
 94 325 l 2
 75 376 72 395 14 402 c 1
 8 408 8 430 14 436 c 1
 51 435 102 434 137 434 c 0
 188 434 231 435 268 436 c 1
 274 430 274 408 268 402 c 1
 209 397 215 381 229 339 c 0
 230 336 231 334 232 331 c 2
 289 161 l 2
 293 151 297 153 300 160 c 2
 395 424 l 1
 414 422 433 422 451 423 c 1
 451 423 463 379 482 331 c 2
EndSplineSet
MultipleSubs2: "'smcp' Lowercase to Small Capitals lookup 10 subtable" w.sc
Substitution2: "'subs' Subscript lookup 7 subtable" w.inferior
Substitution2: "'sups' Superscript lookup 6 subtable" uni02B7
Substitution2: "Single Substitution lookup 4 subtable" uni02B7
Substitution2: "Single Substitution lookup 3 subtable" w.inferior
EndChar

StartChar: x
Encoding: 120 120 89
Width: 561
GlyphClass: 2
Flags: MW
HStem: -2 34<17 17 210 210 275 275 545 545> 402 34<29 29 295 295 352 352 536 536>
VStem: 13 162 13 202 348 193 387 154
AnchorPoint: "Anchor-6" 237 215 basechar 0
AnchorPoint: "Anchor-5" 94 8 basechar 0
AnchorPoint: "Anchor-3" 469 580 basechar 0
AnchorPoint: "Anchor-2" 224 -110 basechar 0
AnchorPoint: "Anchor-0" 256 646 basechar 0
LayerCount: 2
Fore
SplineSet
183 73 m 2xe4
 161 42 192 36 210 32 c 1
 216 26 216 4 210 -2 c 1
 190 -1 143 0 100 0 c 0xd0
 68 0 37 -1 17 -2 c 1
 11 4 11 26 17 32 c 1
 47 36 91 47 116 79 c 2
 208 193 l 2
 214 200 214 204 211 208 c 2
 122 335 l 2
 94 375 74 402 29 402 c 1
 23 408 23 430 29 436 c 1
 49 435 106 434 155 434 c 0
 210 434 275 435 295 436 c 1
 301 430 301 408 295 402 c 1
 257 398 244 396 265 360 c 2
 310 284 l 2
 314 277 319 277 322 282 c 2
 376 359 l 2xe4
 396 388 388 399 352 402 c 1
 346 408 346 430 352 436 c 1
 372 435 413 434 452 434 c 0xc8
 485 434 516 435 536 436 c 1
 542 430 542 408 536 402 c 1
 505 399 469 387 441 353 c 2
 352 245 l 2
 349 241 349 238 354 230 c 2
 442 99 l 2
 474 51 508 38 545 32 c 1
 551 26 551 4 545 -2 c 1
 525 -1 463 0 411 0 c 0
 358 0 295 -1 275 -2 c 1
 269 4 269 26 275 32 c 1
 310 37 320 40 303 72 c 2
 255 163 l 2
 252 168 249 165 245 160 c 2
 183 73 l 2xe4
EndSplineSet
MultipleSubs2: "'smcp' Lowercase to Small Capitals lookup 10 subtable" x.sc
Substitution2: "'subs' Subscript lookup 7 subtable" uni2093
Substitution2: "'sups' Superscript lookup 6 subtable" uni02E3
Substitution2: "Single Substitution lookup 4 subtable" uni02E3
Substitution2: "Single Substitution lookup 3 subtable" uni2093
EndChar

StartChar: y
Encoding: 121 121 90
Width: 558
GlyphClass: 2
Flags: MW
HStem: -232 21G<118.5 131.5> -232 100<118.5 183> -232 104<118.5 131.5> 402 34<10 10 254 254 371 371 548 548>
VStem: 6 201 367 186 423 130
AnchorPoint: "Anchor-2" 242 -319 basechar 0
AnchorPoint: "Anchor-0" 262 645 basechar 0
LayerCount: 2
Fore
SplineSet
242 -168 m 0x9a
 231 -188 203 -212 182 -222 c 0
 168 -228 138 -232 125 -232 c 0
 112 -232 95 -225 86 -214 c 0
 77 -203 74 -187 74 -174 c 0
 74 -154 96 -128 134 -128 c 0x3a
 148 -128 151 -132 169 -132 c 0
 197 -132 209 -114 222 -83 c 2
 246 -28 l 2
 252 -14 241 1 228 19 c 0
 225 23 221 27 218 32 c 2
 89 328 l 2
 62 391 54 398 10 402 c 1
 4 408 4 430 10 436 c 1
 30 435 87 434 121 434 c 0
 157 434 217 435 254 436 c 1
 260 430 260 408 254 402 c 1
 195 397 202 380 220 341 c 0
 220 340 220 339 221 338 c 2
 314 129 l 2
 315 127 315 126 315 125 c 1
 316 126 316 126 316 127 c 2
 419 358 l 2x5a
 435 394 403 399 371 402 c 1
 365 408 365 430 371 436 c 1
 408 435 442 434 477 434 c 0x9c
 505 434 523 435 548 436 c 1
 554 430 554 408 548 402 c 1
 511 399 481 368 467 339 c 0
 414 227 365 119 285 -74 c 0
 273 -104 258 -140 242 -168 c 0x9a
EndSplineSet
Substitution2: "'salt' Stylistic Alternatives lookup 19 subtable" y.alt
MultipleSubs2: "'smcp' Lowercase to Small Capitals lookup 10 subtable" y.sc
Substitution2: "'subs' Subscript lookup 7 subtable" y.inferior
Substitution2: "'sups' Superscript lookup 6 subtable" uni02B8
Substitution2: "Single Substitution lookup 4 subtable" uni02B8
Substitution2: "Single Substitution lookup 3 subtable" y.inferior
EndChar

StartChar: z
Encoding: 122 122 91
Width: 452
GlyphClass: 2
Flags: MW
HStem: -3 21G<392 392> 0 39 395.5 40.5
VStem: 17 410
AnchorPoint: "Anchor-6" 207 215 basechar 0
AnchorPoint: "Anchor-5" 208 4 basechar 0
AnchorPoint: "Anchor-3" 399 580 basechar 0
AnchorPoint: "Anchor-2" 207 -110 basechar 0
AnchorPoint: "Anchor-0" 220 646 basechar 0
LayerCount: 2
Fore
SplineSet
61 446 m 0x70
 79 443 88 436 120 436 c 2
 313 436 l 2
 342 436 410 438 415 438 c 0
 422 438 427 435 427 431 c 0
 427 427 424 419 409 394 c 0
 349 295 249 137 175 42 c 1
 176 39 l 1
 272 39 l 2
 324 39 345 57 370 110 c 2
 384 139 l 1
 396 139 418 137 424 133 c 1x70
 417 83 404 31 392 -3 c 1xb0
 40 0 l 2
 25 0 17 5 17 12 c 0
 17 17 17 20 26 32 c 0
 102 135 200 282 268 395 c 1
 266 397 l 1
 164 394 l 2
 134 393 103 371 83 298 c 1
 71 295 49 297 40 301 c 1
 48 350 54 395 55 440 c 0
 55 442 59 446 61 446 c 0x70
EndSplineSet
MultipleSubs2: "'smcp' Lowercase to Small Capitals lookup 10 subtable" z.sc
Substitution2: "'subs' Subscript lookup 7 subtable" z.inferior
Substitution2: "'sups' Superscript lookup 6 subtable" uni1DBB
Substitution2: "Single Substitution lookup 4 subtable" uni1DBB
Substitution2: "Single Substitution lookup 3 subtable" z.inferior
EndChar

StartChar: braceleft
Encoding: 123 123 92
Width: 307
GlyphClass: 2
Flags: MW
HStem: -212 24<266 288 266 288>
VStem: 8 103 112 100
LayerCount: 2
Fore
SplineSet
208 552 m 2
 216 386 l 2
 220 297 178 268 111 249 c 1
 111 245 l 1
 179 217 220 177 216 95 c 2
 208 -54 l 2
 204 -138 244 -188 288 -188 c 1
 294 -194 294 -206 288 -212 c 1
 187 -212 101 -179 106 -49 c 2
 112 121 l 2
 114 182 88 222 14 231 c 1
 6 239 5 254 14 263 c 1
 88 270 112 320 112 370 c 2
 106 554 l 2
 102 667 198 707 288 707 c 1
 294 701 294 689 288 683 c 1
 250 672 203 655 208 552 c 2
EndSplineSet
MultipleSubs2: "'c2sc' Capitals to Small Capitals lookup 12 subtable" braceleft.sc
Substitution2: "'case' Case-Sensitive Forms lookup 8 subtable" braceleft.sc
EndChar

StartChar: bar
Encoding: 124 124 93
Width: 220
GlyphClass: 2
Flags: MW
HStem: -233 21G<80 140 80 80> 678 20G<80 140 140 140>
VStem: 80 60<-233 698>
LayerCount: 2
Fore
SplineSet
140 -233 m 1
 80 -233 l 1
 80 698 l 1
 140 698 l 1
 140 -233 l 1
EndSplineSet
EndChar

StartChar: braceright
Encoding: 125 125 94
Width: 307
GlyphClass: 2
Flags: MW
HStem: 684 24<19 41>
VStem: 95 100 196 103
LayerCount: 2
Fore
SplineSet
99 -56 m 2
 91 110 l 2
 87 199 129 228 196 247 c 1
 196 251 l 1
 128 279 87 319 91 401 c 2
 99 550 l 2
 104 634 63 684 19 684 c 1
 13 690 13 702 19 708 c 1
 120 708 206 675 201 545 c 2
 195 375 l 2
 193 314 220 274 293 265 c 1
 301 257 302 242 293 233 c 1
 219 226 195 176 195 126 c 2
 201 -58 l 2
 205 -171 109 -211 19 -211 c 1
 13 -205 13 -193 19 -187 c 1
 57 -176 104 -159 99 -56 c 2
EndSplineSet
MultipleSubs2: "'c2sc' Capitals to Small Capitals lookup 12 subtable" braceright.sc
Substitution2: "'case' Case-Sensitive Forms lookup 8 subtable" braceright.sc
EndChar

StartChar: asciitilde
Encoding: 126 126 95
Width: 473
GlyphClass: 2
Flags: MW
HStem: 207 73<312.5 322.5> 268 73<147.5 163.5>
VStem: 20 430
LayerCount: 2
Fore
SplineSet
152 268 m 0x60
 124 268 70 261 46 204 c 1
 36 207 l 1
 28 216 22 230 20 236 c 0
 49 324 128 341 167 341 c 0x60
 200 341 241 331 263 309 c 0
 283 290 307 280 318 280 c 0
 346 280 400 287 424 344 c 1
 434 341 l 1
 442 332 448 318 450 312 c 0
 421 224 342 207 303 207 c 0xa0
 278 207 237 220 211 244 c 0
 190 263 175 268 152 268 c 0x60
EndSplineSet
EndChar

StartChar: exclamdown
Encoding: 161 161 97
Width: 266
GlyphClass: 2
Flags: MW
HStem: -224 21G<114.5 148.5> 305 139<114 152>
VStem: 60 146<356.5 393> 105 58
LayerCount: 2
Fore
SplineSet
133 -224 m 0xd0
 96 -224 61 -200 61 -149 c 0
 61 -114 69 -76 75 -43 c 0
 91 55 104 155 105 204 c 0
 105 223 110 246 133 246 c 0
 159 246 162 226 163 192 c 0
 164 144 178 24 191 -46 c 0
 198 -81 205 -110 205 -149 c 0
 205 -205 164 -224 133 -224 c 0xd0
206 376 m 0xe0
 206 337 172 305 132 305 c 0
 92 305 60 335 60 374 c 0
 60 412 94 444 134 444 c 0
 174 444 206 414 206 376 c 0xe0
EndSplineSet
MultipleSubs2: "'c2sc' Capitals to Small Capitals lookup 12 subtable" exclamdown.sc
Substitution2: "'case' Case-Sensitive Forms lookup 8 subtable" exclamdown.sc
EndChar

StartChar: cent
Encoding: 162 162 98
Width: 540
GlyphClass: 2
Flags: MW
HStem: -12 21G<262 296 262 262> -12 144<262 343.5 262 343.5> 61 71<262 343.5> 62 70<296 343.5> 472 43<262 296>
VStem: 60 130<270.5 342> 262 34<-12 61 61 61 152 467 515 584> 262 183<-12 164 61 164 158 164 395.5 432.5>
LayerCount: 2
Fore
SplineSet
262 584 m 1xae
 296 584 l 1
 296 515 l 1xae
 396 510 445 454 445 411 c 0
 445 380 422 355 390 355 c 0xad
 358 355 331 375 328 402 c 0
 326 426 317 455 296 467 c 1
 296 137 l 1
 307 134 318 132 329 132 c 0x4e
 358 132 392 152 432 189 c 1x4d
 443 189 445 170 445 158 c 1x9d
 411 108 351 69 296 62 c 1x9e
 296 -12 l 1
 262 -12 l 1
 262 61 l 1
 200 64 158 79 122 113 c 0
 83 150 60 207 60 272 c 0
 60 412 153 504 262 514 c 1
 262 584 l 1xae
262 152 m 1
 262 472 l 1
 216 465 190 410 190 307 c 0
 190 234 220 179 262 152 c 1
EndSplineSet
EndChar

StartChar: sterling
Encoding: 163 163 99
Width: 540
GlyphClass: 2
Flags: MW
HStem: -10 74<335 360 335 364.5> 52 57<133.5 205.5> 292 47<70.5 132 101 132 101 132 262 335> 574 40<297.5 380.5>
VStem: 18 95<10.5 29.5> 132 130<284 292 292 292 339 363 363 411>
LayerCount: 2
Fore
SplineSet
82 292 m 2xb4
 59 292 54 296 54 303 c 2
 54 319 l 2
 54 329 65 339 101 339 c 2
 132 339 l 1
 132 363 l 2
 132 459 168 512 218 560 c 0
 259 597 315 614 369 614 c 0
 392 614 463 609 463 562 c 0
 463 528 440 505 406 505 c 0
 388 505 372 517 358 531 c 0
 342 548 343 574 321 574 c 0
 274 574 262 502 262 414 c 2
 262 339 l 1
 352 339 l 2
 371 339 383 334 383 328 c 2
 383 312 l 2
 383 298 355 292 335 292 c 2
 262 292 l 1
 258 184 209 138 171 109 c 1x74
 240 109 271 93 295 80 c 0
 311 71 325 64 345 64 c 0
 375 64 419 85 445 120 c 1
 454 118 464 112 468 105 c 1
 449 53 402 -10 327 -10 c 0xb4
 283 -10 244 11 215 29 c 0
 192 44 170 52 151 52 c 0
 116 52 113 38 113 25 c 0
 113 -4 82 -18 52 -18 c 0
 30 -18 18 -2 18 15 c 0
 18 44 53 78 84 94 c 0x7c
 88 96 93 98 97 100 c 0x74
 115 121 132 165 132 284 c 2
 132 292 l 1
 82 292 l 2xb4
EndSplineSet
EndChar

StartChar: currency
Encoding: 164 164 100
Width: 463
GlyphClass: 2
Flags: MW
HStem: 122 55<211 249.5> 422 55<212.5 252 212.5 261>
VStem: 33 81<280 318.5> 346 81<281 318 281 335>
LayerCount: 2
Fore
SplineSet
230 122 m 0
 192 122 159 131 130 147 c 1
 116 129 95 103 84 89 c 1
 23 148 l 1
 76 191 l 1
 48 226 33 261 33 299 c 0
 33 338 48 374 77 409 c 1
 61 421 40 437 25 450 c 1
 80 507 l 1
 130 452 l 1
 160 468 193 477 232 477 c 0
 272 477 302 467 331 451 c 1
 347 470 371 498 382 512 c 1
 440 451 l 1
 385 406 l 1
 413 372 427 337 427 299 c 0
 427 263 412 228 386 193 c 1
 402 180 423 162 438 149 c 1
 384 91 l 1
 333 149 l 1
 303 132 269 122 230 122 c 0
114 300 m 0
 114 230 164 177 230 177 c 0
 297 177 346 231 346 299 c 0
 346 371 290 422 232 422 c 0
 167 422 114 369 114 300 c 0
EndSplineSet
EndChar

StartChar: yen
Encoding: 165 165 101
Width: 540
GlyphClass: 2
Flags: MW
HStem: -2 34<122 122 446 446> 135 42<98 219 98 219 349 478> 245 42<98 216 98 219 98 216 349 478> 568 34<14 14 269 269 348 348 532 532>
VStem: 219 130<122 135 80.5 135 177 245 80.5 245> 344 193 401 136
LayerCount: 2
Fore
SplineSet
478 177 m 1xfa
 478 135 l 1
 349 135 l 1
 349 122 l 2
 349 39 366 35 446 32 c 1
 452 26 452 4 446 -2 c 1
 396 -1 352 0 292 0 c 0
 226 0 171 -1 122 -2 c 1
 116 4 116 26 122 32 c 1
 202 35 219 39 219 122 c 2
 219 135 l 1
 98 135 l 1
 98 177 l 1
 219 177 l 1
 219 245 l 1
 98 245 l 1
 98 287 l 1
 216 287 l 1
 213 297 207 309 195 332 c 2
 108 492 l 2
 82 543 56 565 14 568 c 1
 8 574 7 596 13 602 c 1
 43 601 111 600 150 600 c 0
 190 600 229 601 269 602 c 1
 275 596 275 574 269 568 c 1
 213 565 211 555 223 531 c 2
 298 373 l 2
 310 349 319 347 329 370 c 2
 398 531 l 2xfa
 410 560 392 565 348 568 c 1
 342 574 342 596 348 602 c 1
 388 601 426 600 449 600 c 0xf4
 472 600 502 601 532 602 c 1
 538 596 538 574 532 568 c 1
 487 564 463 549 445 510 c 2
 367 351 l 2
 353 323 350 312 349 287 c 1
 478 287 l 1
 478 245 l 1
 349 245 l 1
 349 177 l 1
 478 177 l 1xfa
EndSplineSet
Substitution2: "'pnum' Proportional Numbers lookup 17 subtable" Yen.fitted
EndChar

StartChar: brokenbar
Encoding: 166 166 102
Width: 220
GlyphClass: 2
Flags: MW
HStem: -201 875<80 140 80 140>
VStem: 80 60<-201 161 -201 161 312 674>
LayerCount: 2
Fore
SplineSet
140 161 m 1
 140 -201 l 1
 80 -201 l 1
 80 161 l 1
 140 161 l 1
140 674 m 1
 140 312 l 1
 80 312 l 1
 80 674 l 1
 140 674 l 1
EndSplineSet
EndChar

StartChar: section
Encoding: 167 167 103
Width: 466
GlyphClass: 2
Flags: MW
HStem: -169 35<192 243.5 192 291.5> 623 35<220 274>
VStem: 30 77<299.5 301.5> 52 101<-81 -80 -90.5 -24> 52 117<-52 -33.5 -52 -24> 64 104<500.5 520.5> 299 110<-60.5 -7.5> 299 116<523.5 544.5> 313 102<569 570.5 514 588> 360 77<191.5 213>
LayerCount: 2
Fore
SplineSet
409 -26 m 0xe2
 409 -95 360 -169 223 -169 c 0
 150 -169 52 -125 52 -37 c 0
 52 -11 83 12 105 12 c 0
 147 12 169 -28 169 -39 c 0xc840
 169 -65 153 -73 153 -87 c 0xd040
 153 -94 163 -134 221 -134 c 0
 266 -134 299 -100 299 -33 c 0
 299 18 232 55 181 83 c 0
 70 145 30 197 30 276 c 0xe2
 30 327 63 371 99 402 c 1
 78 428 64 462 64 504 c 0
 64 537 83 583 116 613 c 0
 149 643 196 658 244 658 c 0
 342 658 415 613 415 528 c 0
 415 500 382 478 359 478 c 0
 316 478 299 518 299 529 c 0xc5
 299 560 313 561 313 577 c 0xe080
 313 599 300 623 248 623 c 0
 191 623 168 576 168 524 c 0
 168 477 198 459 244 437 c 0
 356 382 437 342 437 219 c 0xc440
 437 164 401 120 364 88 c 1
 392 53 409 14 409 -26 c 0xe2
118 381 m 1xe040
 110 364 107 345 107 324 c 0
 107 275 137 229 247 176 c 0
 284 159 317 136 343 111 c 1
 355 128 360 148 360 171 c 0
 360 255 294 291 161 352 c 0
 147 359 132 368 118 381 c 1xe040
EndSplineSet
EndChar

StartChar: dieresis
Encoding: 168 168 104
Width: 410
GlyphClass: 2
Flags: MW
HStem: 519 109<97 127.5 282.5 313>
VStem: 57 110<558 588.5> 243 110<558 588.5>
LayerCount: 2
Fore
SplineSet
57 573 m 0
 57 604 82 628 112 628 c 0
 143 628 167 604 167 573 c 0
 167 543 143 519 112 519 c 0
 82 519 57 543 57 573 c 0
243 573 m 0
 243 604 267 628 298 628 c 0
 328 628 353 604 353 573 c 0
 353 543 328 519 298 519 c 0
 267 519 243 543 243 573 c 0
EndSplineSet
EndChar

StartChar: copyright
Encoding: 169 169 105
Width: 641
GlyphClass: 2
Flags: MW
HStem: 17 50<255 386 255 400.5> 158 40<321.5 358.5> 417 33<323 359.5> 545 49<255.5 386>
VStem: 32 52<241 371 241 385.5> 187 87<286.5 346.5> 416 18 557 52<240.5 371.5>
LayerCount: 2
Fore
SplineSet
321 17 m 0
 161 17 32 148 32 306 c 0
 32 465 162 594 321 594 c 0
 480 594 609 465 609 306 c 0
 609 147 480 17 321 17 c 0
321 545 m 0
 190 545 84 436 84 306 c 0
 84 176 189 67 321 67 c 0
 451 67 557 175 557 306 c 0
 557 437 451 545 321 545 c 0
439 218 m 1
 421 188 383 158 334 158 c 0
 296 158 252 173 227 200 c 0
 200 229 187 267 187 306 c 0
 187 387 249 450 328 450 c 0
 391 450 407 436 425 430 c 1
 430 400 433 382 434 360 c 1
 430 357 423 357 416 357 c 1
 393 402 381 417 338 417 c 0
 308 417 274 392 274 305 c 0
 274 235 296 198 347 198 c 0
 393 198 412 218 422 233 c 1
 431 230 435 224 439 218 c 1
EndSplineSet
EndChar

StartChar: ordfeminine
Encoding: 170 170 106
Width: 297
GlyphClass: 2
Flags: MW
HStem: 348 37<81.5 131> 348 38<201.5 259> 615 30<120 146.5>
VStem: 15 74<410.5 430.5 410.5 438> 20 73<557.5 571.5 557.5 589> 168 76 169 76<492 513 513 519>
LayerCount: 2
Fore
SplineSet
169 519 m 1xb2
 170 592 158 615 135 615 c 0xaa
 105 615 88 603 88 590 c 0
 88 578 93 578 93 565 c 0
 93 550 73 537 54 537 c 0
 39 537 20 546 20 569 c 0
 20 609 86 645 137 645 c 0
 161 645 192 642 213 626 c 0
 242 605 247 578 245 513 c 2
 243 433 l 2
 242 390 248 386 257 386 c 0
 261 386 270 390 273 392 c 1
 283 376 l 1
 266 361 234 348 215 348 c 0x6c
 188 348 173 357 170 381 c 1xa4
 146 357 111 348 92 348 c 0
 71 348 53 351 37 363 c 0
 20 375 15 398 15 418 c 0
 15 458 63 493 128 509 c 2
 169 519 l 1xb2
167 408 m 1xb4
 169 492 l 1
 104 471 89 440 89 421 c 0
 89 400 96 385 122 385 c 0
 140 385 149 391 167 408 c 1xb4
EndSplineSet
EndChar

StartChar: guillemotleft
Encoding: 171 171 107
Width: 555
GlyphClass: 2
Flags: MW
HStem: 23 384<258 258 446 446>
VStem: 74 401
LayerCount: 2
Fore
SplineSet
262 207 m 1
 262 223 l 1
 330 284 375 323 446 407 c 1
 456 404 470 395 475 385 c 1
 436 310 402 254 371 215 c 1
 402 176 436 121 475 45 c 1
 470 35 456 26 446 23 c 1
 375 107 330 146 262 207 c 1
74 207 m 1
 74 223 l 1
 142 284 187 323 258 407 c 1
 268 404 282 395 287 385 c 1
 248 310 214 254 183 215 c 1
 214 176 248 121 287 45 c 1
 282 35 268 26 258 23 c 1
 187 107 142 146 74 207 c 1
EndSplineSet
MultipleSubs2: "'c2sc' Capitals to Small Capitals lookup 12 subtable" guillemotleft.sc
Substitution2: "'case' Case-Sensitive Forms lookup 8 subtable" guillemotleft.sc
EndChar

StartChar: logicalnot
Encoding: 172 172 108
Width: 560
GlyphClass: 2
Flags: MW
HStem: 347 54<24 463 24 537>
VStem: 463 74<133 347 347 347>
LayerCount: 2
Fore
SplineSet
463 133 m 1
 463 347 l 1
 24 347 l 1
 24 401 l 1
 537 401 l 1
 537 133 l 1
 463 133 l 1
EndSplineSet
EndChar

StartChar: uni00AD
Encoding: 173 173 109
Width: 350
GlyphClass: 2
Flags: MW
HStem: 215 79<63 284 84 273>
VStem: 38 282<230.5 278.5>
LayerCount: 2
Fore
SplineSet
273 215 m 2
 75 215 l 2
 51 215 38 225 38 236 c 0
 38 253 63 294 84 294 c 2
 284 294 l 2
 312 294 320 284 320 273 c 0
 320 260 296 215 273 215 c 2
EndSplineSet
EndChar

StartChar: registered
Encoding: 174 174 110
Width: 641
GlyphClass: 2
Flags: MW
HStem: 17 50<255 386 255 400.5> 166 17<416.5 454> 169 18 285 24<288 290.5> 423 24 427 20<310.5 333> 545 49<255.5 386>
VStem: 32 52<241 371 241 385.5> 225 63<195 285 309 413 413 415.5> 361 62<346 387 346 389> 557 52<240.5 371.5>
LayerCount: 2
Fore
SplineSet
321 17 m 0xb7e0
 161 17 32 148 32 306 c 0
 32 465 162 594 321 594 c 0
 480 594 609 465 609 306 c 0
 609 147 480 17 321 17 c 0xb7e0
321 545 m 0
 190 545 84 436 84 306 c 0
 84 176 189 67 321 67 c 0
 451 67 557 175 557 306 c 0
 557 437 451 545 321 545 c 0
423 372 m 0
 423 320 366 296 366 296 c 1
 414 214 l 2
 427 192 438 183 454 183 c 1
 454 170 l 1
 444 167 436 166 431 166 c 0
 402 166 375 178 363 204 c 2xd7e0
 315 282 l 2
 311 284 293 285 288 285 c 1
 288 194 l 2
 288 189 288 187 295 187 c 2
 307 187 l 2
 315 187 318 185 318 181 c 2
 318 167 l 1
 318 167 264 169 250 169 c 2
 194 167 l 1
 194 181 l 2
 194 185 198 187 205 187 c 2
 217 187 l 2
 223 187 225 188 225 195 c 2
 225 413 l 2
 225 418 224 424 221 424 c 2
 205 423 l 2
 198 423 195 425 195 429 c 2xbbe0
 195 442 l 1
 216 445 254 447 328 447 c 0
 403 447 423 402 423 372 c 0
361 372 m 0
 361 406 350 427 316 427 c 0
 305 427 293 426 288 424 c 1
 288 309 l 1
 319 309 361 310 361 372 c 0
EndSplineSet
EndChar

StartChar: macron
Encoding: 175 175 111
Width: 397
GlyphClass: 2
Flags: MW
HStem: 519 54<66.5 325 81 315>
VStem: 59 280<535.5 557>
LayerCount: 2
Fore
SplineSet
315 519 m 2
 71 519 l 2
 62 519 59 532 59 539 c 0
 59 551 69 573 81 573 c 2
 325 573 l 2
 335 573 339 560 339 554 c 0
 339 542 328 519 315 519 c 2
EndSplineSet
EndChar

StartChar: degree
Encoding: 176 176 112
Width: 267
GlyphClass: 2
Flags: MW
HStem: 420 38<114.5 153.5 114.5 163> 593 38<114 155>
VStem: 28 43<507.5 541 507.5 554.5> 196 43<508 539.5>
LayerCount: 2
Fore
SplineSet
28 525 m 0
 28 584 76 631 134 631 c 0
 192 631 239 584 239 525 c 0
 239 467 192 420 134 420 c 0
 76 420 28 467 28 525 c 0
196 524 m 0
 196 555 176 593 134 593 c 0
 94 593 71 558 71 524 c 0
 71 491 95 458 134 458 c 0
 173 458 196 492 196 524 c 0
EndSplineSet
EndChar

StartChar: plusminus
Encoding: 177 177 113
Width: 527
GlyphClass: 2
Flags: MW
HStem: 17 60<74 463 64 473> 280 74<61 232 61 232 306 477>
VStem: 232 74<117 280 117 280 354 518>
LayerCount: 2
Fore
SplineSet
306 354 m 1
 477 354 l 1
 477 280 l 1
 306 280 l 1
 306 117 l 1
 232 117 l 1
 232 280 l 1
 61 280 l 1
 61 354 l 1
 232 354 l 1
 232 518 l 1
 306 518 l 1
 306 354 l 1
473 77 m 1
 463 17 l 1
 64 17 l 1
 74 77 l 1
 473 77 l 1
EndSplineSet
EndChar

StartChar: uni00B2
Encoding: 178 178 114
Width: 340
GlyphClass: 2
Flags: MW
HStem: 364 57<124 206 206 221.5 124 271> 679 30<139 154>
VStem: 33 78<621 623 623 638 621 640> 190 89<610 620>
LayerCount: 2
Fore
SplineSet
33 626 m 0
 33 654 85 709 164 709 c 0
 191 709 226 708 250 689 c 0
 271 673 279 654 279 622 c 0
 279 598 272 580 250 556 c 0
 236 541 212 519 194 503 c 2
 151 466 l 2
 133 451 126 434 124 421 c 1
 206 421 l 2
 237 421 261 453 272 483 c 1
 283 483 295 481 300 477 c 1
 296 438 280 393 271 364 c 1
 35 364 l 1
 35 406 60 445 94 479 c 2
 153 533 l 2
 179 557 190 586 190 608 c 0
 190 632 186 651 178 664 c 0
 172 674 158 679 150 679 c 0
 128 679 117 674 112 661 c 0
 111 657 111 644 111 638 c 2
 111 623 l 2
 111 619 111 615 110 612 c 0
 107 596 88 583 67 583 c 0
 40 583 33 601 33 626 c 0
EndSplineSet
EndChar

StartChar: uni00B3
Encoding: 179 179 115
Width: 340
GlyphClass: 2
Flags: MW
HStem: 359 30<137.5 158 137.5 183> 425 20G<48 75> 530 26 679 30<144 166>
VStem: 35 73<633 637.5> 197 86<627.5 649.5> 214 95<444 496>
LayerCount: 2
Fore
SplineSet
197 635 m 0xf4
 197 664 177 679 155 679 c 0
 133 679 110 663 108 640 c 0
 108 626 97 600 68 600 c 0
 36 600 35 624 35 628 c 0
 35 647 69 709 172 709 c 0
 237 709 283 682 283 640 c 0xdc
 283 615 265 590 236 571 c 0
 235 570 234 568 236 567 c 0
 273 556 309 536 309 482 c 0
 309 406 228 359 138 359 c 0
 92 359 36 368 26 400 c 0
 19 422 35 445 61 445 c 0
 89 445 99 417 106 408 c 0
 114 399 127 389 148 389 c 0
 168 389 214 412 214 474 c 0
 214 518 180 530 139 530 c 0xf2
 130 530 118 529 105 526 c 1
 105 556 l 1
 149 562 197 592 197 635 c 0xf4
EndSplineSet
EndChar

StartChar: acute
Encoding: 180 180 116
Width: 341
GlyphClass: 2
Flags: MW
HStem: 505 171<108 218>
VStem: 96 174<516 629>
LayerCount: 2
Fore
SplineSet
187 674 m 2
 190 675 198 676 203 676 c 0
 233 676 252 662 260 652 c 2
 270 629 l 1
 150 521 l 2
 136 509 122 505 112 505 c 0
 104 505 96 513 96 519 c 0
 96 525 98 534 104 543 c 2
 187 674 l 2
EndSplineSet
EndChar

StartChar: mu
Encoding: 181 181 117
Width: 559
GlyphClass: 2
Flags: MW
HStem: -232 21G<110 136> -10 63<204 239.5> -10 70<399 505.5> -3 21G 414 20G<36 36 334 334> 427 20G<174 174>
VStem: 47 130<137 160 160 323 323 335.5> 64 103<-47 3> 64 113 334 130<102.5 127 127 434 434 434>
LayerCount: 2
Fore
SplineSet
343 49 m 1xc640
 335 48 l 1
 294 15 267 -10 212 -10 c 0xc540
 196 -10 180 -9 166 -3 c 1
 167 -14 167 -26 167 -37 c 0
 167 -57 167 -77 171 -96 c 0
 177 -122 183 -151 183 -168 c 0x9540
 183 -211 152 -232 120 -232 c 0
 100 -232 47 -206 47 -163 c 0xc640
 47 -142 50 -118 54 -92 c 0
 58 -66 64 -40 64 -4 c 0xc4c0
 64 10 62 26 61 46 c 0
 58 72 47 112 47 137 c 2
 47 323 l 2
 47 348 36 434 36 434 c 1
 174 447 l 1
 174 447 177 375 177 343 c 2
 177 160 l 2
 177 97 185 53 220 53 c 0
 261 53 312 68 334 98 c 1xc640
 334 434 l 1
 464 448 l 1
 464 127 l 2
 464 78 474 60 496 60 c 0
 515 60 525 64 538 74 c 1xaa40
 550 64 556 58 556 46 c 1
 519 11 476 -10 421 -10 c 0
 377 -10 350 8 343 49 c 1xc640
EndSplineSet
EndChar

StartChar: paragraph
Encoding: 182 182 118
Width: 602
GlyphClass: 2
Flags: MW
HStem: -234 27<394 421.5 394 573> -234 28<250 279 538 567 567 569 244 279> 616 25<394 410> 618 28
VStem: 318 59<-143 227 227 227> 439 59<-145 -144 -144 556> 462 36
LayerCount: 2
Fore
SplineSet
498 -144 m 2x5c
 498 -200 506 -205 538 -206 c 2
 567 -206 l 2
 571 -206 573 -209 573 -213 c 2
 573 -234 l 1
 244 -234 l 1
 244 -213 l 2
 244 -208 246 -206 250 -206 c 2
 279 -206 l 2
 312 -205 318 -195 318 -143 c 2
 318 227 l 1
 304 220 273 215 241 215 c 0
 158 215 27 261 27 439 c 0
 27 562 98 646 230 646 c 0x5c
 305 646 366 641 393 641 c 0x6a
 428 641 462 644 462 644 c 1x5a
 573 646 l 1
 573 625 l 2
 573 621 571 618 567 618 c 2
 538 618 l 2
 502 618 498 602 498 556 c 2
 498 -144 l 2x5c
407 -207 m 0xac
 436 -207 439 -187 439 -145 c 2
 439 556 l 2
 439 614 426 615 410 616 c 0
 378 616 377 584 377 553 c 2
 377 -143 l 2
 377 -172 381 -207 407 -207 c 0xac
EndSplineSet
EndChar

StartChar: periodcentered
Encoding: 183 183 119
Width: 250
GlyphClass: 2
Flags: MW
HStem: 186 134<106.5 142 106.5 144>
VStem: 57 136<235.5 270.5>
LayerCount: 2
Fore
SplineSet
125 186 m 0
 84 186 57 218 57 253 c 0
 57 288 88 320 125 320 c 0
 159 320 193 291 193 253 c 0
 193 217 163 186 125 186 c 0
EndSplineSet
EndChar

StartChar: cedilla
Encoding: 184 184 120
Width: 541
GlyphClass: 2
Flags: MW
HStem: -215 29<265 290 265 303.5>
VStem: 325 63<-150 -126>
LayerCount: 2
Fore
SplineSet
236 -101 m 1
 230 -95 l 1
 281 7 l 1
 315 7 l 1
 295 -41 l 1
 340 -50 388 -70 388 -125 c 0
 388 -175 336 -215 271 -215 c 0
 239 -215 230 -210 207 -198 c 1
 207 -188 208 -176 217 -172 c 1
 244 -182 255 -186 275 -186 c 0
 305 -186 325 -172 325 -145 c 0
 325 -107 272 -103 236 -101 c 1
EndSplineSet
EndChar

StartChar: uni00B9
Encoding: 185 185 121
Width: 340
GlyphClass: 2
Flags: MW
HStem: 363 30<78 78 292 292> 638 20G
VStem: 149 88<449 599 599 615>
LayerCount: 2
Fore
SplineSet
135 640 m 0
 122 640 103 634 78 625 c 1
 70 631 68 646 68 658 c 1
 115 675 160 691 205 714 c 0
 210 717 232 719 237 714 c 1
 237 449 l 2
 237 398 258 395 292 393 c 1
 296 385 296 370 292 363 c 1
 262 364 232 364 193 364 c 0
 158 364 108 364 78 363 c 1
 74 369 73 385 78 393 c 1
 118 395 149 398 149 449 c 2
 149 599 l 2
 149 631 147 640 135 640 c 0
EndSplineSet
EndChar

StartChar: ordmasculine
Encoding: 186 186 122
Width: 368
GlyphClass: 2
Flags: MW
HStem: 348 33<162 205.5 162 231> 582 29<155 200.5 147 205>
VStem: 39 88<459.5 511 459.5 516.5> 243 87<446 501.5 446 504>
LayerCount: 2
Fore
SplineSet
39 474 m 0
 39 559 108 611 186 611 c 0
 215 611 238 608 262 594 c 0
 305 570 330 523 330 480 c 0
 330 412 281 348 181 348 c 0
 93 348 39 402 39 474 c 0
180 582 m 0
 130 582 127 538 127 484 c 0
 127 435 132 381 192 381 c 0
 219 381 243 392 243 464 c 0
 243 544 230 582 180 582 c 0
EndSplineSet
EndChar

StartChar: guillemotright
Encoding: 187 187 123
Width: 555
GlyphClass: 2
Flags: MW
HStem: 23 384<109 109 297 297>
VStem: 80 401
LayerCount: 2
Fore
SplineSet
293 223 m 1
 293 207 l 1
 225 146 180 107 109 23 c 1
 100 26 85 35 80 45 c 1
 120 121 153 176 184 215 c 1
 153 254 120 310 80 385 c 1
 85 395 100 404 109 407 c 1
 180 323 225 284 293 223 c 1
481 223 m 1
 481 207 l 1
 413 146 368 107 297 23 c 1
 288 26 273 35 268 45 c 1
 308 121 341 176 372 215 c 1
 341 254 308 310 268 385 c 1
 273 395 288 404 297 407 c 1
 368 323 413 284 481 223 c 1
EndSplineSet
MultipleSubs2: "'c2sc' Capitals to Small Capitals lookup 12 subtable" guillemotright.sc
Substitution2: "'case' Case-Sensitive Forms lookup 8 subtable" guillemotright.sc
EndChar

StartChar: onequarter
Encoding: 188 188 124
Width: 700
GlyphClass: 2
Flags: MW
HStem: -136 30<452 452 656 656> -29 42<428 523 428 523 606 663> 314 30<75 75 289 289> 581 20G<572 572> 589 20G
VStem: 146 88<400 550 550 566> 523 83<-50 -29 -75.5 -29 13 140 140 140>
LayerCount: 2
Fore
SplineSet
606 -50 m 2xee
 606 -101 622 -104 656 -106 c 1
 660 -114 660 -129 656 -136 c 1
 626 -135 590 -135 548 -135 c 0
 513 -135 482 -135 452 -136 c 1
 448 -130 447 -114 452 -106 c 1
 492 -104 523 -101 523 -50 c 2
 523 -29 l 1
 377 -29 l 1
 365 -17 l 1
 410 49 503 162 544 219 c 1
 594 219 l 2
 599 219 606 218 606 209 c 2
 606 13 l 1
 666 13 l 1
 663 -29 l 1
 606 -29 l 1
 606 -50 l 2xee
132 591 m 0
 119 591 100 585 75 576 c 1
 67 582 65 597 65 609 c 1
 112 626 157 642 202 665 c 0
 207 668 229 670 234 665 c 1
 234 400 l 2
 234 349 255 346 289 344 c 1
 293 336 293 321 289 314 c 1
 259 315 229 315 190 315 c 0
 155 315 105 315 75 314 c 1
 71 320 70 336 75 344 c 1
 115 346 146 349 146 400 c 2
 146 550 l 2
 146 582 144 591 132 591 c 0
572 601 m 1xf6
 614 593 l 1
 155 -62 l 1
 114 -54 l 1
 572 601 l 1xf6
523 140 m 1
 428 13 l 1
 523 13 l 1
 523 140 l 1
EndSplineSet
EndChar

StartChar: onehalf
Encoding: 189 189 125
Width: 700
GlyphClass: 2
Flags: MW
HStem: -79 57<482 564 564 579.5 482 629> 236 30<497 512> 314 30<77 77 291 291> 581 20G<552 552> 589 20G
VStem: 148 88<400 550 550 566> 391 78<178 180 180 195 178 197> 548 89<167 177>
LayerCount: 2
Fore
SplineSet
391 183 m 0xef
 391 211 443 266 522 266 c 0
 549 266 584 265 608 246 c 0
 629 230 637 211 637 179 c 0
 637 155 630 137 608 113 c 0
 594 98 570 76 552 60 c 2
 509 23 l 2
 491 8 484 -9 482 -22 c 1
 564 -22 l 2
 595 -22 619 10 630 40 c 1
 641 40 653 38 658 34 c 1
 654 -5 638 -50 629 -79 c 1
 393 -79 l 1
 393 -37 418 2 452 36 c 2
 511 90 l 2
 537 114 548 143 548 165 c 0
 548 189 544 208 536 221 c 0
 530 231 516 236 508 236 c 0
 486 236 475 231 470 218 c 0
 469 214 469 201 469 195 c 2
 469 180 l 2
 469 176 469 172 468 169 c 0
 465 153 446 140 425 140 c 0
 398 140 391 158 391 183 c 0xef
134 591 m 0
 121 591 102 585 77 576 c 1
 69 582 67 597 67 609 c 1
 114 626 159 642 204 665 c 0
 209 668 231 670 236 665 c 1
 236 400 l 2
 236 349 257 346 291 344 c 1
 295 336 295 321 291 314 c 1
 261 315 231 315 192 315 c 0
 157 315 107 315 77 314 c 1
 73 320 72 336 77 344 c 1
 117 346 148 349 148 400 c 2
 148 550 l 2
 148 582 146 591 134 591 c 0
552 601 m 1xf7
 594 593 l 1
 135 -62 l 1
 94 -54 l 1
 552 601 l 1xf7
EndSplineSet
EndChar

StartChar: threequarters
Encoding: 190 190 126
Width: 700
GlyphClass: 2
Flags: MW
HStem: -134 30<456 456 660 660> -27 42<432 527 432 527 610 667> 308 30<135.5 156 135.5 181> 479 26 581 20G<582 582> 628 30<142 164>
VStem: 33 73<582 586.5> 195 86<576.5 598.5> 212 95<393 445> 527 83<-48 -27 -73.5 -27 15 142 142 142>
LayerCount: 2
Fore
SplineSet
610 -48 m 2xe4c0
 610 -99 626 -102 660 -104 c 1
 664 -112 664 -127 660 -134 c 1
 630 -133 594 -133 552 -133 c 0
 517 -133 486 -133 456 -134 c 1
 452 -128 451 -112 456 -104 c 1
 496 -102 527 -99 527 -48 c 2
 527 -27 l 1
 381 -27 l 1
 369 -15 l 1
 414 51 507 164 548 221 c 1
 598 221 l 2
 603 221 610 220 610 211 c 2
 610 15 l 1
 670 15 l 1
 667 -27 l 1
 610 -27 l 1
 610 -48 l 2xe4c0
195 584 m 0xf540
 195 613 175 628 153 628 c 0
 131 628 108 612 106 589 c 0
 106 575 95 549 66 549 c 0
 34 549 33 573 33 577 c 0
 33 596 67 658 170 658 c 0
 235 658 281 631 281 589 c 0xe740
 281 564 263 539 234 520 c 0
 233 519 232 517 234 516 c 0
 271 505 307 485 307 431 c 0
 307 355 226 308 136 308 c 0
 90 308 34 317 24 349 c 0
 17 371 33 394 59 394 c 0
 87 394 97 366 104 357 c 0
 112 348 125 338 146 338 c 0
 166 338 212 361 212 423 c 0
 212 467 178 479 137 479 c 0xf4c0
 128 479 116 478 103 475 c 1
 103 505 l 1
 147 511 195 541 195 584 c 0xf540
582 601 m 1xecc0
 624 593 l 1
 165 -62 l 1
 124 -54 l 1
 582 601 l 1xecc0
527 142 m 1
 432 15 l 1
 527 15 l 1
 527 142 l 1
EndSplineSet
EndChar

StartChar: questiondown
Encoding: 191 191 127
Width: 430
GlyphClass: 2
Flags: MW
HStem: -228 36<172 220.5> 301 139<193 231>
VStem: 5 115<-111 -57 -111 -38> 139 146<352.5 389> 181 65<201 214 178.5 226.5> 270 110<-99.5 -84 -120.5 -73.5>
LayerCount: 2
Fore
SplineSet
279 -140 m 0xe4
 279 -119 270 -113 270 -86 c 0
 270 -61 293 -45 323 -45 c 0
 347 -45 380 -65 380 -103 c 0
 380 -138 361 -161 327 -189 c 0xc4
 297 -214 251 -228 190 -228 c 0
 76 -228 5 -167 5 -75 c 0
 5 -1 68 45 118 82 c 0
 146 102 181 129 181 201 c 2
 181 214 l 2
 181 239 186 248 214 248 c 0
 241 248 246 236 246 214 c 2
 246 199 l 2xe8
 246 158 246 101 175 36 c 0
 140 5 120 -32 120 -82 c 0
 120 -140 144 -192 200 -192 c 0
 244 -192 279 -168 279 -140 c 0xe4
285 372 m 0xd0
 285 333 251 301 211 301 c 0
 171 301 139 331 139 370 c 0
 139 408 173 440 213 440 c 0
 253 440 285 410 285 372 c 0xd0
EndSplineSet
MultipleSubs2: "'c2sc' Capitals to Small Capitals lookup 12 subtable" questiondown.sc
Substitution2: "'case' Case-Sensitive Forms lookup 8 subtable" questiondown.sc
EndChar

StartChar: Agrave
Encoding: 192 192 128
Width: 740
GlyphClass: 2
Flags: MW
HStem: -2 34<7 7 234 234 425 425 730 730> -2 34.5 235 48<241 425 273 425 273 443> 638 20G<434 434>
VStem: 3 159 3 732
LayerCount: 2
Fore
SplineSet
165 79 m 2xb8
 149 38 196 35 234 32 c 1
 240 26 240 4 234 -2 c 1
 197 -1 142 0 101 0 c 0
 62 0 44 -1 7 -2 c 1
 1 4 1 26 7 32 c 1
 51 35 81 40 107 102 c 2
 324 614 l 1
 359 614 419 649 434 658 c 1
 640 86 l 2
 658 35 691 36 730 32 c 1
 736 26 736 4 730 -2 c 1
 693 -1 637 0 596 0 c 0
 557 0 462 -1 425 -2 c 1xb8
 419 4 419 26 425 32 c 1
 431 32 438 33 444 33 c 0
 482 35 511 36 499 72 c 2x74
 443 235 l 1
 253 235 l 2
 229 235 223 231 218 218 c 2
 165 79 l 2xb8
273 283 m 2
 425 283 l 1
 343 520 l 1
 336 520 l 1
 248 296 l 2
 244 286 251 283 273 283 c 2
272 830 m 1
 312 802 378 752 399 734 c 0
 409 726 409 720 409 713 c 0
 409 705 398 698 389 698 c 0
 380 698 368 699 354 705 c 2
 210 763 l 1
 207 775 l 1
 220 796 247 818 272 830 c 1
EndSplineSet
MultipleSubs2: "'c2sc' Capitals to Small Capitals lookup 12 subtable" agrave.sc
Position2: "'cpsp' Capital Spacing lookup 3 per glyph data 0" dx=2 dy=0 dh=5 dv=0
EndChar

StartChar: Aacute
Encoding: 193 193 129
Width: 740
GlyphClass: 2
Flags: MW
HStem: -2 34<7 7 234 234 425 425 730 730> -2 34.5 235 48<241 425 273 425 273 443> 638 20G<434 434>
VStem: 3 159 3 732
LayerCount: 2
Fore
SplineSet
165 79 m 2xb8
 149 38 196 35 234 32 c 1
 240 26 240 4 234 -2 c 1
 197 -1 142 0 101 0 c 0
 62 0 44 -1 7 -2 c 1
 1 4 1 26 7 32 c 1
 51 35 81 40 107 102 c 2
 324 614 l 1
 359 614 419 649 434 658 c 1
 640 86 l 2
 658 35 691 36 730 32 c 1
 736 26 736 4 730 -2 c 1
 693 -1 637 0 596 0 c 0
 557 0 462 -1 425 -2 c 1xb8
 419 4 419 26 425 32 c 1
 431 32 438 33 444 33 c 0
 482 35 511 36 499 72 c 2x74
 443 235 l 1
 253 235 l 2
 229 235 223 231 218 218 c 2
 165 79 l 2xb8
273 283 m 2
 425 283 l 1
 343 520 l 1
 336 520 l 1
 248 296 l 2
 244 286 251 283 273 283 c 2
417 833 m 1
 442 821 469 799 482 778 c 1
 479 766 l 1
 335 708 l 2
 321 702 309 701 300 701 c 0
 291 701 280 708 280 716 c 0
 280 723 280 729 290 737 c 0
 311 755 377 805 417 833 c 1
EndSplineSet
MultipleSubs2: "'c2sc' Capitals to Small Capitals lookup 12 subtable" aacute.sc
Position2: "'cpsp' Capital Spacing lookup 3 per glyph data 0" dx=2 dy=0 dh=5 dv=0
EndChar

StartChar: Acircumflex
Encoding: 194 194 130
Width: 740
GlyphClass: 2
Flags: MW
HStem: -2 34<7 7 234 234 425 425 730 730> -2 34.5 235 48<241 425 273 425 273 443> 638 20G<434 434>
VStem: 3 159 3 732
AnchorPoint: "Anchor-0" 362 894 basechar 0
LayerCount: 2
Fore
SplineSet
165 79 m 2xb8
 149 38 196 35 234 32 c 1
 240 26 240 4 234 -2 c 1
 197 -1 142 0 101 0 c 0
 62 0 44 -1 7 -2 c 1
 1 4 1 26 7 32 c 1
 51 35 81 40 107 102 c 2
 324 614 l 1
 359 614 419 649 434 658 c 1
 640 86 l 2
 658 35 691 36 730 32 c 1
 736 26 736 4 730 -2 c 1
 693 -1 637 0 596 0 c 0
 557 0 462 -1 425 -2 c 1xb8
 419 4 419 26 425 32 c 1
 431 32 438 33 444 33 c 0
 482 35 511 36 499 72 c 2x74
 443 235 l 1
 253 235 l 2
 229 235 223 231 218 218 c 2
 165 79 l 2xb8
273 283 m 2
 425 283 l 1
 343 520 l 1
 336 520 l 1
 248 296 l 2
 244 286 251 283 273 283 c 2
518 724 m 1
 518 714 511 702 502 698 c 1
 463 710 405 733 378 754 c 1
 348 732 292 709 255 698 c 1
 246 702 241 715 241 725 c 1
 283 752 333 794 368 829 c 1
 382 834 l 1
 419 797 478 750 518 724 c 1
EndSplineSet
MultipleSubs2: "'c2sc' Capitals to Small Capitals lookup 12 subtable" acircumflex.sc
Position2: "'cpsp' Capital Spacing lookup 3 per glyph data 0" dx=2 dy=0 dh=5 dv=0
EndChar

StartChar: Atilde
Encoding: 195 195 131
Width: 740
GlyphClass: 2
Flags: MW
HStem: -2 34<7 7 234 234 425 425 730 730> -2 34.5 235 48<241 425 273 425 273 443> 638 20G<434 434> 692 70<431.5 441.5> 730 71<290.5 309>
VStem: 3 159 3 732
AnchorPoint: "Anchor-0" 364 894 basechar 0
LayerCount: 2
Fore
SplineSet
165 79 m 2xb6
 149 38 196 35 234 32 c 1
 240 26 240 4 234 -2 c 1
 197 -1 142 0 101 0 c 0
 62 0 44 -1 7 -2 c 1
 1 4 1 26 7 32 c 1
 51 35 81 40 107 102 c 2
 324 614 l 1
 359 614 419 649 434 658 c 1
 640 86 l 2
 658 35 691 36 730 32 c 1
 736 26 736 4 730 -2 c 1
 693 -1 637 0 596 0 c 0
 557 0 462 -1 425 -2 c 1xb6
 419 4 419 26 425 32 c 1
 431 32 438 33 444 33 c 0
 482 35 511 36 499 72 c 2x75
 443 235 l 1
 253 235 l 2
 229 235 223 231 218 218 c 2
 165 79 l 2xb6
273 283 m 2
 425 283 l 1
 343 520 l 1
 336 520 l 1
 248 296 l 2
 244 286 251 283 273 283 c 2
437 762 m 0xb9
 451 762 472 769 486 805 c 1
 500 805 514 797 514 785 c 0
 497 727 460 692 423 692 c 0xb9
 400 692 378 698 358 713 c 0
 338 726 318 730 300 730 c 0
 278 730 262 728 251 690 c 1
 239 690 225 694 225 708 c 1
 241 759 273 801 308 801 c 0xb5
 339 801 362 792 382 776 c 0
 400 762 426 762 437 762 c 0xb9
EndSplineSet
MultipleSubs2: "'c2sc' Capitals to Small Capitals lookup 12 subtable" atilde.sc
Position2: "'cpsp' Capital Spacing lookup 3 per glyph data 0" dx=2 dy=0 dh=5 dv=0
EndChar

StartChar: Adieresis
Encoding: 196 196 132
Width: 740
GlyphClass: 2
Flags: MW
HStem: -2 34<7 7 234 234 425 425 730 730> -2 34.5 235 48<241 425 273 425 273 443> 638 20G<434 434> 710 113<276 308 464 496>
VStem: 3 159 236 112<750 782> 423 112<750 782>
LayerCount: 2
Fore
SplineSet
165 79 m 2xbf
 149 38 196 35 234 32 c 1
 240 26 240 4 234 -2 c 1
 197 -1 142 0 101 0 c 0
 62 0 44 -1 7 -2 c 1
 1 4 1 26 7 32 c 1
 51 35 81 40 107 102 c 2
 324 614 l 1
 359 614 419 649 434 658 c 1
 640 86 l 2
 658 35 691 36 730 32 c 1
 736 26 736 4 730 -2 c 1
 693 -1 637 0 596 0 c 0
 557 0 462 -1 425 -2 c 1xbf
 419 4 419 26 425 32 c 1
 431 32 438 33 444 33 c 0
 482 35 511 36 499 72 c 2x7f
 443 235 l 1
 253 235 l 2
 229 235 223 231 218 218 c 2
 165 79 l 2xbf
273 283 m 2
 425 283 l 1
 343 520 l 1
 336 520 l 1
 248 296 l 2
 244 286 251 283 273 283 c 2
423 766 m 0
 423 798 448 823 480 823 c 0
 512 823 535 798 535 766 c 0
 535 734 512 710 480 710 c 0
 448 710 423 734 423 766 c 0
236 766 m 0
 236 798 260 823 292 823 c 0
 324 823 348 798 348 766 c 0
 348 734 324 710 292 710 c 0
 260 710 236 734 236 766 c 0
EndSplineSet
Substitution2: "'ss01' Style Set 1 lookup 39 subtable" Adieresis.alt
MultipleSubs2: "'c2sc' Capitals to Small Capitals lookup 12 subtable" adieresis.sc
Position2: "'cpsp' Capital Spacing lookup 3 per glyph data 0" dx=2 dy=0 dh=5 dv=0
EndChar

StartChar: Aring
Encoding: 197 197 133
Width: 740
GlyphClass: 2
Flags: MW
HStem: -2 34<7 7 234 234 425 425 730 730> -2 34.5 235 48<241 425 273 425 273 443> 638 20G<434 434> 665 34<353.5 382.5 353.5 391.5> 797 34<354 381.5>
VStem: 3 159 283 38<735 762 735 771> 416 38<735 762.5>
AnchorPoint: "Anchor-0" 364 894 basechar 0
LayerCount: 2
Fore
SplineSet
165 79 m 2xb780
 149 38 196 35 234 32 c 1
 240 26 240 4 234 -2 c 1
 197 -1 142 0 101 0 c 0
 62 0 44 -1 7 -2 c 1
 1 4 1 26 7 32 c 1
 51 35 81 40 107 102 c 2
 324 614 l 1
 359 614 419 649 434 658 c 1
 640 86 l 2
 658 35 691 36 730 32 c 1
 736 26 736 4 730 -2 c 1
 693 -1 637 0 596 0 c 0
 557 0 462 -1 425 -2 c 1xb780
 419 4 419 26 425 32 c 1
 431 32 438 33 444 33 c 0
 482 35 511 36 499 72 c 2x7780
 443 235 l 1
 253 235 l 2
 229 235 223 231 218 218 c 2
 165 79 l 2xb780
273 283 m 2
 425 283 l 1
 343 520 l 1
 336 520 l 1
 248 296 l 2
 244 286 251 283 273 283 c 2
283 748 m 0xaf80
 283 794 321 831 368 831 c 0
 413 831 454 795 454 748 c 0
 454 703 415 665 368 665 c 0
 322 665 283 702 283 748 c 0xaf80
368 797 m 0
 340 797 321 776 321 748 c 0
 321 722 339 699 368 699 c 0
 397 699 416 722 416 748 c 0
 416 777 395 797 368 797 c 0
EndSplineSet
MultipleSubs2: "'c2sc' Capitals to Small Capitals lookup 12 subtable" aring.sc
Position2: "'cpsp' Capital Spacing lookup 3 per glyph data 0" dx=2 dy=0 dh=5 dv=0
EndChar

StartChar: AE
Encoding: 198 198 134
Width: 956
GlyphClass: 2
Flags: MW
HStem: -2 34<12 12 239 239 362 362> 0 42<630 731 731 752> 266 50<297 449 297 449 271 449> 317 50<589 670 589 670> 413 20G 567 78 603 42<618 630 630 715> 613 32<304 335> 629 20G<860 861.5>
VStem: 8 157 449 140<122 266 266 266 316 317 367 545 545 554>
AnchorPoint: "Anchor-5" 549 4 basechar 0
AnchorPoint: "Anchor-2" 549 -107 basechar 0
AnchorPoint: "Anchor-0" 553 850 basechar 0
LayerCount: 2
Fore
SplineSet
112 102 m 2xaa60
 364 562 l 2
 384 598 358 613 312 613 c 0
 306 613 304 616 304 620 c 2x6920
 304 645 l 1
 306 647 l 1
 513 645 l 1
 811 645 l 2x6a20
 835 645 843 646 860 649 c 0
 863 649 864 648 864 646 c 0x68a0
 866 638 871 542 876 501 c 1
 866 496 845 494 833 496 c 1
 811 565 790 603 715 603 c 2
 630 603 l 2
 606 603 589 578 589 554 c 2
 589 367 l 1
 670 367 l 2
 737 367 758 374 761 429 c 1
 767 435 798 435 804 429 c 1
 803 399 802 377 802 343 c 0
 802 309 803 290 804 255 c 1
 798 249 767 249 761 255 c 1
 758 300 739 317 670 317 c 2
 589 317 l 1
 589 90 l 2
 589 63 608 42 630 42 c 2
 731 42 l 2
 807 42 852 98 872 170 c 1
 885 173 907 171 917 165 c 1
 909 114 904 48 890 -2 c 1
 890 -2 800 0 752 0 c 2
 516 0 l 1
 516 0 411 -1 362 -2 c 1
 356 4 356 26 362 32 c 1x5a20
 432 35 449 39 449 122 c 2
 449 266 l 1
 271 266 l 1
 170 79 l 2
 149 40 201 35 239 32 c 1
 245 26 245 4 239 -2 c 1
 202 -1 147 0 106 0 c 0
 67 0 49 -1 12 -2 c 1
 6 4 6 26 12 32 c 1
 56 35 80 44 112 102 c 2xaa60
297 316 m 1
 449 316 l 1
 449 545 l 2
 449 571 437 578 420 546 c 2x6c20
 297 316 l 1
EndSplineSet
MultipleSubs2: "'c2sc' Capitals to Small Capitals lookup 12 subtable" ae.sc
Position2: "'cpsp' Capital Spacing lookup 3 per glyph data 0" dx=2 dy=0 dh=5 dv=0
EndChar

StartChar: Ccedilla
Encoding: 199 199 135
Width: 706
GlyphClass: 2
Flags: MW
HStem: -219 29<330 355 330 368.5> -10 52<375 397 375 375> -8 50<341 341> 617 41<327.5 456>
VStem: 37 151<268 411.5 256 425> 390 63<-154 -130>
AnchorPoint: "Anchor-0" 371 850 basechar 0
LayerCount: 2
Fore
SplineSet
301 -105 m 1xdc
 295 -99 l 1
 341 -8 l 1
 269 -2 209 16 158 53 c 0xbc
 78 111 37 221 37 315 c 0
 37 535 202 658 398 658 c 0
 521 658 566 618 617 613 c 1
 626 558 634 510 639 458 c 1
 628 452 608 449 596 453 c 1
 570 539 525 617 387 617 c 0
 268 617 188 489 188 334 c 0
 188 178 280 42 396 42 c 0
 466 42 547 68 618 146 c 1
 629 146 646 134 651 125 c 1
 583 36 494 -10 397 -10 c 2
 375 -10 l 1
 360 -45 l 1
 405 -54 453 -74 453 -129 c 0
 453 -179 401 -219 336 -219 c 0
 304 -219 295 -214 272 -202 c 1
 272 -192 273 -180 282 -176 c 1
 309 -186 320 -190 340 -190 c 0
 370 -190 390 -176 390 -149 c 0
 390 -111 337 -107 301 -105 c 1xdc
EndSplineSet
MultipleSubs2: "'c2sc' Capitals to Small Capitals lookup 12 subtable" ccedilla.sc
Position2: "'cpsp' Capital Spacing lookup 3 per glyph data 0" dx=2 dy=0 dh=5 dv=0
EndChar

StartChar: Egrave
Encoding: 200 200 136
Width: 609
GlyphClass: 2
Flags: MW
HStem: 0 42<283 384 384 405> 319 46<242 323 242 323> 413 20G 603 42<271 283 283 368> 629 20G<513 514.5>
VStem: 102 140<122 319 365 522 522 554>
AnchorPoint: "Anchor-5" 279 4 basechar 0
AnchorPoint: "Anchor-2" 279 -107 basechar 0
LayerCount: 2
Fore
SplineSet
323 365 m 2xf4
 390 365 411 374 414 429 c 1
 420 435 451 435 457 429 c 1
 456 399 455 377 455 343 c 0
 455 309 456 290 457 255 c 1
 451 249 420 249 414 255 c 1
 411 300 392 319 323 319 c 2
 242 319 l 1
 242 90 l 2
 242 63 261 42 283 42 c 2
 384 42 l 2
 460 42 505 98 525 170 c 1
 538 173 560 171 570 165 c 1
 562 114 557 48 543 -2 c 1
 543 -2 453 0 405 0 c 2
 170 0 l 1
 170 0 64 -1 15 -2 c 1
 9 4 9 26 15 32 c 1
 85 35 102 39 102 122 c 2
 102 522 l 2
 102 605 85 610 15 613 c 1
 9 619 9 641 15 647 c 1
 65 646 169 645 169 645 c 1
 464 645 l 2xf4
 488 645 496 646 513 649 c 0
 516 649 517 648 517 646 c 0xec
 519 638 524 542 529 501 c 1
 519 496 498 494 486 496 c 1
 464 565 443 603 368 603 c 2
 283 603 l 2
 259 603 242 578 242 554 c 2
 242 365 l 1
 323 365 l 2xf4
221 830 m 1
 261 802 327 752 348 734 c 0
 358 726 358 720 358 713 c 0
 358 705 347 698 338 698 c 0
 329 698 317 699 303 705 c 2
 159 763 l 1
 156 775 l 1
 169 796 196 818 221 830 c 1
EndSplineSet
MultipleSubs2: "'c2sc' Capitals to Small Capitals lookup 12 subtable" egrave.sc
Position2: "'cpsp' Capital Spacing lookup 3 per glyph data 0" dx=2 dy=0 dh=5 dv=0
EndChar

StartChar: Eacute
Encoding: 201 201 137
Width: 609
GlyphClass: 2
Flags: MW
HStem: 0 42<283 384 384 405> 319 46<242 323 242 323> 413 20G 603 42<271 283 283 368> 629 20G<513 514.5>
VStem: 102 140<122 319 365 522 522 554>
AnchorPoint: "Anchor-5" 279 4 basechar 0
AnchorPoint: "Anchor-2" 279 -107 basechar 0
LayerCount: 2
Fore
SplineSet
323 365 m 2xf4
 390 365 411 374 414 429 c 1
 420 435 451 435 457 429 c 1
 456 399 455 377 455 343 c 0
 455 309 456 290 457 255 c 1
 451 249 420 249 414 255 c 1
 411 300 392 319 323 319 c 2
 242 319 l 1
 242 90 l 2
 242 63 261 42 283 42 c 2
 384 42 l 2
 460 42 505 98 525 170 c 1
 538 173 560 171 570 165 c 1
 562 114 557 48 543 -2 c 1
 543 -2 453 0 405 0 c 2
 170 0 l 1
 170 0 64 -1 15 -2 c 1
 9 4 9 26 15 32 c 1
 85 35 102 39 102 122 c 2
 102 522 l 2
 102 605 85 610 15 613 c 1
 9 619 9 641 15 647 c 1
 65 646 169 645 169 645 c 1
 464 645 l 2xf4
 488 645 496 646 513 649 c 0
 516 649 517 648 517 646 c 0xec
 519 638 524 542 529 501 c 1
 519 496 498 494 486 496 c 1
 464 565 443 603 368 603 c 2
 283 603 l 2
 259 603 242 578 242 554 c 2
 242 365 l 1
 323 365 l 2xf4
343 833 m 1
 368 821 395 799 408 778 c 1
 405 766 l 1
 261 708 l 2
 247 702 235 701 226 701 c 0
 217 701 206 708 206 716 c 0
 206 723 206 729 216 737 c 0
 237 755 303 805 343 833 c 1
EndSplineSet
MultipleSubs2: "'c2sc' Capitals to Small Capitals lookup 12 subtable" eacute.sc
Position2: "'cpsp' Capital Spacing lookup 3 per glyph data 0" dx=2 dy=0 dh=5 dv=0
EndChar

StartChar: Ecircumflex
Encoding: 202 202 138
Width: 609
GlyphClass: 2
Flags: MW
HStem: 0 42<283 384 384 405> 319 46<242 323 242 323> 413 20G 603 42<271 283 283 368> 629 20G<513 514.5>
VStem: 102 140<122 319 365 522 522 554>
AnchorPoint: "Anchor-5" 279 4 basechar 0
AnchorPoint: "Anchor-2" 279 -107 basechar 0
AnchorPoint: "Anchor-0" 296 894 basechar 0
LayerCount: 2
Fore
SplineSet
323 365 m 2xf4
 390 365 411 374 414 429 c 1
 420 435 451 435 457 429 c 1
 456 399 455 377 455 343 c 0
 455 309 456 290 457 255 c 1
 451 249 420 249 414 255 c 1
 411 300 392 319 323 319 c 2
 242 319 l 1
 242 90 l 2
 242 63 261 42 283 42 c 2
 384 42 l 2
 460 42 505 98 525 170 c 1
 538 173 560 171 570 165 c 1
 562 114 557 48 543 -2 c 1
 543 -2 453 0 405 0 c 2
 170 0 l 1
 170 0 64 -1 15 -2 c 1
 9 4 9 26 15 32 c 1
 85 35 102 39 102 122 c 2
 102 522 l 2
 102 605 85 610 15 613 c 1
 9 619 9 641 15 647 c 1
 65 646 169 645 169 645 c 1
 464 645 l 2xf4
 488 645 496 646 513 649 c 0
 516 649 517 648 517 646 c 0xec
 519 638 524 542 529 501 c 1
 519 496 498 494 486 496 c 1
 464 565 443 603 368 603 c 2
 283 603 l 2
 259 603 242 578 242 554 c 2
 242 365 l 1
 323 365 l 2xf4
454 724 m 1
 454 714 447 702 438 698 c 1
 399 710 341 733 314 754 c 1
 284 732 228 709 191 698 c 1
 182 702 177 715 177 725 c 1
 219 752 269 794 304 829 c 1
 318 834 l 1
 355 797 414 750 454 724 c 1
EndSplineSet
MultipleSubs2: "'c2sc' Capitals to Small Capitals lookup 12 subtable" ecircumflex.sc
Position2: "'cpsp' Capital Spacing lookup 3 per glyph data 0" dx=2 dy=0 dh=5 dv=0
EndChar

StartChar: Edieresis
Encoding: 203 203 139
Width: 609
GlyphClass: 2
Flags: MW
HStem: 0 42<283 384 384 405> 319 46<242 323 242 323> 413 20G 603 42<271 283 283 368> 629 20G<513 514.5> 727 113<190 222 378 410>
VStem: 102 140<122 319 365 522 522 554> 150 112<767 799> 337 112<767 799>
AnchorPoint: "Anchor-5" 279 4 basechar 0
AnchorPoint: "Anchor-2" 279 -107 basechar 0
LayerCount: 2
Fore
SplineSet
323 365 m 2xf6
 390 365 411 374 414 429 c 1
 420 435 451 435 457 429 c 1
 456 399 455 377 455 343 c 0
 455 309 456 290 457 255 c 1
 451 249 420 249 414 255 c 1
 411 300 392 319 323 319 c 2
 242 319 l 1
 242 90 l 2
 242 63 261 42 283 42 c 2
 384 42 l 2
 460 42 505 98 525 170 c 1
 538 173 560 171 570 165 c 1
 562 114 557 48 543 -2 c 1
 543 -2 453 0 405 0 c 2
 170 0 l 1
 170 0 64 -1 15 -2 c 1
 9 4 9 26 15 32 c 1
 85 35 102 39 102 122 c 2
 102 522 l 2
 102 605 85 610 15 613 c 1
 9 619 9 641 15 647 c 1
 65 646 169 645 169 645 c 1
 464 645 l 2xf6
 488 645 496 646 513 649 c 0
 516 649 517 648 517 646 c 0xee
 519 638 524 542 529 501 c 1
 519 496 498 494 486 496 c 1
 464 565 443 603 368 603 c 2
 283 603 l 2
 259 603 242 578 242 554 c 2
 242 365 l 1
 323 365 l 2xf6
337 783 m 0xf580
 337 815 362 840 394 840 c 0
 426 840 449 815 449 783 c 0
 449 751 426 727 394 727 c 0
 362 727 337 751 337 783 c 0xf580
150 783 m 0
 150 815 174 840 206 840 c 0
 238 840 262 815 262 783 c 0
 262 751 238 727 206 727 c 0
 174 727 150 751 150 783 c 0
EndSplineSet
MultipleSubs2: "'c2sc' Capitals to Small Capitals lookup 12 subtable" edieresis.sc
Position2: "'cpsp' Capital Spacing lookup 3 per glyph data 0" dx=2 dy=0 dh=5 dv=0
EndChar

StartChar: Igrave
Encoding: 204 204 140
Width: 367
GlyphClass: 2
Flags: MW
HStem: -2 21G 627 20G
VStem: 24 7 114 140<122 523> 337 8
LayerCount: 2
Fore
SplineSet
114 523 m 2
 114 606 86 610 31 613 c 1
 21 619 21 641 31 647 c 1
 71 646 145 645 185 645 c 0
 225 645 297 646 337 647 c 1
 347 641 347 619 337 613 c 1
 282 610 254 606 254 523 c 2
 254 122 l 2
 254 39 282 35 337 32 c 1
 347 26 347 4 337 -2 c 1
 297 -1 225 0 185 0 c 0
 145 0 71 -1 31 -2 c 1
 21 4 21 26 31 32 c 1
 86 35 114 39 114 122 c 2
 114 523 l 2
131 830 m 1
 171 802 237 752 258 734 c 0
 268 726 268 720 268 713 c 0
 268 705 257 698 248 698 c 0
 239 698 227 699 213 705 c 2
 69 763 l 1
 66 775 l 1
 79 796 106 818 131 830 c 1
EndSplineSet
MultipleSubs2: "'c2sc' Capitals to Small Capitals lookup 12 subtable" igrave.sc
Position2: "'cpsp' Capital Spacing lookup 3 per glyph data 0" dx=2 dy=0 dh=5 dv=0
EndChar

StartChar: Iacute
Encoding: 205 205 141
Width: 367
GlyphClass: 2
Flags: MW
HStem: -2 21G 627 20G
VStem: 24 7 114 140<122 523> 337 8
LayerCount: 2
Fore
SplineSet
114 523 m 2
 114 606 86 610 31 613 c 1
 21 619 21 641 31 647 c 1
 71 646 145 645 185 645 c 0
 225 645 297 646 337 647 c 1
 347 641 347 619 337 613 c 1
 282 610 254 606 254 523 c 2
 254 122 l 2
 254 39 282 35 337 32 c 1
 347 26 347 4 337 -2 c 1
 297 -1 225 0 185 0 c 0
 145 0 71 -1 31 -2 c 1
 21 4 21 26 31 32 c 1
 86 35 114 39 114 122 c 2
 114 523 l 2
223 833 m 1
 248 821 275 799 288 778 c 1
 285 766 l 1
 141 708 l 2
 127 702 115 701 106 701 c 0
 97 701 86 708 86 716 c 0
 86 723 86 729 96 737 c 0
 117 755 183 805 223 833 c 1
EndSplineSet
MultipleSubs2: "'c2sc' Capitals to Small Capitals lookup 12 subtable" iacute.sc
Position2: "'cpsp' Capital Spacing lookup 3 per glyph data 0" dx=2 dy=0 dh=5 dv=0
EndChar

StartChar: Icircumflex
Encoding: 206 206 142
Width: 367
GlyphClass: 2
Flags: MW
HStem: -2 21G 627 20G
VStem: 24 7 114 140<122 523> 337 8
AnchorPoint: "Anchor-0" 144 894 basechar 0
LayerCount: 2
Fore
SplineSet
114 523 m 2
 114 606 86 610 31 613 c 1
 21 619 21 641 31 647 c 1
 71 646 145 645 185 645 c 0
 225 645 297 646 337 647 c 1
 347 641 347 619 337 613 c 1
 282 610 254 606 254 523 c 2
 254 122 l 2
 254 39 282 35 337 32 c 1
 347 26 347 4 337 -2 c 1
 297 -1 225 0 185 0 c 0
 145 0 71 -1 31 -2 c 1
 21 4 21 26 31 32 c 1
 86 35 114 39 114 122 c 2
 114 523 l 2
317 724 m 1
 317 714 310 702 301 698 c 1
 262 710 204 733 177 754 c 1
 147 732 91 709 54 698 c 1
 45 702 40 715 40 725 c 1
 82 752 132 794 167 829 c 1
 181 834 l 1
 218 797 277 750 317 724 c 1
EndSplineSet
MultipleSubs2: "'c2sc' Capitals to Small Capitals lookup 12 subtable" icircumflex.sc
Position2: "'cpsp' Capital Spacing lookup 3 per glyph data 0" dx=2 dy=0 dh=5 dv=0
EndChar

StartChar: Idieresis
Encoding: 207 207 143
Width: 367
GlyphClass: 2
Flags: MW
HStem: -2 21G 627 20G 710 113<75 107 263 295>
VStem: 24 7 35 112<750 782> 114 140<122 523> 222 112<750 782> 337 8
AnchorPoint: "Anchor-0" 148 894 basechar 0
LayerCount: 2
Fore
SplineSet
114 523 m 2xf5
 114 606 86 610 31 613 c 1
 21 619 21 641 31 647 c 1
 71 646 145 645 185 645 c 0
 225 645 297 646 337 647 c 1
 347 641 347 619 337 613 c 1
 282 610 254 606 254 523 c 2
 254 122 l 2
 254 39 282 35 337 32 c 1
 347 26 347 4 337 -2 c 1
 297 -1 225 0 185 0 c 0
 145 0 71 -1 31 -2 c 1
 21 4 21 26 31 32 c 1
 86 35 114 39 114 122 c 2
 114 523 l 2xf5
222 766 m 0xea
 222 798 247 823 279 823 c 0
 311 823 334 798 334 766 c 0
 334 734 311 710 279 710 c 0
 247 710 222 734 222 766 c 0xea
35 766 m 0
 35 798 59 823 91 823 c 0
 123 823 147 798 147 766 c 0
 147 734 123 710 91 710 c 0
 59 710 35 734 35 766 c 0
EndSplineSet
MultipleSubs2: "'c2sc' Capitals to Small Capitals lookup 12 subtable" idieresis.sc
Position2: "'cpsp' Capital Spacing lookup 3 per glyph data 0" dx=2 dy=0 dh=5 dv=0
EndChar

StartChar: Eth
Encoding: 208 208 144
Width: 734
GlyphClass: 2
Flags: MW
HStem: -2 42<327 388 315 391> 283 44<97 114 254 270.5> 604 42<298 414.5>
VStem: 114 140<122 283 327 523 523 529> 535 151<258 359.5>
AnchorPoint: "Anchor-0" 341 850 basechar 0
LayerCount: 2
Fore
SplineSet
185 0 m 0
 145 0 31 -2 31 -2 c 1
 21 4 21 26 31 32 c 1
 86 35 114 39 114 122 c 2
 114 283 l 1
 80 283 47 282 17 280 c 1
 27 330 l 1
 54 329 84 328 114 327 c 1
 114 523 l 2
 114 606 86 610 31 613 c 1
 21 619 21 641 31 647 c 1
 31 647 145 645 185 645 c 0
 225 645 267 646 320 646 c 0
 566 646 686 494 686 309 c 0
 686 207 653 124 605 82 c 0
 534 20 435 -2 347 -2 c 0
 307 -2 225 0 185 0 c 0
254 119 m 2
 254 52 280 40 350 40 c 0
 426 40 535 102 535 284 c 0
 535 435 513 604 316 604 c 0
 280 604 254 584 254 529 c 2
 254 327 l 1
 291 327 326 328 358 330 c 1
 348 280 l 1
 319 282 287 283 254 283 c 1
 254 119 l 2
EndSplineSet
MultipleSubs2: "'c2sc' Capitals to Small Capitals lookup 12 subtable" eth.sc
Position2: "'cpsp' Capital Spacing lookup 3 per glyph data 0" dx=2 dy=0 dh=5 dv=0
EndChar

StartChar: Ntilde
Encoding: 209 209 145
Width: 740
GlyphClass: 2
Flags: MW
HStem: -12 21G<568 585.5> -2 21G 0 21G<114 158 631 631> 613 34<32 32 489 489 713 713> 713 70<426.5 436.5> 751 71<285.5 304>
VStem: 111 50<133 430> 576 50<231 512>
AnchorPoint: "Anchor-0" 344 894 basechar 0
LayerCount: 2
Fore
SplineSet
631 0 m 1x97
 613 -9 603 -12 568 -12 c 1
 568 -12 548 7 528 32 c 2x97
 193 430 l 2
 182 443 174 450 169 450 c 0
 163 450 161 440 161 430 c 2
 161 133 l 2
 161 42 178 39 248 32 c 1
 254 26 254 4 248 -2 c 1
 198 -1 180 0 136 0 c 0
 92 0 73 -1 24 -2 c 1
 18 4 18 26 24 32 c 1x57
 94 39 111 44 111 133 c 2
 111 550 l 1
 105 576 75 610 32 613 c 1
 26 619 26 641 32 647 c 1
 195 645 l 1
 284 540 l 1
 549 228 l 2
 563 211 576 206 576 231 c 2
 576 512 l 2
 576 603 559 606 489 613 c 1
 483 619 483 641 489 647 c 1
 539 646 560 645 605 645 c 0
 647 645 664 646 713 647 c 1
 719 641 719 619 713 613 c 1
 643 606 626 601 626 512 c 2
 626 102 l 2x37
 626 71 631 0 631 0 c 1x97
432 783 m 0x3b
 446 783 467 790 481 826 c 1
 495 826 509 818 509 806 c 0
 492 748 455 713 418 713 c 0x3b
 395 713 373 719 353 734 c 0
 333 747 313 751 295 751 c 0
 273 751 257 749 246 711 c 1
 234 711 220 715 220 729 c 1
 236 780 268 822 303 822 c 0x37
 334 822 357 813 377 797 c 0
 395 783 421 783 432 783 c 0x3b
EndSplineSet
MultipleSubs2: "'c2sc' Capitals to Small Capitals lookup 12 subtable" ntilde.sc
Position2: "'cpsp' Capital Spacing lookup 3 per glyph data 0" dx=2 dy=0 dh=5 dv=0
EndChar

StartChar: Ograve
Encoding: 210 210 146
Width: 730
GlyphClass: 2
Flags: MW
HStem: -10 42<329 415.5> 616 42<313 404.5>
VStem: 37 151<235 355> 543 151<280 409.5>
AnchorPoint: "Anchor-5" 350 0 basechar 0
AnchorPoint: "Anchor-2" 350 -110 basechar 0
AnchorPoint: "Anchor-1" 620 606 basechar 0
AnchorPoint: "Anchor-0" 344 894 basechar 0
LayerCount: 2
Fore
SplineSet
694 329 m 0
 694 231 663 149 608 89 c 0
 551 27 467 -10 364 -10 c 0
 194 -10 37 111 37 309 c 0
 37 401 66 484 118 546 c 0
 176 615 263 658 363 658 c 0
 546 658 694 528 694 329 c 0
351 616 m 0
 262 616 188 533 188 329 c 0
 188 141 274 32 384 32 c 0
 485 32 543 142 543 308 c 0
 543 511 458 616 351 616 c 0
311 830 m 1
 351 802 417 752 438 734 c 0
 448 726 448 720 448 713 c 0
 448 705 437 698 428 698 c 0
 419 698 407 699 393 705 c 2
 249 763 l 1
 246 775 l 1
 259 796 286 818 311 830 c 1
EndSplineSet
MultipleSubs2: "'c2sc' Capitals to Small Capitals lookup 12 subtable" ograve.sc
Position2: "'cpsp' Capital Spacing lookup 3 per glyph data 0" dx=2 dy=0 dh=5 dv=0
EndChar

StartChar: Oacute
Encoding: 211 211 147
Width: 730
GlyphClass: 2
Flags: MW
HStem: -10 42<329 415.5> 616 42<313 404.5>
VStem: 37 151<235 355> 543 151<280 409.5>
AnchorPoint: "Anchor-5" 350 0 basechar 0
AnchorPoint: "Anchor-2" 350 -110 basechar 0
AnchorPoint: "Anchor-1" 620 606 basechar 0
AnchorPoint: "Anchor-0" 344 894 basechar 0
LayerCount: 2
Fore
SplineSet
694 329 m 0
 694 231 663 149 608 89 c 0
 551 27 467 -10 364 -10 c 0
 194 -10 37 111 37 309 c 0
 37 401 66 484 118 546 c 0
 176 615 263 658 363 658 c 0
 546 658 694 528 694 329 c 0
351 616 m 0
 262 616 188 533 188 329 c 0
 188 141 274 32 384 32 c 0
 485 32 543 142 543 308 c 0
 543 511 458 616 351 616 c 0
403 833 m 1
 428 821 455 799 468 778 c 1
 465 766 l 1
 321 708 l 2
 307 702 295 701 286 701 c 0
 277 701 266 708 266 716 c 0
 266 723 266 729 276 737 c 0
 297 755 363 805 403 833 c 1
EndSplineSet
MultipleSubs2: "'c2sc' Capitals to Small Capitals lookup 12 subtable" oacute.sc
Position2: "'cpsp' Capital Spacing lookup 3 per glyph data 0" dx=2 dy=0 dh=5 dv=0
EndChar

StartChar: Ocircumflex
Encoding: 212 212 148
Width: 730
GlyphClass: 2
Flags: MW
HStem: -10 42<329 415.5> 616 42<313 404.5>
VStem: 37 151<235 355> 543 151<280 409.5>
AnchorPoint: "Anchor-5" 350 0 basechar 0
AnchorPoint: "Anchor-2" 350 -110 basechar 0
AnchorPoint: "Anchor-1" 620 606 basechar 0
AnchorPoint: "Anchor-0" 344 894 basechar 0
LayerCount: 2
Fore
SplineSet
694 329 m 0
 694 231 663 149 608 89 c 0
 551 27 467 -10 364 -10 c 0
 194 -10 37 111 37 309 c 0
 37 401 66 484 118 546 c 0
 176 615 263 658 363 658 c 0
 546 658 694 528 694 329 c 0
351 616 m 0
 262 616 188 533 188 329 c 0
 188 141 274 32 384 32 c 0
 485 32 543 142 543 308 c 0
 543 511 458 616 351 616 c 0
504 724 m 1
 504 714 497 702 488 698 c 1
 449 710 391 733 364 754 c 1
 334 732 278 709 241 698 c 1
 232 702 227 715 227 725 c 1
 269 752 319 794 354 829 c 1
 368 834 l 1
 405 797 464 750 504 724 c 1
EndSplineSet
MultipleSubs2: "'c2sc' Capitals to Small Capitals lookup 12 subtable" ocircumflex.sc
Position2: "'cpsp' Capital Spacing lookup 3 per glyph data 0" dx=2 dy=0 dh=5 dv=0
EndChar

StartChar: Otilde
Encoding: 213 213 149
Width: 730
GlyphClass: 2
Flags: MW
HStem: -10 42<329 415.5> 616 42<313 404.5> 692 70<419.5 429.5> 730 71<278.5 297>
VStem: 37 151<235 355> 543 151<280 409.5>
AnchorPoint: "Anchor-5" 350 0 basechar 0
AnchorPoint: "Anchor-2" 350 -110 basechar 0
AnchorPoint: "Anchor-1" 620 606 basechar 0
AnchorPoint: "Anchor-0" 344 894 basechar 0
LayerCount: 2
Fore
SplineSet
694 329 m 0xec
 694 231 663 149 608 89 c 0
 551 27 467 -10 364 -10 c 0
 194 -10 37 111 37 309 c 0
 37 401 66 484 118 546 c 0
 176 615 263 658 363 658 c 0
 546 658 694 528 694 329 c 0xec
351 616 m 0
 262 616 188 533 188 329 c 0
 188 141 274 32 384 32 c 0
 485 32 543 142 543 308 c 0
 543 511 458 616 351 616 c 0
425 762 m 0
 439 762 460 769 474 805 c 1
 488 805 502 797 502 785 c 0
 485 727 448 692 411 692 c 0xec
 388 692 366 698 346 713 c 0
 326 726 306 730 288 730 c 0
 266 730 250 728 239 690 c 1
 227 690 213 694 213 708 c 1
 229 759 261 801 296 801 c 0xdc
 327 801 350 792 370 776 c 0
 388 762 414 762 425 762 c 0
EndSplineSet
MultipleSubs2: "'c2sc' Capitals to Small Capitals lookup 12 subtable" otilde.sc
Position2: "'cpsp' Capital Spacing lookup 3 per glyph data 0" dx=2 dy=0 dh=5 dv=0
EndChar

StartChar: Odieresis
Encoding: 214 214 150
Width: 730
GlyphClass: 2
Flags: MW
HStem: -10 42<329 415.5> 616 42<313 404.5> 711 113<247 279 435 467>
VStem: 37 151<235 355> 207 112<751 783> 394 112<751 783> 543 151<280 409.5>
AnchorPoint: "Anchor-5" 350 0 basechar 0
AnchorPoint: "Anchor-2" 350 -110 basechar 0
LayerCount: 2
Fore
SplineSet
694 329 m 0
 694 231 663 149 608 89 c 0
 551 27 467 -10 364 -10 c 0
 194 -10 37 111 37 309 c 0
 37 401 66 484 118 546 c 0
 176 615 263 658 363 658 c 0
 546 658 694 528 694 329 c 0
351 616 m 0
 262 616 188 533 188 329 c 0
 188 141 274 32 384 32 c 0
 485 32 543 142 543 308 c 0
 543 511 458 616 351 616 c 0
394 767 m 0
 394 799 419 824 451 824 c 0
 483 824 506 799 506 767 c 0
 506 735 483 711 451 711 c 0
 419 711 394 735 394 767 c 0
207 767 m 0
 207 799 231 824 263 824 c 0
 295 824 319 799 319 767 c 0
 319 735 295 711 263 711 c 0
 231 711 207 735 207 767 c 0
EndSplineSet
Substitution2: "'ss01' Style Set 1 lookup 39 subtable" Odieresis.alt
MultipleSubs2: "'c2sc' Capitals to Small Capitals lookup 12 subtable" odieresis.sc
Position2: "'cpsp' Capital Spacing lookup 3 per glyph data 0" dx=2 dy=0 dh=5 dv=0
EndChar

StartChar: multiply
Encoding: 215 215 151
Width: 527
GlyphClass: 2
Flags: MW
HStem: 69 324<144 147 147 383>
VStem: 103 323<111 111 111 346>
LayerCount: 2
Fore
SplineSet
306 232 m 1
 426 111 l 1
 383 69 l 1
 262 187 l 1
 144 69 l 1
 103 111 l 1
 221 227 l 1
 103 346 l 1
 147 393 l 1
 266 273 l 1
 382 393 l 1
 426 351 l 1
 306 232 l 1
EndSplineSet
EndChar

StartChar: Oslash
Encoding: 216 216 152
Width: 730
GlyphClass: 2
Flags: MW
HStem: -10 42<353 415.5> 583 20G<554 554> 616 42<313 379.5>
VStem: 37 151<300.5 355> 543 151<280 343>
AnchorPoint: "Anchor-5" 350 0 basechar 0
AnchorPoint: "Anchor-2" 350 -110 basechar 0
AnchorPoint: "Anchor-0" 351 850 basechar 0
LayerCount: 2
Fore
SplineSet
88 -45 m 1
 52 -14 l 1
 130 82 l 1
 73 136 37 214 37 309 c 0
 37 401 66 484 118 546 c 0
 176 615 263 658 363 658 c 0
 434 658 500 638 554 603 c 1
 608 670 l 1
 645 641 l 1
 591 574 l 1
 654 517 694 432 694 329 c 0
 694 231 663 149 608 89 c 0
 551 27 467 -10 364 -10 c 0
 292 -10 223 12 166 52 c 1
 88 -45 l 1
516 482 m 1
 231 132 l 1
 267 67 322 32 384 32 c 0
 485 32 543 142 543 308 c 0
 543 378 533 436 516 482 c 1
351 616 m 0
 262 616 188 533 188 329 c 0
 188 272 196 222 210 180 c 1
 493 529 l 1
 458 587 408 616 351 616 c 0
EndSplineSet
MultipleSubs2: "'c2sc' Capitals to Small Capitals lookup 12 subtable" oslash.sc
Position2: "'cpsp' Capital Spacing lookup 3 per glyph data 0" dx=2 dy=0 dh=5 dv=0
EndChar

StartChar: Ugrave
Encoding: 217 217 153
Width: 732
GlyphClass: 2
Flags: MW
HStem: -10 42<373 478.5> 613 34<10 10 319 319 489 489 723 723>
VStem: 87 140<236.5 269 269 522> 581 65<277 295 295 522>
AnchorPoint: "Anchor-0" 344 894 basechar 0
LayerCount: 2
Fore
SplineSet
227 522 m 2
 227 269 l 2
 227 204 229 129 278 82 c 0
 308 53 349 32 397 32 c 0
 566 32 581 165 581 277 c 2
 581 522 l 2
 581 605 565 607 489 613 c 1
 483 619 483 641 489 647 c 1
 535 646 587 645 616 645 c 0
 644 645 684 646 723 647 c 1
 729 641 729 619 723 613 c 1
 664 607 646 605 646 522 c 2
 646 295 l 2
 646 117 581 -10 376 -10 c 0
 329 -10 237 -9 174 32 c 0
 118 69 87 139 87 236 c 2
 87 522 l 2
 87 605 70 610 10 613 c 1
 4 619 4 641 10 647 c 1
 60 646 111 645 156 645 c 0
 204 645 270 646 319 647 c 1
 325 641 325 619 319 613 c 1
 242 610 227 605 227 522 c 2
311 830 m 1
 351 802 417 752 438 734 c 0
 448 726 448 720 448 713 c 0
 448 705 437 698 428 698 c 0
 419 698 407 699 393 705 c 2
 249 763 l 1
 246 775 l 1
 259 796 286 818 311 830 c 1
EndSplineSet
MultipleSubs2: "'c2sc' Capitals to Small Capitals lookup 12 subtable" ugrave.sc
Position2: "'cpsp' Capital Spacing lookup 3 per glyph data 0" dx=2 dy=0 dh=5 dv=0
EndChar

StartChar: Uacute
Encoding: 218 218 154
Width: 732
GlyphClass: 2
Flags: MW
HStem: -10 42<373 478.5> 613 34<10 10 319 319 489 489 723 723>
VStem: 87 140<236.5 269 269 522> 581 65<277 295 295 522>
AnchorPoint: "Anchor-0" 344 894 basechar 0
LayerCount: 2
Fore
SplineSet
227 522 m 2
 227 269 l 2
 227 204 229 129 278 82 c 0
 308 53 349 32 397 32 c 0
 566 32 581 165 581 277 c 2
 581 522 l 2
 581 605 565 607 489 613 c 1
 483 619 483 641 489 647 c 1
 535 646 587 645 616 645 c 0
 644 645 684 646 723 647 c 1
 729 641 729 619 723 613 c 1
 664 607 646 605 646 522 c 2
 646 295 l 2
 646 117 581 -10 376 -10 c 0
 329 -10 237 -9 174 32 c 0
 118 69 87 139 87 236 c 2
 87 522 l 2
 87 605 70 610 10 613 c 1
 4 619 4 641 10 647 c 1
 60 646 111 645 156 645 c 0
 204 645 270 646 319 647 c 1
 325 641 325 619 319 613 c 1
 242 610 227 605 227 522 c 2
443 833 m 1
 468 821 495 799 508 778 c 1
 505 766 l 1
 361 708 l 2
 347 702 335 701 326 701 c 0
 317 701 306 708 306 716 c 0
 306 723 306 729 316 737 c 0
 337 755 403 805 443 833 c 1
EndSplineSet
MultipleSubs2: "'c2sc' Capitals to Small Capitals lookup 12 subtable" uacute.sc
Position2: "'cpsp' Capital Spacing lookup 3 per glyph data 0" dx=2 dy=0 dh=5 dv=0
EndChar

StartChar: Ucircumflex
Encoding: 219 219 155
Width: 732
GlyphClass: 2
Flags: MW
HStem: -10 42<373 478.5> 613 34<10 10 319 319 489 489 723 723>
VStem: 87 140<236.5 269 269 522> 581 65<277 295 295 522>
AnchorPoint: "Anchor-0" 344 894 basechar 0
LayerCount: 2
Fore
SplineSet
227 522 m 2
 227 269 l 2
 227 204 229 129 278 82 c 0
 308 53 349 32 397 32 c 0
 566 32 581 165 581 277 c 2
 581 522 l 2
 581 605 565 607 489 613 c 1
 483 619 483 641 489 647 c 1
 535 646 587 645 616 645 c 0
 644 645 684 646 723 647 c 1
 729 641 729 619 723 613 c 1
 664 607 646 605 646 522 c 2
 646 295 l 2
 646 117 581 -10 376 -10 c 0
 329 -10 237 -9 174 32 c 0
 118 69 87 139 87 236 c 2
 87 522 l 2
 87 605 70 610 10 613 c 1
 4 619 4 641 10 647 c 1
 60 646 111 645 156 645 c 0
 204 645 270 646 319 647 c 1
 325 641 325 619 319 613 c 1
 242 610 227 605 227 522 c 2
524 724 m 1
 524 714 517 702 508 698 c 1
 469 710 411 733 384 754 c 1
 354 732 298 709 261 698 c 1
 252 702 247 715 247 725 c 1
 289 752 339 794 374 829 c 1
 388 834 l 1
 425 797 484 750 524 724 c 1
EndSplineSet
MultipleSubs2: "'c2sc' Capitals to Small Capitals lookup 12 subtable" ucircumflex.sc
Position2: "'cpsp' Capital Spacing lookup 3 per glyph data 0" dx=2 dy=0 dh=5 dv=0
EndChar

StartChar: Udieresis
Encoding: 220 220 156
Width: 732
GlyphClass: 2
Flags: MW
HStem: -10 42<373 478.5> 613 34<10 10 319 319 489 489 723 723> 711 113<286 318 474 506>
VStem: 87 140<236.5 269 269 522> 246 112<751 783> 433 112<751 783> 581 65<277 295 295 522>
LayerCount: 2
Fore
SplineSet
227 522 m 2
 227 269 l 2
 227 204 229 129 278 82 c 0
 308 53 349 32 397 32 c 0
 566 32 581 165 581 277 c 2
 581 522 l 2
 581 605 565 607 489 613 c 1
 483 619 483 641 489 647 c 1
 535 646 587 645 616 645 c 0
 644 645 684 646 723 647 c 1
 729 641 729 619 723 613 c 1
 664 607 646 605 646 522 c 2
 646 295 l 2
 646 117 581 -10 376 -10 c 0
 329 -10 237 -9 174 32 c 0
 118 69 87 139 87 236 c 2
 87 522 l 2
 87 605 70 610 10 613 c 1
 4 619 4 641 10 647 c 1
 60 646 111 645 156 645 c 0
 204 645 270 646 319 647 c 1
 325 641 325 619 319 613 c 1
 242 610 227 605 227 522 c 2
433 767 m 0
 433 799 458 824 490 824 c 0
 522 824 545 799 545 767 c 0
 545 735 522 711 490 711 c 0
 458 711 433 735 433 767 c 0
246 767 m 0
 246 799 270 824 302 824 c 0
 334 824 358 799 358 767 c 0
 358 735 334 711 302 711 c 0
 270 711 246 735 246 767 c 0
EndSplineSet
Substitution2: "'ss01' Style Set 1 lookup 39 subtable" Udieresis.alt
MultipleSubs2: "'c2sc' Capitals to Small Capitals lookup 12 subtable" udieresis.sc
Position2: "'cpsp' Capital Spacing lookup 3 per glyph data 0" dx=2 dy=0 dh=5 dv=0
EndChar

StartChar: Yacute
Encoding: 221 221 157
Width: 653
GlyphClass: 2
Flags: MW
HStem: -2 34<150 150 484 484> 613 34<6 6 271 271 415 415 619 619>
VStem: 247 140<122 259 259 268> 471 153
AnchorPoint: "Anchor-0" 344 894 basechar 0
LayerCount: 2
Fore
SplineSet
387 122 m 2
 387 39 404 35 484 32 c 1
 490 26 490 4 484 -2 c 1
 434 -1 380 0 325 0 c 0
 257 0 199 -1 150 -2 c 1
 144 4 144 26 150 32 c 1
 230 35 247 39 247 122 c 2
 247 259 l 2
 247 296 245 303 227 332 c 2
 100 547 l 2
 67 603 48 610 6 613 c 1
 0 619 -1 641 5 647 c 1
 35 646 108 645 147 645 c 0
 187 645 231 646 271 647 c 1
 277 641 277 619 271 613 c 1
 215 610 215 595 236 557 c 2
 340 373 l 2
 349 357 356 357 363 370 c 2
 466 564 l 2
 482 594 459 610 415 613 c 1
 409 619 409 641 415 647 c 1
 455 646 503 645 526 645 c 0
 549 645 589 646 619 647 c 1
 625 641 625 619 619 613 c 1
 574 609 555 603 532 565 c 2
 404 351 l 2
 391 329 387 308 387 268 c 2
 387 122 l 2
413 833 m 1
 438 821 465 799 478 778 c 1
 475 766 l 1
 331 708 l 2
 317 702 305 701 296 701 c 0
 287 701 276 708 276 716 c 0
 276 723 276 729 286 737 c 0
 307 755 373 805 413 833 c 1
EndSplineSet
MultipleSubs2: "'c2sc' Capitals to Small Capitals lookup 12 subtable" yacute.sc
Position2: "'cpsp' Capital Spacing lookup 3 per glyph data 0" dx=2 dy=0 dh=5 dv=0
EndChar

StartChar: Thorn
Encoding: 222 222 158
Width: 616
GlyphClass: 2
Flags: MW
HStem: -2 193 150 41<322 358 305 427.5> 482 41<343.5 370> 482 165
VStem: 24 7 114 140<122 156 194 478 521 523> 337 8 431 151<305.5 378.5 305.5 387>
AnchorPoint: "Anchor-0" 281 850 basechar 0
LayerCount: 2
Fore
SplineSet
114 523 m 2x9f
 114 606 86 610 31 613 c 1
 21 619 21 641 31 647 c 1
 71 646 145 645 185 645 c 0
 225 645 297 646 337 647 c 1
 347 641 347 619 337 613 c 1x9f
 282 610 254 606 254 523 c 2
 254 521 l 1
 291 523 335 523 352 523 c 0
 537 523 582 414 582 343 c 0
 582 268 516 150 339 150 c 0
 305 150 271 151 254 156 c 1
 254 122 l 2x6f
 254 39 282 35 337 32 c 1
 347 26 347 4 337 -2 c 1
 297 -1 225 0 185 0 c 0
 145 0 71 -1 31 -2 c 1
 21 4 21 26 31 32 c 1
 86 35 114 39 114 122 c 2
 114 523 l 2x9f
254 194 m 1
 265 193 288 191 322 191 c 0
 394 191 431 234 431 343 c 0
 431 431 400 482 340 482 c 0
 322 482 277 478 254 478 c 1
 254 194 l 1
EndSplineSet
MultipleSubs2: "'c2sc' Capitals to Small Capitals lookup 12 subtable" thorn.sc
Position2: "'cpsp' Capital Spacing lookup 3 per glyph data 0" dx=2 dy=0 dh=5 dv=0
EndChar

StartChar: germandbls
Encoding: 223 223 159
Width: 615
GlyphClass: 2
Flags: MW
HStem: -10 42<394 417 394 449> -2 148 386.5 47.5 656 42<306 352.5>
VStem: 100 130<126 128 128 368 368 374> 286 78<47 107> 286 93<96 107> 386 135<557 584> 432 142<130.5 202.5>
LayerCount: 2
Fore
SplineSet
100 126 m 2xb880
 100 368 l 2
 100 380 99 382 85 384 c 2
 41 389 l 2
 35 390 30 390 30 394 c 2
 30 414 l 2
 30 422 41 434 58 434 c 0
 89 434 100 455 100 482 c 0
 100 646 267 698 345 698 c 0
 384 698 430 692 456 678 c 0
 499 655 521 607 521 577 c 0
 521 537 504 495 476 467 c 0xb9
 450 441 415 427 380 411 c 1
 380 409 l 1
 477 376 574 289 574 173 c 0
 574 68 495 -10 403 -10 c 0xba80
 320 -10 286 45 286 98 c 0
 286 116 302 146 330 146 c 0
 354 146 379 130 379 106 c 0x7a80
 379 86 364 75 364 53 c 0
 364 41 385 32 403 32 c 0
 431 32 432 105 432 156 c 0xbc80
 432 249 403 322 319 386 c 1
 319 409 l 1
 386 461 386 491 386 564 c 0
 386 604 379 656 326 656 c 0
 254 656 230 555 230 447 c 2
 230 128 l 2
 230 44 246 36 257 32 c 0
 263 26 263 4 257 -2 c 1
 234 0 201 0 165 0 c 0
 110 0 65 -1 23 -2 c 1
 17 4 17 26 23 32 c 1x79
 84 35 100 44 100 126 c 2xb880
EndSplineSet
Substitution2: "'ss03' Style Set 3 lookup 41 subtable" germandbls.ss03
AlternateSubs2: "'salt' Stylistic Alternatives lookup 20 subtable" germandbls.ss03 germandbls.alt
MultipleSubs2: "'smcp' Lowercase to Small Capitals lookup 10 subtable" germandbls.sc
EndChar

StartChar: agrave
Encoding: 224 224 160
Width: 506
GlyphClass: 2
Flags: MW
HStem: -10 60<125.5 231> -10 70<351 453.5> 402 42<210.5 234>
VStem: 44 120<94.5 128.5 94.5 134.5> 62 110 290 128<86 343 218 343 271 320.5>
AnchorPoint: "Anchor-0" 255 834 basechar 0
LayerCount: 2
Fore
SplineSet
295 49 m 1xb4
 289 48 l 1
 256 22 198 -10 169 -10 c 0
 82 -10 44 26 44 95 c 0xb4
 44 174 118 203 223 236 c 2
 290 257 l 1
 290 384 255 402 213 402 c 0
 180 402 172 390 171 379 c 0
 169 369 171 359 173 349 c 0
 174 343 175 337 175 332 c 0
 175 308 149 286 113 286 c 0
 74 286 62 308 62 336 c 0
 62 402 174 444 247 444 c 0
 329 444 418 415 418 271 c 2
 416 127 l 2
 416 78 422 60 444 60 c 0
 463 60 473 64 486 74 c 1x6c
 498 66 502 58 504 46 c 1
 467 11 428 -10 373 -10 c 0
 329 -10 302 8 295 49 c 1xb4
290 218 m 1
 238 201 l 2
 167 178 164 147 164 110 c 0
 164 79 179 50 222 50 c 0
 240 50 265 66 290 86 c 1
 290 218 l 1
216 674 m 2
 285 550 l 2
 289 543 294 532 294 524 c 0
 294 515 286 508 277 508 c 0
 269 508 259 513 242 528 c 2
 121 633 l 1
 123 644 l 1
 131 653 160 676 196 676 c 0
 201 676 212 675 216 674 c 2
EndSplineSet
MultipleSubs2: "'smcp' Lowercase to Small Capitals lookup 10 subtable" agrave.sc
EndChar

StartChar: aacute
Encoding: 225 225 161
Width: 506
GlyphClass: 2
Flags: MW
HStem: -10 60<125.5 231> -10 70<351 453.5> 402 42<210.5 234>
VStem: 44 120<94.5 128.5 94.5 134.5> 62 110 290 128<86 343 218 343 271 320.5>
AnchorPoint: "Anchor-0" 255 834 basechar 0
LayerCount: 2
Fore
SplineSet
295 49 m 1xb4
 289 48 l 1
 256 22 198 -10 169 -10 c 0
 82 -10 44 26 44 95 c 0xb4
 44 174 118 203 223 236 c 2
 290 257 l 1
 290 384 255 402 213 402 c 0
 180 402 172 390 171 379 c 0
 169 369 171 359 173 349 c 0
 174 343 175 337 175 332 c 0
 175 308 149 286 113 286 c 0
 74 286 62 308 62 336 c 0
 62 402 174 444 247 444 c 0
 329 444 418 415 418 271 c 2
 416 127 l 2
 416 78 422 60 444 60 c 0
 463 60 473 64 486 74 c 1x6c
 498 66 502 58 504 46 c 1
 467 11 428 -10 373 -10 c 0
 329 -10 302 8 295 49 c 1xb4
290 218 m 1
 238 201 l 2
 167 178 164 147 164 110 c 0
 164 79 179 50 222 50 c 0
 240 50 265 66 290 86 c 1
 290 218 l 1
256 674 m 2
 259 675 267 676 272 676 c 0
 302 676 321 662 329 652 c 2
 339 629 l 1
 219 521 l 2
 205 509 191 505 181 505 c 0
 173 505 165 513 165 519 c 0
 165 525 167 534 173 543 c 2
 256 674 l 2
EndSplineSet
MultipleSubs2: "'smcp' Lowercase to Small Capitals lookup 10 subtable" aacute.sc
EndChar

StartChar: acircumflex
Encoding: 226 226 162
Width: 506
GlyphClass: 2
Flags: MW
HStem: -10 60<125.5 231> -10 70<351 453.5> 402 42<210.5 234>
VStem: 44 120<94.5 128.5 94.5 134.5> 62 110 290 128<86 343 218 343 271 320.5>
AnchorPoint: "Anchor-0" 214 834 basechar 0
LayerCount: 2
Fore
SplineSet
295 49 m 1xb4
 289 48 l 1
 256 22 198 -10 169 -10 c 0
 82 -10 44 26 44 95 c 0xb4
 44 174 118 203 223 236 c 2
 290 257 l 1
 290 384 255 402 213 402 c 0
 180 402 172 390 171 379 c 0
 169 369 171 359 173 349 c 0
 174 343 175 337 175 332 c 0
 175 308 149 286 113 286 c 0
 74 286 62 308 62 336 c 0
 62 402 174 444 247 444 c 0
 329 444 418 415 418 271 c 2
 416 127 l 2
 416 78 422 60 444 60 c 0
 463 60 473 64 486 74 c 1x6c
 498 66 502 58 504 46 c 1
 467 11 428 -10 373 -10 c 0
 329 -10 302 8 295 49 c 1xb4
269 663 m 1
 299 614 337 570 374 529 c 1
 349 510 l 1
 306 536 277 556 242 593 c 1
 204 554 176 536 136 510 c 1
 111 529 l 1
 147 570 187 615 217 663 c 1
 269 663 l 1
290 218 m 1
 238 201 l 2
 167 178 164 147 164 110 c 0
 164 79 179 50 222 50 c 0
 240 50 265 66 290 86 c 1
 290 218 l 1
EndSplineSet
MultipleSubs2: "'smcp' Lowercase to Small Capitals lookup 10 subtable" acircumflex.sc
EndChar

StartChar: atilde
Encoding: 227 227 163
Width: 506
GlyphClass: 2
Flags: MW
HStem: -10 60<125.5 231> -10 70<351 453.5> 402 42<210.5 234> 519 70<292.5 302.5> 557 71<151.5 170>
VStem: 44 120<94.5 128.5 94.5 134.5> 62 110 290 128<86 343 218 343 271 320.5>
AnchorPoint: "Anchor-0" 255 834 basechar 0
LayerCount: 2
Fore
SplineSet
295 49 m 1xad
 289 48 l 1
 256 22 198 -10 169 -10 c 0
 82 -10 44 26 44 95 c 0xb5
 44 174 118 203 223 236 c 2
 290 257 l 1
 290 384 255 402 213 402 c 0
 180 402 172 390 171 379 c 0
 169 369 171 359 173 349 c 0
 174 343 175 337 175 332 c 0
 175 308 149 286 113 286 c 0
 74 286 62 308 62 336 c 0
 62 402 174 444 247 444 c 0
 329 444 418 415 418 271 c 2
 416 127 l 2
 416 78 422 60 444 60 c 0
 463 60 473 64 486 74 c 1x6b
 498 66 502 58 504 46 c 1
 467 11 428 -10 373 -10 c 0
 329 -10 302 8 295 49 c 1xad
298 589 m 0
 312 589 333 596 347 632 c 1
 361 632 375 624 375 612 c 0
 358 554 321 519 284 519 c 0xb5
 261 519 239 525 219 540 c 0
 199 553 179 557 161 557 c 0
 139 557 123 555 112 517 c 1
 100 517 86 521 86 535 c 1
 102 586 134 628 169 628 c 0xad
 200 628 223 619 243 603 c 0
 261 589 287 589 298 589 c 0
290 218 m 1xad
 238 201 l 2
 167 178 164 147 164 110 c 0
 164 79 179 50 222 50 c 0
 240 50 265 66 290 86 c 1
 290 218 l 1xad
EndSplineSet
MultipleSubs2: "'smcp' Lowercase to Small Capitals lookup 10 subtable" atilde.sc
EndChar

StartChar: adieresis
Encoding: 228 228 164
Width: 506
GlyphClass: 2
Flags: MW
HStem: -10 60<125.5 231> -10 70<351 453.5> 402 42<210.5 234> 519 109<130 160.5 315.5 346>
VStem: 44 120<94.5 128.5 94.5 134.5> 62 110 90 110<558 588.5> 276 110<558 588.5> 290 128<86 343 218 343 271 320.5>
AnchorPoint: "Anchor-0" 255 834 basechar 0
LayerCount: 2
Fore
SplineSet
295 49 m 1xb880
 289 48 l 1
 256 22 198 -10 169 -10 c 0
 82 -10 44 26 44 95 c 0xb880
 44 174 118 203 223 236 c 2
 290 257 l 1
 290 384 255 402 213 402 c 0
 180 402 172 390 171 379 c 0
 169 369 171 359 173 349 c 0
 174 343 175 337 175 332 c 0
 175 308 149 286 113 286 c 0
 74 286 62 308 62 336 c 0
 62 402 174 444 247 444 c 0
 329 444 418 415 418 271 c 2
 416 127 l 2
 416 78 422 60 444 60 c 0
 463 60 473 64 486 74 c 1x7480
 498 66 502 58 504 46 c 1
 467 11 428 -10 373 -10 c 0
 329 -10 302 8 295 49 c 1xb880
290 218 m 1
 238 201 l 2
 167 178 164 147 164 110 c 0
 164 79 179 50 222 50 c 0
 240 50 265 66 290 86 c 1
 290 218 l 1
90 573 m 0xb3
 90 604 115 628 145 628 c 0
 176 628 200 604 200 573 c 0
 200 543 176 519 145 519 c 0
 115 519 90 543 90 573 c 0xb3
276 573 m 0
 276 604 300 628 331 628 c 0
 361 628 386 604 386 573 c 0
 386 543 361 519 331 519 c 0
 300 519 276 543 276 573 c 0
EndSplineSet
MultipleSubs2: "'smcp' Lowercase to Small Capitals lookup 10 subtable" adieresis.sc
EndChar

StartChar: aring
Encoding: 229 229 165
Width: 506
GlyphClass: 2
Flags: MW
HStem: -10 60<125.5 231> -10 70<351 453.5> 402 42<210.5 234> 499 34<207.5 236.5 207.5 245.5> 631 34<208 235.5>
VStem: 44 120<94.5 128.5 94.5 134.5> 62 110 137 38<569 596> 270 38<569 596.5> 290 128<86 343 218 343 271 320.5>
AnchorPoint: "Anchor-0" 224 834 basechar 0
LayerCount: 2
Fore
SplineSet
295 49 m 1xb940
 289 48 l 1
 256 22 198 -10 169 -10 c 0
 82 -10 44 26 44 95 c 0xbc40
 44 174 118 203 223 236 c 2
 290 257 l 1
 290 384 255 402 213 402 c 0
 180 402 172 390 171 379 c 0
 169 369 171 359 173 349 c 0
 174 343 175 337 175 332 c 0
 175 308 149 286 113 286 c 0
 74 286 62 308 62 336 c 0
 62 402 174 444 247 444 c 0
 329 444 418 415 418 271 c 2
 416 127 l 2
 416 78 422 60 444 60 c 0
 463 60 473 64 486 74 c 1x7a40
 498 66 502 58 504 46 c 1
 467 11 428 -10 373 -10 c 0
 329 -10 302 8 295 49 c 1xb940
137 582 m 0xb980
 137 628 175 665 222 665 c 0
 267 665 308 629 308 582 c 0
 308 537 269 499 222 499 c 0
 176 499 137 536 137 582 c 0xb980
290 218 m 1xbc40
 238 201 l 2
 167 178 164 147 164 110 c 0
 164 79 179 50 222 50 c 0
 240 50 265 66 290 86 c 1
 290 218 l 1xbc40
222 631 m 0xb980
 194 631 175 610 175 582 c 0
 175 556 193 533 222 533 c 0
 251 533 270 556 270 582 c 0
 270 611 249 631 222 631 c 0xb980
EndSplineSet
MultipleSubs2: "'smcp' Lowercase to Small Capitals lookup 10 subtable" aring.sc
EndChar

StartChar: ae
Encoding: 230 230 166
Width: 715
GlyphClass: 2
Flags: MW
HStem: -10 50<187.5 196> -10 81<493.5 541.5> 217 38 402 42<199.5 241.5 484.5 530>
VStem: 37 114<104.5 133.5 104.5 140.5> 53 102<361 369> 291 125 291 127 579 105<284.5 313.5>
AnchorPoint: "Anchor-4" 604 30 basechar 0
AnchorPoint: "Anchor-2" 327 -109 basechar 0
AnchorPoint: "Anchor-0" 332 644 basechar 0
LayerCount: 2
Fore
SplineSet
524 71 m 0x7a80
 562 71 628 87 669 129 c 1
 679 129 684 111 684 98 c 1
 634 25 576 -10 507 -10 c 0
 459 -10 413 -1 386 18 c 0
 367 32 348 43 337 67 c 1
 293 12 210 -10 182 -10 c 0
 142 -10 110 -6 84 12 c 0
 58 30 37 63 37 99 c 0x7a80
 37 182 124 234 291 248 c 1
 291 353 265 402 218 402 c 0
 181 402 155 393 155 371 c 0
 155 351 162 340 162 328 c 0
 162 314 150 287 105 287 c 0
 70 287 53 313 53 339 c 0x7680
 53 399 148 444 220 444 c 0
 273 444 342 428 368 374 c 1
 408 431 456 444 513 444 c 0
 662 444 684 357 684 295 c 0
 684 274 681 264 680 246 c 1
 639 219 523 219 416 217 c 1
 417 116 463 71 524 71 c 0x7a80
284 93 m 0xba80
 291 107 290 162 291 209 c 1
 196 197 151 156 151 111 c 0
 151 98 152 82 156 72 c 0
 163 51 178 40 197 40 c 0
 221 40 264 52 284 93 c 0xba80
502 402 m 0x7980
 450 402 427 334 418 255 c 1
 488 260 559 260 579 283 c 1
 579 344 558 402 502 402 c 0x7980
EndSplineSet
MultipleSubs2: "'smcp' Lowercase to Small Capitals lookup 10 subtable" ae.sc
EndChar

StartChar: ccedilla
Encoding: 231 231 167
Width: 456
GlyphClass: 2
Flags: MW
HStem: -215 29<202 227 202 240.5> -10 72<245 320.5 245 320.5> 402 42<223.5 268.5>
VStem: 37 135<176 275> 262 63<-150 -126>
AnchorPoint: "Anchor-0" 255 834 basechar 0
LayerCount: 2
Fore
SplineSet
173 -101 m 1
 167 -95 l 1
 211 -8 l 1
 164 -2 130 13 99 42 c 0
 60 79 37 136 37 201 c 0
 37 349 141 444 259 444 c 0
 368 444 422 385 422 340 c 0
 422 309 399 284 367 284 c 0
 335 284 308 304 305 331 c 0
 302 363 287 402 250 402 c 0
 197 402 172 347 172 236 c 0
 172 116 231 62 306 62 c 0
 335 62 369 81 409 118 c 1
 420 118 422 99 422 87 c 1
 384 32 315 -10 255 -10 c 2
 245 -10 l 1
 232 -41 l 1
 277 -50 325 -70 325 -125 c 0
 325 -175 273 -215 208 -215 c 0
 176 -215 167 -210 144 -198 c 1
 144 -188 145 -176 154 -172 c 1
 181 -182 192 -186 212 -186 c 0
 242 -186 262 -172 262 -145 c 0
 262 -107 209 -103 173 -101 c 1
EndSplineSet
MultipleSubs2: "'smcp' Lowercase to Small Capitals lookup 10 subtable" ccedilla.sc
EndChar

StartChar: egrave
Encoding: 232 232 168
Width: 489
GlyphClass: 2
Flags: MW
HStem: -10 86<259 293.5> 235 40<177 313 177 413 173 313> 402 42<245.5 264.5>
VStem: 37 135<170 222.5 170 274.5> 37 140<169 275> 315 127<293 308.5 259 336>
AnchorPoint: "Anchor-0" 255 834 basechar 0
LayerCount: 2
Fore
SplineSet
431 129 m 1xec
 441 129 446 111 446 98 c 1
 396 25 328 -10 259 -10 c 0
 188 -10 139 6 101 40 c 0
 58 79 37 140 37 198 c 0xec
 37 351 157 444 262 444 c 0
 409 444 442 351 442 266 c 0
 442 252 437 235 413 235 c 2
 173 235 l 1
 173 230 172 226 172 219 c 0xf4
 172 121 220 76 298 76 c 0
 336 76 390 87 431 129 c 1xec
177 275 m 1
 313 275 l 2
 315 277 315 290 315 296 c 0
 315 376 278 402 251 402 c 0
 240 402 213 392 197 368 c 0
 183 348 178 310 177 275 c 1
230 674 m 2
 299 550 l 2
 303 543 308 532 308 524 c 0
 308 515 300 508 291 508 c 0
 283 508 273 513 256 528 c 2
 135 633 l 1
 137 644 l 1
 145 653 174 676 210 676 c 0
 215 676 226 675 230 674 c 2
EndSplineSet
MultipleSubs2: "'smcp' Lowercase to Small Capitals lookup 10 subtable" egrave.sc
EndChar

StartChar: eacute
Encoding: 233 233 169
Width: 489
GlyphClass: 2
Flags: MW
HStem: -10 86<259 293.5> 235 40<177 313 177 413 173 313> 402 42<245.5 264.5>
VStem: 37 135<170 222.5 170 274.5> 37 140<169 275> 315 127<293 308.5 259 336>
AnchorPoint: "Anchor-0" 255 834 basechar 0
LayerCount: 2
Fore
SplineSet
431 129 m 1xec
 441 129 446 111 446 98 c 1
 396 25 328 -10 259 -10 c 0
 188 -10 139 6 101 40 c 0
 58 79 37 140 37 198 c 0xec
 37 351 157 444 262 444 c 0
 409 444 442 351 442 266 c 0
 442 252 437 235 413 235 c 2
 173 235 l 1
 173 230 172 226 172 219 c 0xf4
 172 121 220 76 298 76 c 0
 336 76 390 87 431 129 c 1xec
177 275 m 1
 313 275 l 2
 315 277 315 290 315 296 c 0
 315 376 278 402 251 402 c 0
 240 402 213 392 197 368 c 0
 183 348 178 310 177 275 c 1
282 674 m 2
 285 675 293 676 298 676 c 0
 328 676 347 662 355 652 c 2
 365 629 l 1
 245 521 l 2
 231 509 217 505 207 505 c 0
 199 505 191 513 191 519 c 0
 191 525 193 534 199 543 c 2
 282 674 l 2
EndSplineSet
MultipleSubs2: "'smcp' Lowercase to Small Capitals lookup 10 subtable" eacute.sc
EndChar

StartChar: ecircumflex
Encoding: 234 234 170
Width: 489
GlyphClass: 2
Flags: MW
HStem: -10 86<259 293.5> 235 40<177 313 177 413 173 313> 402 42<245.5 264.5>
VStem: 37 135<170 222.5 170 274.5> 37 140<169 275> 315 127<293 308.5 259 336>
AnchorPoint: "Anchor-0" 255 834 basechar 0
LayerCount: 2
Fore
SplineSet
431 129 m 1xec
 441 129 446 111 446 98 c 1
 396 25 328 -10 259 -10 c 0
 188 -10 139 6 101 40 c 0
 58 79 37 140 37 198 c 0xec
 37 351 157 444 262 444 c 0
 409 444 442 351 442 266 c 0
 442 252 437 235 413 235 c 2
 173 235 l 1
 173 230 172 226 172 219 c 0xf4
 172 121 220 76 298 76 c 0
 336 76 390 87 431 129 c 1xec
269 663 m 1
 299 614 337 570 374 529 c 1
 349 510 l 1
 306 536 277 556 242 593 c 1
 204 554 176 536 136 510 c 1
 111 529 l 1
 147 570 187 615 217 663 c 1
 269 663 l 1
177 275 m 1
 313 275 l 2
 315 277 315 290 315 296 c 0
 315 376 278 402 251 402 c 0
 240 402 213 392 197 368 c 0
 183 348 178 310 177 275 c 1
EndSplineSet
MultipleSubs2: "'smcp' Lowercase to Small Capitals lookup 10 subtable" ecircumflex.sc
EndChar

StartChar: edieresis
Encoding: 235 235 171
Width: 489
GlyphClass: 2
Flags: MW
HStem: -6 86<259 293.5> 239 40<177 313 177 413 173 313> 406 42<245.5 264.5> 519 109<136 166.5 321.5 352>
VStem: 37 135<174 226.5 174 278.5> 37 140<173 279> 96 110<558 588.5> 282 110<558 588.5> 315 127<297 312.5 263 340>
AnchorPoint: "Anchor-0" 255 834 basechar 0
LayerCount: 2
Fore
SplineSet
431 133 m 1xf480
 441 133 446 115 446 102 c 1
 396 29 328 -6 259 -6 c 0
 188 -6 139 10 101 44 c 0
 58 83 37 144 37 202 c 0xf480
 37 355 157 448 262 448 c 0
 409 448 442 355 442 270 c 0
 442 256 437 239 413 239 c 2
 173 239 l 1
 173 234 172 230 172 223 c 0xf880
 172 125 220 80 298 80 c 0
 336 80 390 91 431 133 c 1xf480
177 279 m 1
 313 279 l 2
 315 281 315 294 315 300 c 0
 315 380 278 406 251 406 c 0
 240 406 213 396 197 372 c 0
 183 352 178 314 177 279 c 1
96 573 m 0xf3
 96 604 121 628 151 628 c 0
 182 628 206 604 206 573 c 0
 206 543 182 519 151 519 c 0
 121 519 96 543 96 573 c 0xf3
282 573 m 0
 282 604 306 628 337 628 c 0
 367 628 392 604 392 573 c 0
 392 543 367 519 337 519 c 0
 306 519 282 543 282 573 c 0
EndSplineSet
MultipleSubs2: "'smcp' Lowercase to Small Capitals lookup 10 subtable" edieresis.sc
EndChar

StartChar: igrave
Encoding: 236 236 172
Width: 322
GlyphClass: 2
Flags: MW
HStem: -2 21G 424 20G<213 220>
VStem: 102 130<122 314 314 321>
AnchorPoint: "Anchor-0" 255 834 basechar 0
LayerCount: 2
Fore
SplineSet
232 122 m 2
 232 39 243 36 304 32 c 1
 310 26 310 4 304 -2 c 1
 261 -1 220 0 167 0 c 0
 114 0 72 -1 30 -2 c 1
 24 4 24 26 30 32 c 1
 91 37 102 39 102 122 c 2
 102 314 l 2
 102 371 92 379 37 384 c 1
 35 390 33 410 35 416 c 1
 104 425 185 433 213 444 c 1
 227 444 236 438 236 427 c 2
 236 427 232 371 232 321 c 2
 232 122 l 2
119 674 m 2
 188 550 l 2
 192 543 197 532 197 524 c 0
 197 515 189 508 180 508 c 0
 172 508 162 513 145 528 c 2
 24 633 l 1
 26 644 l 1
 34 653 63 676 99 676 c 0
 104 676 115 675 119 674 c 2
EndSplineSet
MultipleSubs2: "'smcp' Lowercase to Small Capitals lookup 10 subtable" igrave.sc
EndChar

StartChar: iacute
Encoding: 237 237 173
Width: 322
GlyphClass: 2
Flags: MW
HStem: -2 21G 424 20G<213 220>
VStem: 102 130<122 314 314 321>
AnchorPoint: "Anchor-0" 255 834 basechar 0
LayerCount: 2
Fore
SplineSet
232 122 m 2
 232 39 243 36 304 32 c 1
 310 26 310 4 304 -2 c 1
 261 -1 220 0 167 0 c 0
 114 0 72 -1 30 -2 c 1
 24 4 24 26 30 32 c 1
 91 37 102 39 102 122 c 2
 102 314 l 2
 102 371 92 379 37 384 c 1
 35 390 33 410 35 416 c 1
 104 425 185 433 213 444 c 1
 227 444 236 438 236 427 c 2
 236 427 232 371 232 321 c 2
 232 122 l 2
175 674 m 2
 178 675 186 676 191 676 c 0
 221 676 240 662 248 652 c 2
 258 629 l 1
 138 521 l 2
 124 509 110 505 100 505 c 0
 92 505 84 513 84 519 c 0
 84 525 86 534 92 543 c 2
 175 674 l 2
EndSplineSet
MultipleSubs2: "'smcp' Lowercase to Small Capitals lookup 10 subtable" iacute.sc
EndChar

StartChar: icircumflex
Encoding: 238 238 174
Width: 322
GlyphClass: 2
Flags: MW
HStem: -2 21G 424 20G<213 220>
VStem: 102 130<122 314 314 321>
AnchorPoint: "Anchor-0" 255 834 basechar 0
LayerCount: 2
Fore
SplineSet
232 122 m 2
 232 39 243 36 304 32 c 1
 310 26 310 4 304 -2 c 1
 261 -1 220 0 167 0 c 0
 114 0 72 -1 30 -2 c 1
 24 4 24 26 30 32 c 1
 91 37 102 39 102 122 c 2
 102 314 l 2
 102 371 92 379 37 384 c 1
 35 390 33 410 35 416 c 1
 104 425 185 433 213 444 c 1
 227 444 236 438 236 427 c 2
 236 427 232 371 232 321 c 2
 232 122 l 2
179 663 m 1
 209 614 247 570 284 529 c 1
 259 510 l 1
 216 536 187 556 152 593 c 1
 114 554 86 536 46 510 c 1
 21 529 l 1
 57 570 97 615 127 663 c 1
 179 663 l 1
EndSplineSet
MultipleSubs2: "'smcp' Lowercase to Small Capitals lookup 10 subtable" icircumflex.sc
EndChar

StartChar: idieresis
Encoding: 239 239 175
Width: 322
GlyphClass: 2
Flags: MW
HStem: -2 21G 424 20G<213 220> 519 109<43 73.5 228.5 259>
VStem: 3 110<558 588.5> 102 130<122 314 314 321> 189 110<558 588.5>
AnchorPoint: "Anchor-0" 137 795 basechar 0
LayerCount: 2
Fore
SplineSet
232 122 m 2xe8
 232 39 243 36 304 32 c 1
 310 26 310 4 304 -2 c 1
 261 -1 220 0 167 0 c 0
 114 0 72 -1 30 -2 c 1
 24 4 24 26 30 32 c 1
 91 37 102 39 102 122 c 2
 102 314 l 2
 102 371 92 379 37 384 c 1
 35 390 33 410 35 416 c 1
 104 425 185 433 213 444 c 1
 227 444 236 438 236 427 c 2
 236 427 232 371 232 321 c 2
 232 122 l 2xe8
3 573 m 0xf4
 3 604 28 628 58 628 c 0
 89 628 113 604 113 573 c 0
 113 543 89 519 58 519 c 0
 28 519 3 543 3 573 c 0xf4
189 573 m 0
 189 604 213 628 244 628 c 0
 274 628 299 604 299 573 c 0
 299 543 274 519 244 519 c 0
 213 519 189 543 189 573 c 0
EndSplineSet
MultipleSubs2: "'smcp' Lowercase to Small Capitals lookup 10 subtable" idieresis.sc
EndChar

StartChar: eth
Encoding: 240 240 176
Width: 559
GlyphClass: 2
Flags: MW
HStem: -10 42<256.5 300.5> 402 42<261.5 294 261.5 298.5> 419 20G 580 20G<323 323> 678 20G<170 170>
VStem: 35 140<171.5 249.5> 376 140<197.5 248>
LayerCount: 2
Fore
SplineSet
35 209 m 0xde
 35 290 69 345 115 382 c 0
 168 425 237 444 286 444 c 0xde
 302 444 320 442 337 439 c 1xbe
 317 485 289 526 258 557 c 1
 224 533 179 503 148 483 c 1
 124 519 l 1
 229 589 l 1
 202 616 172 645 145 664 c 1
 170 698 l 1
 217 673 257 650 286 627 c 1
 320 651 367 681 398 702 c 1
 422 666 l 1
 323 600 l 1
 365 562 418 515 453 462 c 0
 494 400 516 324 516 239 c 0
 516 156 493 93 449 52 c 0
 402 9 332 -10 269 -10 c 0
 131 -10 35 105 35 209 c 0xde
285 32 m 0
 323 32 376 67 376 225 c 0
 376 271 371 320 365 361 c 1
 343 385 313 402 284 402 c 0
 201 402 175 300 175 227 c 0
 175 116 228 32 285 32 c 0
EndSplineSet
MultipleSubs2: "'smcp' Lowercase to Small Capitals lookup 10 subtable" eth.sc
EndChar

StartChar: ntilde
Encoding: 241 241 177
Width: 616
GlyphClass: 2
Flags: MW
HStem: -2 21G 370 74 519 70<355.5 365.5> 557 71<214.5 233>
VStem: 98 130<122 309 309 323> 396 130<128 284>
AnchorPoint: "Anchor-0" 255 834 basechar 0
LayerCount: 2
Fore
SplineSet
228 122 m 2xdc
 228 39 238 36 280 32 c 1
 286 26 286 4 280 -2 c 1
 237 -1 209 0 163 0 c 0
 110 0 68 -1 26 -2 c 1
 20 4 20 26 26 32 c 1
 87 37 98 39 98 122 c 2
 98 309 l 2
 98 366 88 374 33 379 c 1
 31 385 29 405 31 411 c 1
 100 420 160 434 197 444 c 0
 211 444 219 439 220 427 c 2
 220 427 224 397 227 362 c 1
 282 400 353 444 393 444 c 0
 479 444 526 394 526 284 c 2
 526 128 l 2
 526 44 542 35 603 32 c 1
 609 26 609 4 603 -2 c 1
 560 -1 516 0 461 0 c 0
 413 0 381 -1 339 -2 c 1
 333 4 333 26 339 32 c 1
 380 35 396 44 396 128 c 2
 396 295 l 2
 396 352 366 370 326 370 c 0
 308 370 268 350 228 323 c 1
 228 122 l 2xdc
361 589 m 0xec
 375 589 396 596 410 632 c 1
 424 632 438 624 438 612 c 0
 421 554 384 519 347 519 c 0xec
 324 519 302 525 282 540 c 0
 262 553 242 557 224 557 c 0
 202 557 186 555 175 517 c 1
 163 517 149 521 149 535 c 1
 165 586 197 628 232 628 c 0xdc
 263 628 286 619 306 603 c 0
 324 589 350 589 361 589 c 0xec
EndSplineSet
MultipleSubs2: "'smcp' Lowercase to Small Capitals lookup 10 subtable" ntilde.sc
EndChar

StartChar: ograve
Encoding: 242 242 178
Width: 551
GlyphClass: 2
Flags: MW
HStem: -10 42<250 309 250 310.5> 402 42<234.5 294>
VStem: 37 140<192 236.5> 374 140<188 252.5>
AnchorPoint: "Anchor-5" 241 -3 basechar 0
AnchorPoint: "Anchor-4" 372 44 basechar 0
AnchorPoint: "Anchor-2" 243 -110 basechar 0
AnchorPoint: "Anchor-1" 420 396 basechar 0
AnchorPoint: "Anchor-0" 255 834 basechar 0
LayerCount: 2
Fore
SplineSet
37 207 m 0
 37 266 54 326 92 370 c 0
 131 415 193 444 276 444 c 0
 425 444 514 347 514 216 c 0
 514 160 497 92 446 47 c 0
 405 10 346 -10 275 -10 c 0
 141 -10 37 76 37 207 c 0
260 402 m 0
 193 402 177 321 177 229 c 0
 177 155 209 32 291 32 c 0
 327 32 374 64 374 184 c 0
 374 321 328 402 260 402 c 0
244 674 m 2
 313 550 l 2
 317 543 322 532 322 524 c 0
 322 515 314 508 305 508 c 0
 297 508 287 513 270 528 c 2
 149 633 l 1
 151 644 l 1
 159 653 188 676 224 676 c 0
 229 676 240 675 244 674 c 2
EndSplineSet
MultipleSubs2: "'smcp' Lowercase to Small Capitals lookup 10 subtable" ograve.sc
EndChar

StartChar: oacute
Encoding: 243 243 179
Width: 551
GlyphClass: 2
Flags: MW
HStem: -10 42<250 309 250 310.5> 402 42<234.5 294>
VStem: 37 140<192 236.5> 374 140<188 252.5>
AnchorPoint: "Anchor-5" 241 -3 basechar 0
AnchorPoint: "Anchor-4" 372 44 basechar 0
AnchorPoint: "Anchor-2" 243 -110 basechar 0
AnchorPoint: "Anchor-1" 420 396 basechar 0
AnchorPoint: "Anchor-0" 255 834 basechar 0
LayerCount: 2
Fore
SplineSet
37 207 m 0
 37 266 54 326 92 370 c 0
 131 415 193 444 276 444 c 0
 425 444 514 347 514 216 c 0
 514 160 497 92 446 47 c 0
 405 10 346 -10 275 -10 c 0
 141 -10 37 76 37 207 c 0
260 402 m 0
 193 402 177 321 177 229 c 0
 177 155 209 32 291 32 c 0
 327 32 374 64 374 184 c 0
 374 321 328 402 260 402 c 0
282 674 m 2
 285 675 293 676 298 676 c 0
 328 676 347 662 355 652 c 2
 365 629 l 1
 245 521 l 2
 231 509 217 505 207 505 c 0
 199 505 191 513 191 519 c 0
 191 525 193 534 199 543 c 2
 282 674 l 2
EndSplineSet
MultipleSubs2: "'smcp' Lowercase to Small Capitals lookup 10 subtable" oacute.sc
EndChar

StartChar: ocircumflex
Encoding: 244 244 180
Width: 551
GlyphClass: 2
Flags: MW
HStem: -10 42<250 309 250 310.5> 402 42<234.5 294>
VStem: 37 140<192 236.5> 374 140<188 252.5>
AnchorPoint: "Anchor-5" 241 -3 basechar 0
AnchorPoint: "Anchor-4" 372 44 basechar 0
AnchorPoint: "Anchor-2" 243 -110 basechar 0
AnchorPoint: "Anchor-1" 420 396 basechar 0
AnchorPoint: "Anchor-0" 255 833 basechar 0
LayerCount: 2
Fore
SplineSet
37 207 m 0
 37 266 54 326 92 370 c 0
 131 415 193 444 276 444 c 0
 425 444 514 347 514 216 c 0
 514 160 497 92 446 47 c 0
 405 10 346 -10 275 -10 c 0
 141 -10 37 76 37 207 c 0
260 402 m 0
 193 402 177 321 177 229 c 0
 177 155 209 32 291 32 c 0
 327 32 374 64 374 184 c 0
 374 321 328 402 260 402 c 0
303 663 m 1
 333 614 371 570 408 529 c 1
 383 510 l 1
 340 536 311 556 276 593 c 1
 238 554 210 536 170 510 c 1
 145 529 l 1
 181 570 221 615 251 663 c 1
 303 663 l 1
EndSplineSet
MultipleSubs2: "'smcp' Lowercase to Small Capitals lookup 10 subtable" ocircumflex.sc
EndChar

StartChar: otilde
Encoding: 245 245 181
Width: 551
GlyphClass: 2
Flags: MW
HStem: -10 42<250 309 250 310.5> 402 42<234.5 294> 519 70<319.5 329.5> 557 71<178.5 197>
VStem: 37 140<192 236.5> 374 140<188 252.5>
AnchorPoint: "Anchor-5" 241 -3 basechar 0
AnchorPoint: "Anchor-4" 372 44 basechar 0
AnchorPoint: "Anchor-2" 243 -110 basechar 0
AnchorPoint: "Anchor-1" 420 396 basechar 0
AnchorPoint: "Anchor-0" 255 834 basechar 0
LayerCount: 2
Fore
SplineSet
37 207 m 0xec
 37 266 54 326 92 370 c 0
 131 415 193 444 276 444 c 0
 425 444 514 347 514 216 c 0
 514 160 497 92 446 47 c 0
 405 10 346 -10 275 -10 c 0
 141 -10 37 76 37 207 c 0xec
260 402 m 0
 193 402 177 321 177 229 c 0
 177 155 209 32 291 32 c 0
 327 32 374 64 374 184 c 0
 374 321 328 402 260 402 c 0
325 589 m 0
 339 589 360 596 374 632 c 1
 388 632 402 624 402 612 c 0
 385 554 348 519 311 519 c 0xec
 288 519 266 525 246 540 c 0
 226 553 206 557 188 557 c 0
 166 557 150 555 139 517 c 1
 127 517 113 521 113 535 c 1
 129 586 161 628 196 628 c 0xdc
 227 628 250 619 270 603 c 0
 288 589 314 589 325 589 c 0
EndSplineSet
MultipleSubs2: "'smcp' Lowercase to Small Capitals lookup 10 subtable" otilde.sc
EndChar

StartChar: odieresis
Encoding: 246 246 182
Width: 551
GlyphClass: 2
Flags: MW
HStem: -10 42<250 309 250 310.5> 402 42<234.5 294> 519 109<164 194.5 349.5 380>
VStem: 37 140<192 236.5> 124 110<558 588.5> 310 110<558 588.5> 374 140<188 252.5>
AnchorPoint: "Anchor-5" 241 -3 basechar 0
AnchorPoint: "Anchor-4" 372 44 basechar 0
AnchorPoint: "Anchor-2" 243 -110 basechar 0
AnchorPoint: "Anchor-0" 255 834 basechar 0
LayerCount: 2
Fore
SplineSet
37 207 m 0xd2
 37 266 54 326 92 370 c 0
 131 415 193 444 276 444 c 0
 425 444 514 347 514 216 c 0
 514 160 497 92 446 47 c 0
 405 10 346 -10 275 -10 c 0
 141 -10 37 76 37 207 c 0xd2
260 402 m 0
 193 402 177 321 177 229 c 0
 177 155 209 32 291 32 c 0
 327 32 374 64 374 184 c 0
 374 321 328 402 260 402 c 0
124 573 m 0xec
 124 604 149 628 179 628 c 0
 210 628 234 604 234 573 c 0
 234 543 210 519 179 519 c 0
 149 519 124 543 124 573 c 0xec
310 573 m 0
 310 604 334 628 365 628 c 0
 395 628 420 604 420 573 c 0
 420 543 395 519 365 519 c 0
 334 519 310 543 310 573 c 0
EndSplineSet
MultipleSubs2: "'smcp' Lowercase to Small Capitals lookup 10 subtable" odieresis.sc
EndChar

StartChar: divide
Encoding: 247 247 183
Width: 540
GlyphClass: 2
Flags: MW
HStem: 28 116<252.5 284> 206 60<74 463 64 473> 328 116<252.5 284>
VStem: 207 123<70.5 101 370.5 401>
CounterMasks: 1 e0
LayerCount: 2
Fore
SplineSet
473 266 m 1
 463 206 l 1
 64 206 l 1
 74 266 l 1
 473 266 l 1
207 85 m 0
 207 117 236 144 269 144 c 0
 303 144 330 119 330 86 c 0
 330 55 301 28 267 28 c 0
 234 28 207 53 207 85 c 0
207 385 m 0
 207 417 236 444 269 444 c 0
 303 444 330 419 330 386 c 0
 330 355 301 328 267 328 c 0
 234 328 207 353 207 385 c 0
EndSplineSet
EndChar

StartChar: oslash
Encoding: 248 248 184
Width: 567
GlyphClass: 2
Flags: MW
HStem: -10 42<275 314 275 315.5> -2 21G<58 58> 402 42<239.5 281.5>
VStem: 42 140<218.5 236.5> 379 140<188 206>
AnchorPoint: "Anchor-5" 241 -3 basechar 0
AnchorPoint: "Anchor-4" 372 44 basechar 0
AnchorPoint: "Anchor-2" 243 -110 basechar 0
LayerCount: 2
Fore
SplineSet
450 475 m 1xb8
 487 446 l 1
 442 391 l 1
 492 350 519 288 519 216 c 0
 519 160 502 92 451 47 c 0
 410 10 351 -10 280 -10 c 0
 228 -10 181 3 143 26 c 1
 94 -34 l 1xb8
 58 -2 l 1
 105 55 l 1x78
 66 93 42 145 42 207 c 0
 42 266 59 326 97 370 c 0
 136 415 198 444 281 444 c 0
 328 444 368 434 403 417 c 1
 450 475 l 1xb8
366 298 m 1
 207 105 l 1
 226 64 254 32 296 32 c 0
 332 32 379 64 379 184 c 0
 379 228 374 266 366 298 c 1
265 402 m 0
 198 402 182 321 182 229 c 0
 182 208 185 183 190 159 c 1
 346 348 l 1
 326 383 298 402 265 402 c 0
EndSplineSet
MultipleSubs2: "'smcp' Lowercase to Small Capitals lookup 10 subtable" oslash.sc
EndChar

StartChar: ugrave
Encoding: 249 249 185
Width: 598
GlyphClass: 2
Flags: MW
HStem: -10 74<174 298> 416 20G
VStem: 89 130<150 306> 380 130<121 133 133 306>
AnchorPoint: "Anchor-0" 255 834 basechar 0
LayerCount: 2
Fore
SplineSet
510 133 m 2
 510 76 521 60 575 55 c 1
 577 49 579 29 577 23 c 1
 508 14 448 0 411 -10 c 0
 397 -10 389 -5 388 7 c 2
 388 7 386 26 384 51 c 1
 326 19 253 -10 217 -10 c 0
 131 -10 89 44 89 150 c 2
 89 306 l 2
 89 390 68 400 22 402 c 1
 16 408 16 430 22 436 c 1
 65 435 103 434 154 434 c 0
 172 434 193 435 211 436 c 1
 217 430 221 419 221 402 c 0
 221 378 219 390 219 306 c 2
 219 139 l 2
 219 69 249 64 289 64 c 0
 307 64 340 66 381 91 c 1
 380 101 380 111 380 121 c 2
 380 306 l 2
 380 390 364 397 313 402 c 1
 307 408 307 430 313 436 c 1
 352 435 417 434 445 434 c 0
 464 434 484 435 502 436 c 1
 508 430 512 419 512 402 c 0
 512 378 510 390 510 306 c 2
 510 133 l 2
259 674 m 2
 328 550 l 2
 332 543 337 532 337 524 c 0
 337 515 329 508 320 508 c 0
 312 508 302 513 285 528 c 2
 164 633 l 1
 166 644 l 1
 174 653 203 676 239 676 c 0
 244 676 255 675 259 674 c 2
EndSplineSet
MultipleSubs2: "'smcp' Lowercase to Small Capitals lookup 10 subtable" ugrave.sc
EndChar

StartChar: uacute
Encoding: 250 250 186
Width: 598
GlyphClass: 2
Flags: MW
HStem: -10 74<174 298> 416 20G
VStem: 89 130<150 306> 380 130<121 133 133 306>
AnchorPoint: "Anchor-0" 255 834 basechar 0
LayerCount: 2
Fore
SplineSet
510 133 m 2
 510 76 521 60 575 55 c 1
 577 49 579 29 577 23 c 1
 508 14 448 0 411 -10 c 0
 397 -10 389 -5 388 7 c 2
 388 7 386 26 384 51 c 1
 326 19 253 -10 217 -10 c 0
 131 -10 89 44 89 150 c 2
 89 306 l 2
 89 390 68 400 22 402 c 1
 16 408 16 430 22 436 c 1
 65 435 103 434 154 434 c 0
 172 434 193 435 211 436 c 1
 217 430 221 419 221 402 c 0
 221 378 219 390 219 306 c 2
 219 139 l 2
 219 69 249 64 289 64 c 0
 307 64 340 66 381 91 c 1
 380 101 380 111 380 121 c 2
 380 306 l 2
 380 390 364 397 313 402 c 1
 307 408 307 430 313 436 c 1
 352 435 417 434 445 434 c 0
 464 434 484 435 502 436 c 1
 508 430 512 419 512 402 c 0
 512 378 510 390 510 306 c 2
 510 133 l 2
309 674 m 2
 312 675 320 676 325 676 c 0
 355 676 374 662 382 652 c 2
 392 629 l 1
 272 521 l 2
 258 509 244 505 234 505 c 0
 226 505 218 513 218 519 c 0
 218 525 220 534 226 543 c 2
 309 674 l 2
EndSplineSet
MultipleSubs2: "'smcp' Lowercase to Small Capitals lookup 10 subtable" uacute.sc
EndChar

StartChar: ucircumflex
Encoding: 251 251 187
Width: 598
GlyphClass: 2
Flags: MW
HStem: -10 74<174 298> 416 20G
VStem: 89 130<150 306> 380 130<121 133 133 306>
AnchorPoint: "Anchor-0" 247 834 basechar 0
LayerCount: 2
Fore
SplineSet
510 133 m 2
 510 76 521 60 575 55 c 1
 577 49 579 29 577 23 c 1
 508 14 448 0 411 -10 c 0
 397 -10 389 -5 388 7 c 2
 388 7 386 26 384 51 c 1
 326 19 253 -10 217 -10 c 0
 131 -10 89 44 89 150 c 2
 89 306 l 2
 89 390 68 400 22 402 c 1
 16 408 16 430 22 436 c 1
 65 435 103 434 154 434 c 0
 172 434 193 435 211 436 c 1
 217 430 221 419 221 402 c 0
 221 378 219 390 219 306 c 2
 219 139 l 2
 219 69 249 64 289 64 c 0
 307 64 340 66 381 91 c 1
 380 101 380 111 380 121 c 2
 380 306 l 2
 380 390 364 397 313 402 c 1
 307 408 307 430 313 436 c 1
 352 435 417 434 445 434 c 0
 464 434 484 435 502 436 c 1
 508 430 512 419 512 402 c 0
 512 378 510 390 510 306 c 2
 510 133 l 2
307 663 m 1
 337 614 375 570 412 529 c 1
 387 510 l 1
 344 536 315 556 280 593 c 1
 242 554 214 536 174 510 c 1
 149 529 l 1
 185 570 225 615 255 663 c 1
 307 663 l 1
EndSplineSet
MultipleSubs2: "'smcp' Lowercase to Small Capitals lookup 10 subtable" ucircumflex.sc
EndChar

StartChar: udieresis
Encoding: 252 252 188
Width: 598
GlyphClass: 2
Flags: MW
HStem: -10 74<174 298> 416 20G 519 109<180 210.5 365.5 396>
VStem: 89 130<150 306> 140 110<558 588.5> 326 110<558 588.5> 380 130<121 133 133 306>
AnchorPoint: "Anchor-0" 255 834 basechar 0
LayerCount: 2
Fore
SplineSet
510 133 m 2xf2
 510 76 521 60 575 55 c 1
 577 49 579 29 577 23 c 1
 508 14 448 0 411 -10 c 0
 397 -10 389 -5 388 7 c 2
 388 7 386 26 384 51 c 1
 326 19 253 -10 217 -10 c 0
 131 -10 89 44 89 150 c 2
 89 306 l 2
 89 390 68 400 22 402 c 1
 16 408 16 430 22 436 c 1
 65 435 103 434 154 434 c 0
 172 434 193 435 211 436 c 1
 217 430 221 419 221 402 c 0
 221 378 219 390 219 306 c 2
 219 139 l 2
 219 69 249 64 289 64 c 0
 307 64 340 66 381 91 c 1
 380 101 380 111 380 121 c 2
 380 306 l 2
 380 390 364 397 313 402 c 1
 307 408 307 430 313 436 c 1
 352 435 417 434 445 434 c 0
 464 434 484 435 502 436 c 1
 508 430 512 419 512 402 c 0
 512 378 510 390 510 306 c 2
 510 133 l 2xf2
140 573 m 0xec
 140 604 165 628 195 628 c 0
 226 628 250 604 250 573 c 0
 250 543 226 519 195 519 c 0
 165 519 140 543 140 573 c 0xec
326 573 m 0
 326 604 350 628 381 628 c 0
 411 628 436 604 436 573 c 0
 436 543 411 519 381 519 c 0
 350 519 326 543 326 573 c 0
EndSplineSet
MultipleSubs2: "'smcp' Lowercase to Small Capitals lookup 10 subtable" udieresis.sc
EndChar

StartChar: yacute
Encoding: 253 253 189
Width: 558
GlyphClass: 2
Flags: MW
HStem: -232 21G<118.5 131.5> -232 100<118.5 183> -232 104<118.5 131.5> 402 34<10 10 254 254 371 371 548 548>
VStem: 6 201 367 186 423 130
AnchorPoint: "Anchor-0" 255 834 basechar 0
LayerCount: 2
Fore
SplineSet
242 -168 m 0x9a
 231 -188 203 -212 182 -222 c 0
 168 -228 138 -232 125 -232 c 0
 112 -232 95 -225 86 -214 c 0
 77 -203 74 -187 74 -174 c 0
 74 -154 96 -128 134 -128 c 0x3a
 148 -128 151 -132 169 -132 c 0
 197 -132 209 -114 222 -83 c 2
 246 -28 l 2
 252 -14 241 1 228 19 c 0
 225 23 221 27 218 32 c 2
 89 328 l 2
 62 391 54 398 10 402 c 1
 4 408 4 430 10 436 c 1
 30 435 87 434 121 434 c 0
 157 434 217 435 254 436 c 1
 260 430 260 408 254 402 c 1
 195 397 202 380 220 341 c 0
 220 340 220 339 221 338 c 2
 314 129 l 2
 315 127 315 126 315 125 c 1
 316 126 316 126 316 127 c 2
 419 358 l 2x5a
 435 394 403 399 371 402 c 1
 365 408 365 430 371 436 c 1
 408 435 442 434 477 434 c 0x9c
 505 434 523 435 548 436 c 1
 554 430 554 408 548 402 c 1
 511 399 481 368 467 339 c 0
 414 227 365 119 285 -74 c 0
 273 -104 258 -140 242 -168 c 0x9a
327 674 m 2
 330 675 338 676 343 676 c 0
 373 676 392 662 400 652 c 2
 410 629 l 1
 290 521 l 2
 276 509 262 505 252 505 c 0
 244 505 236 513 236 519 c 0
 236 525 238 534 244 543 c 2
 327 674 l 2
EndSplineSet
MultipleSubs2: "'smcp' Lowercase to Small Capitals lookup 10 subtable" yacute.sc
EndChar

StartChar: thorn
Encoding: 254 254 190
Width: 588
GlyphClass: 2
Flags: MW
HStem: -234 21G -10 42<287.5 336.5 287.5 375> 377 67<338.5 341.5> 678 20G<213 220>
VStem: 102 130<-110 7 65 341 378 568 568 575> 410 140<168 265 163.5 268.5>
AnchorPoint: "Anchor-0" 278 646 basechar 0
LayerCount: 2
Fore
SplineSet
232 -110 m 2
 232 -193 243 -196 304 -200 c 1
 310 -206 310 -228 304 -234 c 1
 261 -233 220 -232 167 -232 c 0
 114 -232 72 -233 30 -234 c 1
 24 -228 24 -206 30 -200 c 1
 91 -195 102 -193 102 -110 c 2
 102 568 l 2
 102 625 92 631 37 636 c 1
 35 642 33 664 35 670 c 1
 104 679 185 687 213 698 c 1
 227 698 236 692 236 681 c 2
 236 681 232 625 232 575 c 2
 232 378 l 1
 235 381 l 2
 270 413 324 444 353 444 c 0
 405 444 455 429 490 394 c 0
 529 355 550 293 550 237 c 0
 550 90 451 -10 299 -10 c 0
 275 -10 254 -4 232 7 c 1
 232 -110 l 2
232 341 m 1
 232 65 l 1
 257 38 282 32 293 32 c 0
 380 32 410 126 410 210 c 0
 410 327 362 377 321 377 c 0
 297 377 261 368 232 341 c 1
EndSplineSet
MultipleSubs2: "'smcp' Lowercase to Small Capitals lookup 10 subtable" thorn.sc
EndChar

StartChar: ydieresis
Encoding: 255 255 191
Width: 558
GlyphClass: 2
Flags: MW
HStem: -232 21G<118.5 131.5> -232 100<118.5 183> -232 104<118.5 131.5> 402 34<10 10 254 254 371 371 548 548> 519 109<207 237.5 392.5 423>
VStem: 6 201 167 110<558 588.5> 353 110<558 588.5> 367 186 423 130
AnchorPoint: "Anchor-0" 255 834 basechar 0
LayerCount: 2
Fore
SplineSet
242 -168 m 0x9a40
 231 -188 203 -212 182 -222 c 0
 168 -228 138 -232 125 -232 c 0
 112 -232 95 -225 86 -214 c 0
 77 -203 74 -187 74 -174 c 0
 74 -154 96 -128 134 -128 c 0x3c40
 148 -128 151 -132 169 -132 c 0
 197 -132 209 -114 222 -83 c 2
 246 -28 l 2
 252 -14 241 1 228 19 c 0
 225 23 221 27 218 32 c 2
 89 328 l 2
 62 391 54 398 10 402 c 1
 4 408 4 430 10 436 c 1
 30 435 87 434 121 434 c 0
 157 434 217 435 254 436 c 1
 260 430 260 408 254 402 c 1
 195 397 202 380 220 341 c 0
 220 340 220 339 221 338 c 2
 314 129 l 2
 315 127 315 126 315 125 c 1
 316 126 316 126 316 127 c 2
 419 358 l 2x5c40
 435 394 403 399 371 402 c 1
 365 408 365 430 371 436 c 1
 408 435 442 434 477 434 c 0x9a80
 505 434 523 435 548 436 c 1
 554 430 554 408 548 402 c 1
 511 399 481 368 467 339 c 0
 414 227 365 119 285 -74 c 0
 273 -104 258 -140 242 -168 c 0x9a40
167 573 m 0
 167 604 192 628 222 628 c 0
 253 628 277 604 277 573 c 0
 277 543 253 519 222 519 c 0
 192 519 167 543 167 573 c 0
353 573 m 0x9b
 353 604 377 628 408 628 c 0
 438 628 463 604 463 573 c 0
 463 543 438 519 408 519 c 0
 377 519 353 543 353 573 c 0x9b
EndSplineSet
MultipleSubs2: "'smcp' Lowercase to Small Capitals lookup 10 subtable" ydieresis.sc
EndChar

StartChar: Amacron
Encoding: 256 256 192
Width: 740
GlyphClass: 2
Flags: MW
HStem: -2 34<7 7 234 234 425 425 730 730> -2 34.5 235 48<241 425 273 425 273 443> 638 20G<434 434> 755 50<229.5 521 245 509>
VStem: 3 159 3 732
LayerCount: 2
Fore
SplineSet
165 79 m 2xbc
 149 38 196 35 234 32 c 1
 240 26 240 4 234 -2 c 1
 197 -1 142 0 101 0 c 0
 62 0 44 -1 7 -2 c 1
 1 4 1 26 7 32 c 1
 51 35 81 40 107 102 c 2
 324 614 l 1
 359 614 419 649 434 658 c 1
 640 86 l 2
 658 35 691 36 730 32 c 1
 736 26 736 4 730 -2 c 1
 693 -1 637 0 596 0 c 0
 557 0 462 -1 425 -2 c 1xbc
 419 4 419 26 425 32 c 1
 431 32 438 33 444 33 c 0
 482 35 511 36 499 72 c 2x7a
 443 235 l 1
 253 235 l 2
 229 235 223 231 218 218 c 2
 165 79 l 2xbc
273 283 m 2
 425 283 l 1
 343 520 l 1
 336 520 l 1
 248 296 l 2
 244 286 251 283 273 283 c 2
509 755 m 2xba
 235 755 l 2
 224 755 220 764 220 773 c 0
 220 785 232 805 245 805 c 2
 521 805 l 2
 531 805 535 796 535 788 c 0
 535 775 523 755 509 755 c 2xba
EndSplineSet
MultipleSubs2: "'c2sc' Capitals to Small Capitals lookup 12 subtable" a.sc uni0304
Position2: "'cpsp' Capital Spacing lookup 3 per glyph data 0" dx=2 dy=0 dh=5 dv=0
EndChar

